<svg width="400" height="300" version="1.1" xmlns="http://www.w3.org/2000/svg" desc="Created with imagetracer.js version 1.2.6" ><path fill="rgb(36,0,68)" stroke="rgb(36,0,68)" stroke-width="1" opacity="1" d="M 0 0 L 89 0.5 Q 62.8 28.8 48 68.5 L 41 90.5 L 35 120.5 L 34 141.5 L 33 142.5 L 33 165.5 L 34 166.5 L 34 178.5 L 35 179.5 L 35 186.5 L 39 209.5 L 48 239.5 Q 61.2 274.1 82 300 L 0.5 300 L 0 299.5 L 0 0 Z " /><path fill="rgb(36,0,68)" stroke="rgb(36,0,68)" stroke-width="1" opacity="1" d="M 313.5 0 L 399.5 0 L 400 0.5 L 400 300 L 320.5 300 L 320 298.5 L 327.5 289 Q 333.9 288.9 336 284.5 L 343 273 L 340 272.5 L 346 271 L 344 280.5 Q 344.8 282.8 348.5 282 L 351.5 279 L 352.5 280 L 357.5 279 L 360.5 280 L 363 278.5 Q 362.1 281.9 367.5 280 L 367 278.5 Q 366.9 272.9 370.5 271 L 370 272.5 L 369 278.5 Q 369.8 280.8 373.5 280 L 375.5 280 Q 380.8 281.8 379 276.5 L 382.5 271 L 383 272.5 L 379.5 281 L 351.5 281 L 350 282.5 L 381.5 283 L 385.5 284 L 386.5 282 Q 383.8 282.6 385 276.5 L 389 267.5 L 385.5 266 L 383.5 267 L 379.5 266 L 378 269.5 L 374.5 277 Q 372.3 277.8 373 275.5 L 376 269.5 L 376 266 L 371.5 267 L 372 265.5 L 372.5 264 L 374.5 264 L 379 260.5 L 377.5 258 L 375.5 257 L 371 259.5 L 368.5 263 L 359.5 263 L 358 264.5 L 368 265.5 L 364 275 L 361.5 276 L 362 274.5 L 366 266.5 L 357.5 266 L 353.5 270 L 352 268.5 Q 353.4 262.4 358.5 260 L 361 258.5 L 356.5 258 L 350 263.5 L 346.5 269 L 346 267.5 Q 349 265.3 348 260 L 345 258.5 L 355 236.5 L 364 204.5 L 366 187.5 L 367 186.5 L 367 178.5 L 368 177.5 L 369 144.5 L 368 143.5 L 368 130.5 L 367 129.5 L 367 121.5 L 366 120.5 L 364 103.5 L 359 83.5 L 352 63.5 L 333 26.5 L 313.5 0 Z " /><path fill="rgb(36,0,68)" stroke="rgb(36,0,68)" stroke-width="1" opacity="1" d="M 358.5 270 L 359 271.5 L 356.5 275 L 356 273.5 L 358.5 270 Z " /><path fill="rgb(36,0,68)" stroke="rgb(36,0,68)" stroke-width="1" opacity="1" d="M 351.5 271 L 353 271.5 L 349.5 277 L 349 274.5 L 351.5 271 Z " /><path fill="rgb(36,0,68)" stroke="rgb(36,0,68)" stroke-width="1" opacity="1" d="M 338.5 273 L 337 275.5 L 333.5 281 L 334 279.5 L 338.5 273 Z " /><path fill="rgb(120,94,155)" stroke="rgb(120,94,155)" stroke-width="1" opacity="1" d="M 196.5 49 L 197 51.5 L 196 51.5 L 196.5 49 Z " /><path fill="rgb(120,94,155)" stroke="rgb(120,94,155)" stroke-width="1" opacity="1" d="M 185.5 50 L 186 52.5 L 185 52.5 L 185.5 50 Z " /><path fill="rgb(120,94,155)" stroke="rgb(120,94,155)" stroke-width="1" opacity="1" d="M 199.5 51 L 200 55 L 197 53.5 L 199 53.5 L 199.5 51 Z " /><path fill="rgb(120,94,155)" stroke="rgb(120,94,155)" stroke-width="1" opacity="1" d="M 186.5 57 L 185.5 59 L 181 58.5 L 186.5 57 Z " /><path fill="rgb(120,94,155)" stroke="rgb(120,94,155)" stroke-width="1" opacity="1" d="M 217.5 58 L 222 58.5 L 217.5 59 L 217.5 58 Z " /><path fill="rgb(120,94,155)" stroke="rgb(120,94,155)" stroke-width="1" opacity="1" d="M 168.5 59 L 171 59.5 L 168.5 60 L 168.5 59 Z " /><path fill="rgb(120,94,155)" stroke="rgb(120,94,155)" stroke-width="1" opacity="1" d="M 232.5 59 L 235 59.5 L 232.5 60 L 232.5 59 Z " /><path fill="rgb(120,94,155)" stroke="rgb(120,94,155)" stroke-width="1" opacity="1" d="M 190.5 64 L 193 64.5 L 190.5 65 L 190.5 64 Z " /><path fill="rgb(120,94,155)" stroke="rgb(120,94,155)" stroke-width="1" opacity="1" d="M 210.5 64 L 213 64.5 L 210.5 65 L 210.5 64 Z " /><path fill="rgb(120,94,155)" stroke="rgb(120,94,155)" stroke-width="1" opacity="1" d="M 173.5 65 L 179 65.5 L 173.5 66 L 173.5 65 Z " /><path fill="rgb(120,94,155)" stroke="rgb(120,94,155)" stroke-width="1" opacity="1" d="M 224.5 65 L 230 65.5 L 224.5 66 L 224.5 65 Z " /><path fill="rgb(120,94,155)" stroke="rgb(120,94,155)" stroke-width="1" opacity="1" d="M 163.5 66 L 167 66.5 L 163.5 67 L 163.5 66 Z " /><path fill="rgb(120,94,155)" stroke="rgb(120,94,155)" stroke-width="1" opacity="1" d="M 236.5 66 L 240 66.5 L 236.5 67 L 236.5 66 Z " /><path fill="rgb(120,94,155)" stroke="rgb(120,94,155)" stroke-width="1" opacity="1" d="M 156.5 67 L 159 67.5 L 156.5 68 L 156.5 67 Z " /><path fill="rgb(120,94,155)" stroke="rgb(120,94,155)" stroke-width="1" opacity="1" d="M 244.5 67 L 247 67.5 L 244.5 68 L 244.5 67 Z " /><path fill="rgb(120,94,155)" stroke="rgb(120,94,155)" stroke-width="1" opacity="1" d="M 149.5 68 L 152 68.5 L 149.5 69 L 149.5 68 Z " /><path fill="rgb(120,94,155)" stroke="rgb(120,94,155)" stroke-width="1" opacity="1" d="M 251.5 68 L 254 68.5 L 251.5 69 L 251.5 68 Z " /><path fill="rgb(120,94,155)" stroke="rgb(120,94,155)" stroke-width="1" opacity="1" d="M 196.5 69 L 200 69.5 L 196.5 70 L 196.5 69 Z " /><path fill="rgb(120,94,155)" stroke="rgb(120,94,155)" stroke-width="1" opacity="1" d="M 208.5 69 L 211 69.5 L 208.5 70 L 208.5 69 Z " /><path fill="rgb(120,94,155)" stroke="rgb(120,94,155)" stroke-width="1" opacity="1" d="M 178.5 70 Q 180.8 70.8 180 74.5 L 179 74.5 L 178.5 70 Z " /><path fill="rgb(120,94,155)" stroke="rgb(120,94,155)" stroke-width="1" opacity="1" d="M 194.5 71 L 195 81.5 L 194 81.5 L 194.5 71 Z " /><path fill="rgb(120,94,155)" stroke="rgb(120,94,155)" stroke-width="1" opacity="1" d="M 206.5 71 L 207 74.5 L 206 74.5 L 206.5 71 Z " /><path fill="rgb(120,94,155)" stroke="rgb(120,94,155)" stroke-width="1" opacity="1" d="M 197.5 72 L 198 74.5 L 197 74.5 L 197.5 72 Z " /><path fill="rgb(120,94,155)" stroke="rgb(120,94,155)" stroke-width="1" opacity="1" d="M 209.5 72 L 213 73.5 L 211.5 75 L 209.5 72 Z " /><path fill="rgb(120,94,155)" stroke="rgb(120,94,155)" stroke-width="1" opacity="1" d="M 249.5 73 L 250 84.5 L 249 84.5 L 249.5 73 Z " /><path fill="rgb(120,94,155)" stroke="rgb(120,94,155)" stroke-width="1" opacity="1" d="M 252.5 73 L 253 81.5 L 252 81.5 L 252.5 73 Z " /><path fill="rgb(120,94,155)" stroke="rgb(120,94,155)" stroke-width="1" opacity="1" d="M 126.5 74 L 127 80.5 L 126 80.5 L 126.5 74 Z " /><path fill="rgb(120,94,155)" stroke="rgb(120,94,155)" stroke-width="1" opacity="1" d="M 140.5 74 L 143 74.5 L 140.5 75 L 140.5 74 Z " /><path fill="rgb(120,94,155)" stroke="rgb(120,94,155)" stroke-width="1" opacity="1" d="M 276.5 74 L 277 80.5 L 276 80.5 L 276.5 74 Z " /><path fill="rgb(120,94,155)" stroke="rgb(120,94,155)" stroke-width="1" opacity="1" d="M 137.5 75 L 138 86.5 L 137 86.5 L 137.5 75 Z " /><path fill="rgb(120,94,155)" stroke="rgb(120,94,155)" stroke-width="1" opacity="1" d="M 197.5 77 L 199 81.5 L 197 82 L 197.5 77 Z " /><path fill="rgb(120,94,155)" stroke="rgb(120,94,155)" stroke-width="1" opacity="1" d="M 206.5 77 L 208 81.5 L 206 80.5 L 206.5 77 Z " /><path fill="rgb(120,94,155)" stroke="rgb(120,94,155)" stroke-width="1" opacity="1" d="M 287.5 77 L 288 98.5 L 286 99.5 L 287 98.5 L 287.5 77 Z " /><path fill="rgb(120,94,155)" stroke="rgb(120,94,155)" stroke-width="1" opacity="1" d="M 224.5 80 L 223.5 82 L 224.5 80 Z " /><path fill="rgb(120,94,155)" stroke="rgb(120,94,155)" stroke-width="1" opacity="1" d="M 115.5 82 L 116 98.5 L 117 99.5 L 115 98.5 L 115.5 82 Z " /><path fill="rgb(120,94,155)" stroke="rgb(120,94,155)" stroke-width="1" opacity="1" d="M 174.5 82 L 178 82.5 L 174.5 83 L 174.5 82 Z " /><path fill="rgb(120,94,155)" stroke="rgb(120,94,155)" stroke-width="1" opacity="1" d="M 126.5 86 L 127 91.5 L 126 91.5 L 126.5 86 Z " /><path fill="rgb(120,94,155)" stroke="rgb(120,94,155)" stroke-width="1" opacity="1" d="M 201.5 86 L 206 86.5 L 201.5 87 L 201.5 86 Z " /><path fill="rgb(120,94,155)" stroke="rgb(120,94,155)" stroke-width="1" opacity="1" d="M 276.5 86 L 277 91.5 L 276 91.5 L 276.5 86 Z " /><path fill="rgb(120,94,155)" stroke="rgb(120,94,155)" stroke-width="1" opacity="1" d="M 175.5 87 L 181 87.5 L 175.5 88 L 175.5 87 Z " /><path fill="rgb(120,94,155)" stroke="rgb(120,94,155)" stroke-width="1" opacity="1" d="M 222.5 87 L 228 87.5 L 222.5 88 L 222.5 87 Z " /><path fill="rgb(120,94,155)" stroke="rgb(120,94,155)" stroke-width="1" opacity="1" d="M 166.5 88 L 170 88.5 L 166.5 89 L 166.5 88 Z " /><path fill="rgb(120,94,155)" stroke="rgb(120,94,155)" stroke-width="1" opacity="1" d="M 233.5 88 L 237 88.5 L 233.5 89 L 233.5 88 Z " /><path fill="rgb(120,94,155)" stroke="rgb(120,94,155)" stroke-width="1" opacity="1" d="M 159.5 89 L 162 89.5 L 159.5 90 L 159.5 89 Z " /><path fill="rgb(120,94,155)" stroke="rgb(120,94,155)" stroke-width="1" opacity="1" d="M 196.5 89 L 197 93.5 L 196 93.5 L 196.5 89 Z " /><path fill="rgb(120,94,155)" stroke="rgb(120,94,155)" stroke-width="1" opacity="1" d="M 204.5 89 L 205.5 91 L 204.5 89 Z " /><path fill="rgb(120,94,155)" stroke="rgb(120,94,155)" stroke-width="1" opacity="1" d="M 241.5 89 L 244 89.5 L 241.5 90 L 241.5 89 Z " /><path fill="rgb(120,94,155)" stroke="rgb(120,94,155)" stroke-width="1" opacity="1" d="M 156.5 90 L 157 105.5 L 155 106.5 L 156 105.5 L 156.5 90 Z " /><path fill="rgb(120,94,155)" stroke="rgb(120,94,155)" stroke-width="1" opacity="1" d="M 246.5 91 L 247 105.5 L 248 106.5 L 246 105.5 L 246.5 91 Z " /><path fill="rgb(120,94,155)" stroke="rgb(120,94,155)" stroke-width="1" opacity="1" d="M 128.5 92 L 131 92.5 L 128.5 93 L 128.5 92 Z " /><path fill="rgb(120,94,155)" stroke="rgb(120,94,155)" stroke-width="1" opacity="1" d="M 272.5 92 L 275 92.5 L 272.5 93 L 272.5 92 Z " /><path fill="rgb(120,94,155)" stroke="rgb(120,94,155)" stroke-width="1" opacity="1" d="M 179.5 93 L 183 93.5 L 179.5 94 L 179.5 93 Z " /><path fill="rgb(120,94,155)" stroke="rgb(120,94,155)" stroke-width="1" opacity="1" d="M 219.5 93 L 224 93.5 L 219.5 94 L 219.5 93 Z " /><path fill="rgb(120,94,155)" stroke="rgb(120,94,155)" stroke-width="1" opacity="1" d="M 171.5 94 L 174 94.5 L 171.5 95 L 171.5 94 Z " /><path fill="rgb(120,94,155)" stroke="rgb(120,94,155)" stroke-width="1" opacity="1" d="M 229.5 94 L 232 94.5 L 229.5 95 L 229.5 94 Z " /><path fill="rgb(120,94,155)" stroke="rgb(120,94,155)" stroke-width="1" opacity="1" d="M 163.5 96 L 164 106.5 L 163 106.5 L 163.5 96 Z " /><path fill="rgb(120,94,155)" stroke="rgb(120,94,155)" stroke-width="1" opacity="1" d="M 239.5 96 L 240 106.5 L 239 106.5 L 239.5 96 Z " /><path fill="rgb(120,94,155)" stroke="rgb(120,94,155)" stroke-width="1" opacity="1" d="M 135.5 97 L 143 97.5 L 135.5 98 L 135.5 97 Z " /><path fill="rgb(120,94,155)" stroke="rgb(120,94,155)" stroke-width="1" opacity="1" d="M 260.5 97 L 268 97.5 L 260.5 98 L 260.5 97 Z " /><path fill="rgb(120,94,155)" stroke="rgb(120,94,155)" stroke-width="1" opacity="1" d="M 182.5 99 L 198 99.5 L 182.5 100 L 182.5 99 Z " /><path fill="rgb(120,94,155)" stroke="rgb(120,94,155)" stroke-width="1" opacity="1" d="M 204.5 99 L 221 99.5 L 204.5 100 L 204.5 99 Z " /><path fill="rgb(120,94,155)" stroke="rgb(120,94,155)" stroke-width="1" opacity="1" d="M 170.5 102 L 173 102.5 L 170.5 103 L 170.5 102 Z " /><path fill="rgb(120,94,155)" stroke="rgb(120,94,155)" stroke-width="1" opacity="1" d="M 212.5 102 L 232 102.5 L 212.5 103 L 212.5 102 Z " /><path fill="rgb(120,94,155)" stroke="rgb(120,94,155)" stroke-width="1" opacity="1" d="M 104.5 104 L 105 109.5 L 104 109.5 L 104.5 104 Z " /><path fill="rgb(120,94,155)" stroke="rgb(120,94,155)" stroke-width="1" opacity="1" d="M 197.5 104 L 198.5 106 L 197.5 104 Z " /><path fill="rgb(120,94,155)" stroke="rgb(120,94,155)" stroke-width="1" opacity="1" d="M 261.5 104 L 264 104.5 L 261.5 105 L 261.5 104 Z " /><path fill="rgb(120,94,155)" stroke="rgb(120,94,155)" stroke-width="1" opacity="1" d="M 146.5 105 L 149 105.5 L 146.5 106 L 146.5 105 Z " /><path fill="rgb(120,94,155)" stroke="rgb(120,94,155)" stroke-width="1" opacity="1" d="M 253.5 105 L 257 105.5 L 253.5 106 L 253.5 105 Z " /><path fill="rgb(120,94,155)" stroke="rgb(120,94,155)" stroke-width="1" opacity="1" d="M 298.5 105 L 299 111.5 L 298 111.5 L 298.5 105 Z " /><path fill="rgb(120,94,155)" stroke="rgb(120,94,155)" stroke-width="1" opacity="1" d="M 167.5 107 L 172 107.5 L 167.5 108 L 167.5 107 Z " /><path fill="rgb(120,94,155)" stroke="rgb(120,94,155)" stroke-width="1" opacity="1" d="M 231.5 107 L 236 107.5 L 231.5 108 L 231.5 107 Z " /><path fill="rgb(120,94,155)" stroke="rgb(120,94,155)" stroke-width="1" opacity="1" d="M 180.5 108 L 188 108.5 L 180.5 109 L 180.5 108 Z " /><path fill="rgb(120,94,155)" stroke="rgb(120,94,155)" stroke-width="1" opacity="1" d="M 214.5 108 L 223 108.5 L 214.5 109 L 214.5 108 Z " /><path fill="rgb(120,94,155)" stroke="rgb(120,94,155)" stroke-width="1" opacity="1" d="M 134.5 110 L 138 110.5 L 134.5 111 L 134.5 110 Z " /><path fill="rgb(120,94,155)" stroke="rgb(120,94,155)" stroke-width="1" opacity="1" d="M 265.5 110 L 268 110.5 L 265.5 111 L 265.5 110 Z " /><path fill="rgb(120,94,155)" stroke="rgb(120,94,155)" stroke-width="1" opacity="1" d="M 142.5 111 L 146 111.5 L 142.5 112 L 142.5 111 Z " /><path fill="rgb(120,94,155)" stroke="rgb(120,94,155)" stroke-width="1" opacity="1" d="M 257.5 111 L 260 111.5 L 257.5 112 L 257.5 111 Z " /><path fill="rgb(120,94,155)" stroke="rgb(120,94,155)" stroke-width="1" opacity="1" d="M 97.5 112 L 98 114.5 L 97 114.5 L 97.5 112 Z " /><path fill="rgb(120,94,155)" stroke="rgb(120,94,155)" stroke-width="1" opacity="1" d="M 152.5 112 L 157 112.5 L 152.5 113 L 152.5 112 Z " /><path fill="rgb(120,94,155)" stroke="rgb(120,94,155)" stroke-width="1" opacity="1" d="M 245.5 112 L 251 112.5 L 245.5 113 L 245.5 112 Z " /><path fill="rgb(120,94,155)" stroke="rgb(120,94,155)" stroke-width="1" opacity="1" d="M 165.5 113 L 173 113.5 L 165.5 114 L 165.5 113 Z " /><path fill="rgb(120,94,155)" stroke="rgb(120,94,155)" stroke-width="1" opacity="1" d="M 230.5 113 L 238 113.5 L 230.5 114 L 230.5 113 Z " /><path fill="rgb(120,94,155)" stroke="rgb(120,94,155)" stroke-width="1" opacity="1" d="M 305.5 113 L 306 115.5 L 305 115.5 L 305.5 113 Z " /><path fill="rgb(120,94,155)" stroke="rgb(120,94,155)" stroke-width="1" opacity="1" d="M 118.5 116 L 121 116.5 L 118.5 117 L 118.5 116 Z " /><path fill="rgb(120,94,155)" stroke="rgb(120,94,155)" stroke-width="1" opacity="1" d="M 103.5 117 L 104 120.5 L 103 120.5 L 103.5 117 Z " /><path fill="rgb(120,94,155)" stroke="rgb(120,94,155)" stroke-width="1" opacity="1" d="M 288.5 117 L 289.5 119 L 288.5 117 Z " /><path fill="rgb(120,94,155)" stroke="rgb(120,94,155)" stroke-width="1" opacity="1" d="M 258.5 118 L 261 118.5 L 258.5 119 L 258.5 118 Z " /><path fill="rgb(120,94,155)" stroke="rgb(120,94,155)" stroke-width="1" opacity="1" d="M 299.5 118 L 300 120.5 L 299 120.5 L 299.5 118 Z " /><path fill="rgb(120,94,155)" stroke="rgb(120,94,155)" stroke-width="1" opacity="1" d="M 150.5 119 L 153 119.5 L 150.5 120 L 150.5 119 Z " /><path fill="rgb(120,94,155)" stroke="rgb(120,94,155)" stroke-width="1" opacity="1" d="M 244.5 119 L 247 119.5 L 244.5 120 L 244.5 119 Z " /><path fill="rgb(120,94,155)" stroke="rgb(120,94,155)" stroke-width="1" opacity="1" d="M 170.5 120 L 175 120.5 L 170.5 121 L 170.5 120 Z " /><path fill="rgb(120,94,155)" stroke="rgb(120,94,155)" stroke-width="1" opacity="1" d="M 228.5 120 L 234 120.5 L 228.5 121 L 228.5 120 Z " /><path fill="rgb(120,94,155)" stroke="rgb(120,94,155)" stroke-width="1" opacity="1" d="M 167.5 121 L 166.5 123 L 167.5 121 Z " /><path fill="rgb(120,94,155)" stroke="rgb(120,94,155)" stroke-width="1" opacity="1" d="M 182.5 121 L 184.5 124 L 182.5 121 Z " /><path fill="rgb(120,94,155)" stroke="rgb(120,94,155)" stroke-width="1" opacity="1" d="M 193.5 122 L 192.5 124 L 193.5 122 Z " /><path fill="rgb(120,94,155)" stroke="rgb(120,94,155)" stroke-width="1" opacity="1" d="M 280.5 123 L 280 124.5 L 279.5 126 L 279 124.5 L 280.5 123 Z " /><path fill="rgb(120,94,155)" stroke="rgb(120,94,155)" stroke-width="1" opacity="1" d="M 244.5 124 L 245 127.5 L 244 127.5 L 244.5 124 Z " /><path fill="rgb(120,94,155)" stroke="rgb(120,94,155)" stroke-width="1" opacity="1" d="M 291.5 124 L 292 126.5 L 291 126.5 L 291.5 124 Z " /><path fill="rgb(120,94,155)" stroke="rgb(120,94,155)" stroke-width="1" opacity="1" d="M 211.5 125 L 212 128.5 L 211 128.5 L 211.5 125 Z " /><path fill="rgb(120,94,155)" stroke="rgb(120,94,155)" stroke-width="1" opacity="1" d="M 265.5 125 L 266 127.5 L 265 127.5 L 265.5 125 Z " /><path fill="rgb(120,94,155)" stroke="rgb(120,94,155)" stroke-width="1" opacity="1" d="M 300.5 125 L 301 127.5 L 300 127.5 L 300.5 125 Z " /><path fill="rgb(120,94,155)" stroke="rgb(120,94,155)" stroke-width="1" opacity="1" d="M 110.5 126 L 111 128.5 L 110 128.5 L 110.5 126 Z " /><path fill="rgb(120,94,155)" stroke="rgb(120,94,155)" stroke-width="1" opacity="1" d="M 137.5 126 L 138 128.5 L 137 128.5 L 137.5 126 Z " /><path fill="rgb(120,94,155)" stroke="rgb(120,94,155)" stroke-width="1" opacity="1" d="M 191.5 126 L 192 144.5 L 191 144.5 L 191.5 126 Z " /><path fill="rgb(120,94,155)" stroke="rgb(120,94,155)" stroke-width="1" opacity="1" d="M 199.5 126 Q 204 125 205 127.5 L 204.5 134 L 204 127 L 199.5 127 L 199.5 126 Z " /><path fill="rgb(120,94,155)" stroke="rgb(120,94,155)" stroke-width="1" opacity="1" d="M 218.5 127 L 219 136.5 L 218 136.5 L 218.5 127 Z " /><path fill="rgb(120,94,155)" stroke="rgb(120,94,155)" stroke-width="1" opacity="1" d="M 258.5 129 L 259 132.5 L 258 132.5 L 258.5 129 Z " /><path fill="rgb(120,94,155)" stroke="rgb(120,94,155)" stroke-width="1" opacity="1" d="M 285.5 129 L 289 129.5 L 285.5 130 L 285.5 129 Z " /><path fill="rgb(120,94,155)" stroke="rgb(120,94,155)" stroke-width="1" opacity="1" d="M 117.5 131 L 118 133.5 L 117 133.5 L 117.5 131 Z " /><path fill="rgb(120,94,155)" stroke="rgb(120,94,155)" stroke-width="1" opacity="1" d="M 150.5 131 L 151 133.5 L 150 133.5 L 150.5 131 Z " /><path fill="rgb(120,94,155)" stroke="rgb(120,94,155)" stroke-width="1" opacity="1" d="M 144.5 132 L 145 134.5 L 144 134.5 L 144.5 132 Z " /><path fill="rgb(120,94,155)" stroke="rgb(120,94,155)" stroke-width="1" opacity="1" d="M 164.5 135 L 165 140.5 L 164 140.5 L 164.5 135 Z " /><path fill="rgb(120,94,155)" stroke="rgb(120,94,155)" stroke-width="1" opacity="1" d="M 265.5 135 L 264.5 137 L 265.5 135 Z " /><path fill="rgb(120,94,155)" stroke="rgb(120,94,155)" stroke-width="1" opacity="1" d="M 273.5 136 L 274.5 138 L 273.5 136 Z " /><path fill="rgb(120,94,155)" stroke="rgb(120,94,155)" stroke-width="1" opacity="1" d="M 157.5 138 L 158 141.5 L 157 141.5 L 157.5 138 Z " /><path fill="rgb(120,94,155)" stroke="rgb(120,94,155)" stroke-width="1" opacity="1" d="M 236.5 138 L 237 140.5 L 236 140.5 L 236.5 138 Z " /><path fill="rgb(120,94,155)" stroke="rgb(120,94,155)" stroke-width="1" opacity="1" d="M 136.5 139 L 137 141.5 L 136 141.5 L 136.5 139 Z " /><path fill="rgb(120,94,155)" stroke="rgb(120,94,155)" stroke-width="1" opacity="1" d="M 176.5 139 L 184.5 139 L 186 140.5 L 185.5 146 L 185 140 L 176.5 140 L 176.5 139 Z " /><path fill="rgb(120,94,155)" stroke="rgb(120,94,155)" stroke-width="1" opacity="1" d="M 203.5 139 L 211.5 139 L 213 140.5 L 212.5 148 L 212 140 L 203.5 140 L 203.5 139 Z " /><path fill="rgb(120,94,155)" stroke="rgb(120,94,155)" stroke-width="1" opacity="1" d="M 129.5 140 L 130 142.5 L 129 142.5 L 129.5 140 Z " /><path fill="rgb(120,94,155)" stroke="rgb(120,94,155)" stroke-width="1" opacity="1" d="M 116.5 141 L 117 143.5 L 116 143.5 L 116.5 141 Z " /><path fill="rgb(120,94,155)" stroke="rgb(120,94,155)" stroke-width="1" opacity="1" d="M 175.5 141 L 176 144 L 178 144.5 L 176.5 145 Q 174 144 175.5 141 Z " /><path fill="rgb(120,94,155)" stroke="rgb(120,94,155)" stroke-width="1" opacity="1" d="M 245.5 141 L 246 145.5 L 245 145.5 L 245.5 141 Z " /><path fill="rgb(120,94,155)" stroke="rgb(120,94,155)" stroke-width="1" opacity="1" d="M 257.5 141 L 258.5 143 L 257.5 141 Z " /><path fill="rgb(120,94,155)" stroke="rgb(120,94,155)" stroke-width="1" opacity="1" d="M 104.5 142 L 105.5 144 L 104.5 142 Z " /><path fill="rgb(120,94,155)" stroke="rgb(120,94,155)" stroke-width="1" opacity="1" d="M 203.5 144 L 206 145.5 L 205.5 153 L 205 145 L 203.5 144 Z " /><path fill="rgb(120,94,155)" stroke="rgb(120,94,155)" stroke-width="1" opacity="1" d="M 143.5 146 L 144 148.5 L 143 148.5 L 143.5 146 Z " /><path fill="rgb(120,94,155)" stroke="rgb(120,94,155)" stroke-width="1" opacity="1" d="M 149.5 146 L 150 149.5 L 149 149.5 L 149.5 146 Z " /><path fill="rgb(120,94,155)" stroke="rgb(120,94,155)" stroke-width="1" opacity="1" d="M 171.5 146 L 172 152.5 L 171 152.5 L 171.5 146 Z " /><path fill="rgb(120,94,155)" stroke="rgb(120,94,155)" stroke-width="1" opacity="1" d="M 277.5 146 L 281 146.5 L 277.5 147 L 277.5 146 Z " /><path fill="rgb(120,94,155)" stroke="rgb(120,94,155)" stroke-width="1" opacity="1" d="M 226.5 147 L 227 152.5 L 226 152.5 L 226.5 147 Z " /><path fill="rgb(120,94,155)" stroke="rgb(120,94,155)" stroke-width="1" opacity="1" d="M 267.5 150 L 268 152.5 L 267 152.5 L 267.5 150 Z " /><path fill="rgb(120,94,155)" stroke="rgb(120,94,155)" stroke-width="1" opacity="1" d="M 115.5 151 L 116 153.5 L 115 153.5 L 115.5 151 Z " /><path fill="rgb(120,94,155)" stroke="rgb(120,94,155)" stroke-width="1" opacity="1" d="M 128.5 151 L 129 153.5 L 128 153.5 L 128.5 151 Z " /><path fill="rgb(120,94,155)" stroke="rgb(120,94,155)" stroke-width="1" opacity="1" d="M 135.5 151 L 136 153.5 L 135 153.5 L 135.5 151 Z " /><path fill="rgb(120,94,155)" stroke="rgb(120,94,155)" stroke-width="1" opacity="1" d="M 253.5 151 L 254 154.5 L 253 154.5 L 253.5 151 Z " /><path fill="rgb(120,94,155)" stroke="rgb(120,94,155)" stroke-width="1" opacity="1" d="M 281.5 153 L 282 155.5 L 281 155.5 L 281.5 153 Z " /><path fill="rgb(120,94,155)" stroke="rgb(120,94,155)" stroke-width="1" opacity="1" d="M 287.5 154 L 288 157 L 286 156.5 L 287.5 154 Z " /><path fill="rgb(120,94,155)" stroke="rgb(120,94,155)" stroke-width="1" opacity="1" d="M 156.5 155 L 157 158.5 L 156 158.5 L 156.5 155 Z " /><path fill="rgb(120,94,155)" stroke="rgb(120,94,155)" stroke-width="1" opacity="1" d="M 192.5 156 L 193.5 158 L 192.5 156 Z " /><path fill="rgb(120,94,155)" stroke="rgb(120,94,155)" stroke-width="1" opacity="1" d="M 211.5 156 L 210.5 158 L 211.5 156 Z " /><path fill="rgb(120,94,155)" stroke="rgb(120,94,155)" stroke-width="1" opacity="1" d="M 260.5 156 L 261 160 L 265 160.5 L 261.5 161 Q 258.8 159.8 260.5 156 Z " /><path fill="rgb(120,94,155)" stroke="rgb(120,94,155)" stroke-width="1" opacity="1" d="M 126.5 158 L 124.5 161 L 126.5 158 Z " /><path fill="rgb(120,94,155)" stroke="rgb(120,94,155)" stroke-width="1" opacity="1" d="M 196.5 158 L 208 158.5 L 196.5 159 L 196.5 158 Z " /><path fill="rgb(120,94,155)" stroke="rgb(120,94,155)" stroke-width="1" opacity="1" d="M 247.5 159 L 250 159.5 L 247.5 160 L 247.5 159 Z " /><path fill="rgb(120,94,155)" stroke="rgb(120,94,155)" stroke-width="1" opacity="1" d="M 294.5 161 L 293.5 163 L 294.5 161 Z " /><path fill="rgb(120,94,155)" stroke="rgb(120,94,155)" stroke-width="1" opacity="1" d="M 288.5 163 L 292 163.5 L 288.5 164 L 288.5 163 Z " /><path fill="rgb(120,94,155)" stroke="rgb(120,94,155)" stroke-width="1" opacity="1" d="M 186.5 167 L 189 167.5 L 186.5 168 L 186.5 167 Z " /><path fill="rgb(120,94,155)" stroke="rgb(120,94,155)" stroke-width="1" opacity="1" d="M 214.5 167 L 217 167.5 L 214.5 168 L 214.5 167 Z " /><path fill="rgb(120,94,155)" stroke="rgb(120,94,155)" stroke-width="1" opacity="1" d="M 140.5 169 L 145 169.5 L 140.5 170 L 140.5 169 Z " /><path fill="rgb(120,94,155)" stroke="rgb(120,94,155)" stroke-width="1" opacity="1" d="M 258.5 169 L 263 169.5 L 258.5 170 L 258.5 169 Z " /><path fill="rgb(120,94,155)" stroke="rgb(120,94,155)" stroke-width="1" opacity="1" d="M 130.5 170 L 134 170.5 L 130.5 171 L 130.5 170 Z " /><path fill="rgb(120,94,155)" stroke="rgb(120,94,155)" stroke-width="1" opacity="1" d="M 269.5 170 L 273 170.5 L 269.5 171 L 269.5 170 Z " /><path fill="rgb(120,94,155)" stroke="rgb(120,94,155)" stroke-width="1" opacity="1" d="M 122.5 171 L 125 171.5 L 122.5 172 L 122.5 171 Z " /><path fill="rgb(120,94,155)" stroke="rgb(120,94,155)" stroke-width="1" opacity="1" d="M 278.5 171 L 281 171.5 L 278.5 172 L 278.5 171 Z " /><path fill="rgb(120,94,155)" stroke="rgb(120,94,155)" stroke-width="1" opacity="1" d="M 144.5 173 L 147 173.5 L 144.5 174 L 144.5 173 Z " /><path fill="rgb(120,94,155)" stroke="rgb(120,94,155)" stroke-width="1" opacity="1" d="M 256.5 173 L 259 173.5 L 256.5 174 L 256.5 173 Z " /><path fill="rgb(120,94,155)" stroke="rgb(120,94,155)" stroke-width="1" opacity="1" d="M 293.5 173 L 292.5 175 L 293.5 173 Z " /><path fill="rgb(120,94,155)" stroke="rgb(120,94,155)" stroke-width="1" opacity="1" d="M 96.5 175 L 99 175.5 L 96.5 176 L 96.5 175 Z " /><path fill="rgb(120,94,155)" stroke="rgb(120,94,155)" stroke-width="1" opacity="1" d="M 187 175 L 192 175.5 L 187.5 177 L 187 175 Z " /><path fill="rgb(120,94,155)" stroke="rgb(120,94,155)" stroke-width="1" opacity="1" d="M 85.5 176 L 86.5 178 Q 83.7 178.7 85.5 176 Z " /><path fill="rgb(120,94,155)" stroke="rgb(120,94,155)" stroke-width="1" opacity="1" d="M 317.5 176 L 318 178 L 316 177.5 L 317.5 176 Z " /><path fill="rgb(120,94,155)" stroke="rgb(120,94,155)" stroke-width="1" opacity="1" d="M 117.5 177 L 118.5 179 Q 115.7 179.7 117.5 177 Z " /><path fill="rgb(120,94,155)" stroke="rgb(120,94,155)" stroke-width="1" opacity="1" d="M 285.5 177 L 286 179 L 284 178.5 L 285.5 177 Z " /><path fill="rgb(120,94,155)" stroke="rgb(120,94,155)" stroke-width="1" opacity="1" d="M 147.5 181 Q 152.8 179.3 151 184.5 L 150 184.5 Q 151.3 180.8 147.5 182 L 147.5 181 Z " /><path fill="rgb(120,94,155)" stroke="rgb(120,94,155)" stroke-width="1" opacity="1" d="M 252 181 L 256 181.5 L 253 182 L 252.5 184 L 252 181 Z " /><path fill="rgb(120,94,155)" stroke="rgb(120,94,155)" stroke-width="1" opacity="1" d="M 139.5 182 L 142 182.5 L 139.5 183 L 139.5 182 Z " /><path fill="rgb(120,94,155)" stroke="rgb(120,94,155)" stroke-width="1" opacity="1" d="M 200.5 182 L 201 204.5 L 200 204.5 L 200.5 182 Z " /><path fill="rgb(120,94,155)" stroke="rgb(120,94,155)" stroke-width="1" opacity="1" d="M 202.5 182 L 203 206.5 L 202 206.5 L 202.5 182 Z " /><path fill="rgb(120,94,155)" stroke="rgb(120,94,155)" stroke-width="1" opacity="1" d="M 215.5 182 L 216.5 184 L 215.5 182 Z " /><path fill="rgb(120,94,155)" stroke="rgb(120,94,155)" stroke-width="1" opacity="1" d="M 261.5 182 L 264 182.5 L 261.5 183 L 261.5 182 Z " /><path fill="rgb(120,94,155)" stroke="rgb(120,94,155)" stroke-width="1" opacity="1" d="M 161.5 188 L 162 192.5 L 161 192.5 L 161.5 188 Z " /><path fill="rgb(120,94,155)" stroke="rgb(120,94,155)" stroke-width="1" opacity="1" d="M 196.5 188 L 197 192.5 L 196 192.5 L 196.5 188 Z " /><path fill="rgb(120,94,155)" stroke="rgb(120,94,155)" stroke-width="1" opacity="1" d="M 241.5 188 L 242 191.5 L 241 191.5 L 241.5 188 Z " /><path fill="rgb(120,94,155)" stroke="rgb(120,94,155)" stroke-width="1" opacity="1" d="M 137.5 189 L 140 189.5 L 137.5 190 L 137.5 189 Z " /><path fill="rgb(120,94,155)" stroke="rgb(120,94,155)" stroke-width="1" opacity="1" d="M 191.5 189 L 192 194.5 L 191 194.5 L 191.5 189 Z " /><path fill="rgb(120,94,155)" stroke="rgb(120,94,155)" stroke-width="1" opacity="1" d="M 263.5 189 L 266 189.5 L 263.5 190 L 263.5 189 Z " /><path fill="rgb(120,94,155)" stroke="rgb(120,94,155)" stroke-width="1" opacity="1" d="M 168.5 190 L 169.5 192 L 168.5 190 Z " /><path fill="rgb(120,94,155)" stroke="rgb(120,94,155)" stroke-width="1" opacity="1" d="M 206.5 190 L 207 199.5 L 206 199.5 L 206.5 190 Z " /><path fill="rgb(120,94,155)" stroke="rgb(120,94,155)" stroke-width="1" opacity="1" d="M 211.5 191 L 212 195.5 L 211 195.5 L 211.5 191 Z " /><path fill="rgb(120,94,155)" stroke="rgb(120,94,155)" stroke-width="1" opacity="1" d="M 165.5 193 L 166.5 195 L 165.5 193 Z " /><path fill="rgb(120,94,155)" stroke="rgb(120,94,155)" stroke-width="1" opacity="1" d="M 236.5 194 L 235.5 196 L 236.5 194 Z " /><path fill="rgb(120,94,155)" stroke="rgb(120,94,155)" stroke-width="1" opacity="1" d="M 186.5 195 L 187 202.5 L 186 202.5 L 186.5 195 Z " /><path fill="rgb(120,94,155)" stroke="rgb(120,94,155)" stroke-width="1" opacity="1" d="M 174.5 196 L 175.5 198 L 174.5 196 Z " /><path fill="rgb(120,94,155)" stroke="rgb(120,94,155)" stroke-width="1" opacity="1" d="M 232.5 198 L 231.5 200 L 232.5 198 Z " /><path fill="rgb(120,94,155)" stroke="rgb(120,94,155)" stroke-width="1" opacity="1" d="M 171.5 199 L 172.5 201 L 171.5 199 Z " /><path fill="rgb(120,94,155)" stroke="rgb(120,94,155)" stroke-width="1" opacity="1" d="M 216.5 201 L 217 203.5 L 216 203.5 L 216.5 201 Z " /><path fill="rgb(120,94,155)" stroke="rgb(120,94,155)" stroke-width="1" opacity="1" d="M 190.5 202 L 191 207.5 L 190 207.5 L 190.5 202 Z " /><path fill="rgb(120,94,155)" stroke="rgb(120,94,155)" stroke-width="1" opacity="1" d="M 212.5 203 L 213 208.5 L 212 208.5 L 212.5 203 Z " /><path fill="rgb(120,94,155)" stroke="rgb(120,94,155)" stroke-width="1" opacity="1" d="M 179.5 207 L 178.5 209 L 179.5 207 Z " /><path fill="rgb(120,94,155)" stroke="rgb(120,94,155)" stroke-width="1" opacity="1" d="M 195.5 209 L 196 214.5 L 195 214.5 L 195.5 209 Z " /><path fill="rgb(120,94,155)" stroke="rgb(120,94,155)" stroke-width="1" opacity="1" d="M 182.5 211 L 180.5 214 L 182.5 211 Z " /><path fill="rgb(120,94,155)" stroke="rgb(120,94,155)" stroke-width="1" opacity="1" d="M 220.5 211 L 223.5 215 L 220.5 211 Z " /><path fill="rgb(120,94,155)" stroke="rgb(120,94,155)" stroke-width="1" opacity="1" d="M 153.5 212 L 154.5 214 L 153.5 212 Z " /><path fill="rgb(120,94,155)" stroke="rgb(120,94,155)" stroke-width="1" opacity="1" d="M 207.5 212 L 208 221.5 L 207 221.5 L 207.5 212 Z " /><path fill="rgb(120,94,155)" stroke="rgb(120,94,155)" stroke-width="1" opacity="1" d="M 249.5 212 L 248.5 214 L 249.5 212 Z " /><path fill="rgb(120,94,155)" stroke="rgb(120,94,155)" stroke-width="1" opacity="1" d="M 162.5 213 L 163.5 215 L 162.5 213 Z " /><path fill="rgb(120,94,155)" stroke="rgb(120,94,155)" stroke-width="1" opacity="1" d="M 239.5 214 L 235.5 219 L 239.5 214 Z " /><path fill="rgb(120,94,155)" stroke="rgb(120,94,155)" stroke-width="1" opacity="1" d="M 189.5 215 L 190 220.5 L 188 221.5 L 189.5 215 Z " /><path fill="rgb(120,94,155)" stroke="rgb(120,94,155)" stroke-width="1" opacity="1" d="M 156.5 216 L 157.5 218 L 156.5 216 Z " /><path fill="rgb(120,94,155)" stroke="rgb(120,94,155)" stroke-width="1" opacity="1" d="M 213.5 216 L 215 221.5 L 213 220.5 L 213.5 216 Z " /><path fill="rgb(120,94,155)" stroke="rgb(120,94,155)" stroke-width="1" opacity="1" d="M 246.5 216 L 245.5 218 L 246.5 216 Z " /><path fill="rgb(120,94,155)" stroke="rgb(120,94,155)" stroke-width="1" opacity="1" d="M 167.5 218 L 168.5 220 L 167.5 218 Z " /><path fill="rgb(120,94,155)" stroke="rgb(120,94,155)" stroke-width="1" opacity="1" d="M 164.5 224 L 165.5 226 L 164.5 224 Z " /><path fill="rgb(120,94,155)" stroke="rgb(120,94,155)" stroke-width="1" opacity="1" d="M 238.5 224 L 237.5 226 L 238.5 224 Z " /><path fill="rgb(120,94,155)" stroke="rgb(120,94,155)" stroke-width="1" opacity="1" d="M 168.5 227 L 169.5 229 L 168.5 227 Z " /><path fill="rgb(120,94,155)" stroke="rgb(120,94,155)" stroke-width="1" opacity="1" d="M 234.5 227 L 233.5 229 L 234.5 227 Z " /><path fill="rgb(120,94,155)" stroke="rgb(120,94,155)" stroke-width="1" opacity="1" d="M 197.5 263 L 198.5 265 L 197.5 263 Z " /><path fill="rgb(120,94,155)" stroke="rgb(120,94,155)" stroke-width="1" opacity="1" d="M 204.5 264 L 202.5 267 L 204.5 264 Z " /><path fill="rgb(161,146,182)" stroke="rgb(161,146,182)" stroke-width="1" opacity="1" d="M 192.5 38 L 191.5 40 L 192.5 38 Z " /><path fill="rgb(161,146,182)" stroke="rgb(161,146,182)" stroke-width="1" opacity="1" d="M 211.5 39 L 213.5 42 L 211.5 39 Z " /><path fill="rgb(161,146,182)" stroke="rgb(161,146,182)" stroke-width="1" opacity="1" d="M 189.5 41 L 188.5 43 L 189.5 41 Z " /><path fill="rgb(161,146,182)" stroke="rgb(161,146,182)" stroke-width="1" opacity="1" d="M 200.5 45 L 203 45.5 L 200.5 46 L 200.5 45 Z " /><path fill="rgb(161,146,182)" stroke="rgb(161,146,182)" stroke-width="1" opacity="1" d="M 171.5 59 L 174 59.5 L 171.5 60 L 171.5 59 Z " /><path fill="rgb(161,146,182)" stroke="rgb(161,146,182)" stroke-width="1" opacity="1" d="M 229.5 59 L 232 59.5 L 229.5 60 L 229.5 59 Z " /><path fill="rgb(161,146,182)" stroke="rgb(161,146,182)" stroke-width="1" opacity="1" d="M 161.5 60 L 164 60.5 L 161.5 61 L 161.5 60 Z " /><path fill="rgb(161,146,182)" stroke="rgb(161,146,182)" stroke-width="1" opacity="1" d="M 239.5 60 L 242 60.5 L 239.5 61 L 239.5 60 Z " /><path fill="rgb(161,146,182)" stroke="rgb(161,146,182)" stroke-width="1" opacity="1" d="M 184.5 64 L 190 64.5 L 184.5 65 L 184.5 64 Z " /><path fill="rgb(161,146,182)" stroke="rgb(161,146,182)" stroke-width="1" opacity="1" d="M 213.5 64 L 219 64.5 L 213.5 65 L 213.5 64 Z " /><path fill="rgb(161,146,182)" stroke="rgb(161,146,182)" stroke-width="1" opacity="1" d="M 170.5 65 L 173 65.5 L 170.5 66 L 170.5 65 Z " /><path fill="rgb(161,146,182)" stroke="rgb(161,146,182)" stroke-width="1" opacity="1" d="M 230.5 65 L 233 65.5 L 230.5 66 L 230.5 65 Z " /><path fill="rgb(161,146,182)" stroke="rgb(161,146,182)" stroke-width="1" opacity="1" d="M 175.5 70 L 178 70.5 L 175.5 71 L 175.5 70 Z " /><path fill="rgb(161,146,182)" stroke="rgb(161,146,182)" stroke-width="1" opacity="1" d="M 187.5 70 L 188 79 L 190 79.5 L 188.5 80 L 187 78.5 L 187.5 70 Z " /><path fill="rgb(161,146,182)" stroke="rgb(161,146,182)" stroke-width="1" opacity="1" d="M 167.5 71 L 168 81.5 L 167 81.5 L 167.5 71 Z " /><path fill="rgb(161,146,182)" stroke="rgb(161,146,182)" stroke-width="1" opacity="1" d="M 161.5 72 L 162 82.5 L 161 82.5 L 161.5 72 Z " /><path fill="rgb(161,146,182)" stroke="rgb(161,146,182)" stroke-width="1" opacity="1" d="M 198.5 72 L 199 74.5 L 198 74.5 L 198.5 72 Z " /><path fill="rgb(161,146,182)" stroke="rgb(161,146,182)" stroke-width="1" opacity="1" d="M 242.5 72 L 243 80.5 L 242 80.5 L 242.5 72 Z " /><path fill="rgb(161,146,182)" stroke="rgb(161,146,182)" stroke-width="1" opacity="1" d="M 150.5 73 L 150 74.5 L 149.5 84 L 149 74.5 L 150.5 73 Z " /><path fill="rgb(161,146,182)" stroke="rgb(161,146,182)" stroke-width="1" opacity="1" d="M 233.5 74 L 234 79.5 L 233 79.5 L 233.5 74 Z " /><path fill="rgb(161,146,182)" stroke="rgb(161,146,182)" stroke-width="1" opacity="1" d="M 260.5 74 L 262 74.5 L 260 75 L 259.5 86 L 259 75.5 L 260.5 74 Z " /><path fill="rgb(161,146,182)" stroke="rgb(161,146,182)" stroke-width="1" opacity="1" d="M 179.5 76 L 180 80.5 L 179 80.5 L 179.5 76 Z " /><path fill="rgb(161,146,182)" stroke="rgb(161,146,182)" stroke-width="1" opacity="1" d="M 209.5 76 L 208.5 78 L 207 77.5 L 209.5 76 Z " /><path fill="rgb(161,146,182)" stroke="rgb(161,146,182)" stroke-width="1" opacity="1" d="M 140 77 L 142 77.5 L 142 84 L 140 83.5 L 140 77 Z " /><path fill="rgb(161,146,182)" stroke="rgb(161,146,182)" stroke-width="1" opacity="1" d="M 198.5 77 L 199 81 L 201 81.5 L 199.5 82 Q 196.8 80.8 198.5 77 Z " /><path fill="rgb(161,146,182)" stroke="rgb(161,146,182)" stroke-width="1" opacity="1" d="M 230.5 80 L 230.5 83 Q 227.5 81.5 230.5 80 Z " /><path fill="rgb(161,146,182)" stroke="rgb(161,146,182)" stroke-width="1" opacity="1" d="M 208.5 81 L 212 81.5 L 208.5 82 L 208.5 81 Z " /><path fill="rgb(161,146,182)" stroke="rgb(161,146,182)" stroke-width="1" opacity="1" d="M 155.5 83 L 154.5 85 L 153 84.5 L 155.5 83 Z " /><path fill="rgb(161,146,182)" stroke="rgb(161,146,182)" stroke-width="1" opacity="1" d="M 181.5 87 L 185 87.5 L 181.5 88 L 181.5 87 Z " /><path fill="rgb(161,146,182)" stroke="rgb(161,146,182)" stroke-width="1" opacity="1" d="M 202.5 87 L 203.5 89 L 202.5 87 Z " /><path fill="rgb(161,146,182)" stroke="rgb(161,146,182)" stroke-width="1" opacity="1" d="M 218.5 87 L 222 87.5 L 218.5 88 L 218.5 87 Z " /><path fill="rgb(161,146,182)" stroke="rgb(161,146,182)" stroke-width="1" opacity="1" d="M 281.5 88 L 282 93.5 L 280 94.5 L 281.5 88 Z " /><path fill="rgb(161,146,182)" stroke="rgb(161,146,182)" stroke-width="1" opacity="1" d="M 121.5 90 L 123 94.5 L 121 93.5 L 121.5 90 Z " /><path fill="rgb(161,146,182)" stroke="rgb(161,146,182)" stroke-width="1" opacity="1" d="M 187.5 92 L 190 92.5 L 187.5 93 L 187.5 92 Z " /><path fill="rgb(161,146,182)" stroke="rgb(161,146,182)" stroke-width="1" opacity="1" d="M 203.5 92 Q 206.5 92.5 206 96.5 L 205 96.5 L 203.5 92 Z " /><path fill="rgb(161,146,182)" stroke="rgb(161,146,182)" stroke-width="1" opacity="1" d="M 213.5 92 L 216 92.5 L 213.5 93 L 213.5 92 Z " /><path fill="rgb(161,146,182)" stroke="rgb(161,146,182)" stroke-width="1" opacity="1" d="M 98.5 95 L 99 98.5 L 98 98.5 L 98.5 95 Z " /><path fill="rgb(161,146,182)" stroke="rgb(161,146,182)" stroke-width="1" opacity="1" d="M 143.5 95 L 144.5 97 L 143.5 95 Z " /><path fill="rgb(161,146,182)" stroke="rgb(161,146,182)" stroke-width="1" opacity="1" d="M 259.5 95 L 258.5 97 L 259.5 95 Z " /><path fill="rgb(161,146,182)" stroke="rgb(161,146,182)" stroke-width="1" opacity="1" d="M 304.5 95 L 305 101.5 L 304 101.5 L 304.5 95 Z " /><path fill="rgb(161,146,182)" stroke="rgb(161,146,182)" stroke-width="1" opacity="1" d="M 230.5 100 L 233 101.5 L 231.5 101 L 230.5 100 Z " /><path fill="rgb(161,146,182)" stroke="rgb(161,146,182)" stroke-width="1" opacity="1" d="M 173.5 102 L 191 102.5 L 173.5 103 L 173.5 102 Z " /><path fill="rgb(161,146,182)" stroke="rgb(161,146,182)" stroke-width="1" opacity="1" d="M 208.5 102 L 212 102.5 L 208.5 103 L 208.5 102 Z " /><path fill="rgb(161,146,182)" stroke="rgb(161,146,182)" stroke-width="1" opacity="1" d="M 296.5 104 L 299 104.5 L 296.5 105 L 296.5 104 Z " /><path fill="rgb(161,146,182)" stroke="rgb(161,146,182)" stroke-width="1" opacity="1" d="M 152.5 106 L 155 106.5 L 152.5 107 L 152.5 106 Z " /><path fill="rgb(161,146,182)" stroke="rgb(161,146,182)" stroke-width="1" opacity="1" d="M 248.5 106 L 251 106.5 L 248.5 107 L 248.5 106 Z " /><path fill="rgb(161,146,182)" stroke="rgb(161,146,182)" stroke-width="1" opacity="1" d="M 164.5 107 L 167 107.5 L 164.5 108 L 164.5 107 Z " /><path fill="rgb(161,146,182)" stroke="rgb(161,146,182)" stroke-width="1" opacity="1" d="M 236.5 107 L 239 107.5 L 236.5 108 L 236.5 107 Z " /><path fill="rgb(161,146,182)" stroke="rgb(161,146,182)" stroke-width="1" opacity="1" d="M 176.5 108 L 180 108.5 L 176.5 109 L 176.5 108 Z " /><path fill="rgb(161,146,182)" stroke="rgb(161,146,182)" stroke-width="1" opacity="1" d="M 223.5 108 L 227 108.5 L 223.5 109 L 223.5 108 Z " /><path fill="rgb(161,146,182)" stroke="rgb(161,146,182)" stroke-width="1" opacity="1" d="M 188.5 109 L 189 111.5 L 188 111.5 L 188.5 109 Z " /><path fill="rgb(161,146,182)" stroke="rgb(161,146,182)" stroke-width="1" opacity="1" d="M 214.5 109 L 215 112.5 L 214 112.5 L 214.5 109 Z " /><path fill="rgb(161,146,182)" stroke="rgb(161,146,182)" stroke-width="1" opacity="1" d="M 146.5 111 L 149 111.5 L 146.5 112 L 146.5 111 Z " /><path fill="rgb(161,146,182)" stroke="rgb(161,146,182)" stroke-width="1" opacity="1" d="M 254.5 111 L 257 111.5 L 254.5 112 L 254.5 111 Z " /><path fill="rgb(161,146,182)" stroke="rgb(161,146,182)" stroke-width="1" opacity="1" d="M 157.5 112 L 161 112.5 L 157.5 113 L 157.5 112 Z " /><path fill="rgb(161,146,182)" stroke="rgb(161,146,182)" stroke-width="1" opacity="1" d="M 242.5 112 L 245 112.5 L 242.5 113 L 242.5 112 Z " /><path fill="rgb(161,146,182)" stroke="rgb(161,146,182)" stroke-width="1" opacity="1" d="M 173.5 113 L 179 113.5 L 173.5 114 L 173.5 113 Z " /><path fill="rgb(161,146,182)" stroke="rgb(161,146,182)" stroke-width="1" opacity="1" d="M 223.5 113 L 230 113.5 L 223.5 114 L 223.5 113 Z " /><path fill="rgb(161,146,182)" stroke="rgb(161,146,182)" stroke-width="1" opacity="1" d="M 103.5 114 L 104 116.5 L 103 116.5 L 103.5 114 Z " /><path fill="rgb(161,146,182)" stroke="rgb(161,146,182)" stroke-width="1" opacity="1" d="M 97.5 115 L 98 117.5 L 97 117.5 L 97.5 115 Z " /><path fill="rgb(161,146,182)" stroke="rgb(161,146,182)" stroke-width="1" opacity="1" d="M 299.5 115 L 300 117.5 L 299 117.5 L 299.5 115 Z " /><path fill="rgb(161,146,182)" stroke="rgb(161,146,182)" stroke-width="1" opacity="1" d="M 274.5 118 L 273.5 120 L 274.5 118 Z " /><path fill="rgb(161,146,182)" stroke="rgb(161,146,182)" stroke-width="1" opacity="1" d="M 111.5 119 L 112 121.5 L 111 121.5 L 111.5 119 Z " /><path fill="rgb(161,146,182)" stroke="rgb(161,146,182)" stroke-width="1" opacity="1" d="M 147.5 119 L 150 119.5 L 147.5 120 L 147.5 119 Z " /><path fill="rgb(161,146,182)" stroke="rgb(161,146,182)" stroke-width="1" opacity="1" d="M 247.5 119 L 251 119.5 L 247.5 120 L 247.5 119 Z " /><path fill="rgb(161,146,182)" stroke="rgb(161,146,182)" stroke-width="1" opacity="1" d="M 234.5 120 L 238 120.5 L 234.5 121 L 234.5 120 Z " /><path fill="rgb(161,146,182)" stroke="rgb(161,146,182)" stroke-width="1" opacity="1" d="M 244.5 120 L 245 123.5 L 244 123.5 L 244.5 120 Z " /><path fill="rgb(161,146,182)" stroke="rgb(161,146,182)" stroke-width="1" opacity="1" d="M 218.5 121 L 219 126.5 L 218 126.5 L 218.5 121 Z " /><path fill="rgb(161,146,182)" stroke="rgb(161,146,182)" stroke-width="1" opacity="1" d="M 209.5 122 L 210.5 124 L 209.5 122 Z " /><path fill="rgb(161,146,182)" stroke="rgb(161,146,182)" stroke-width="1" opacity="1" d="M 130.5 124 L 131 128.5 L 130 128.5 L 130.5 124 Z " /><path fill="rgb(161,146,182)" stroke="rgb(161,146,182)" stroke-width="1" opacity="1" d="M 253.5 124 Q 258 123 259 125.5 L 258.5 129 L 258 125 L 253.5 125 L 253.5 124 Z " /><path fill="rgb(161,146,182)" stroke="rgb(161,146,182)" stroke-width="1" opacity="1" d="M 251.5 125 L 252 127.5 L 251 127.5 L 251.5 125 Z " /><path fill="rgb(161,146,182)" stroke="rgb(161,146,182)" stroke-width="1" opacity="1" d="M 272.5 125 L 273 127.5 L 272 127.5 L 272.5 125 Z " /><path fill="rgb(161,146,182)" stroke="rgb(161,146,182)" stroke-width="1" opacity="1" d="M 123.5 126 L 124 128.5 L 123 128.5 L 123.5 126 Z " /><path fill="rgb(161,146,182)" stroke="rgb(161,146,182)" stroke-width="1" opacity="1" d="M 225.5 126 L 226 131.5 L 225 131.5 L 225.5 126 Z " /><path fill="rgb(161,146,182)" stroke="rgb(161,146,182)" stroke-width="1" opacity="1" d="M 231.5 126 L 232 128.5 L 231 128.5 L 231.5 126 Z " /><path fill="rgb(161,146,182)" stroke="rgb(161,146,182)" stroke-width="1" opacity="1" d="M 144.5 128 L 145 131.5 L 144 131.5 L 144.5 128 Z " /><path fill="rgb(161,146,182)" stroke="rgb(161,146,182)" stroke-width="1" opacity="1" d="M 265.5 128 L 266 130.5 L 265 130.5 L 265.5 128 Z " /><path fill="rgb(161,146,182)" stroke="rgb(161,146,182)" stroke-width="1" opacity="1" d="M 137.5 129 L 138 132.5 L 137 132.5 L 137.5 129 Z " /><path fill="rgb(161,146,182)" stroke="rgb(161,146,182)" stroke-width="1" opacity="1" d="M 211.5 129 L 212 133.5 L 211 133.5 L 211.5 129 Z " /><path fill="rgb(161,146,182)" stroke="rgb(161,146,182)" stroke-width="1" opacity="1" d="M 157.5 133 L 158 137.5 L 157 137.5 L 157.5 133 Z " /><path fill="rgb(161,146,182)" stroke="rgb(161,146,182)" stroke-width="1" opacity="1" d="M 150.5 134 L 151 137.5 L 150 137.5 L 150.5 134 Z " /><path fill="rgb(161,146,182)" stroke="rgb(161,146,182)" stroke-width="1" opacity="1" d="M 226.5 135 L 231 135.5 L 226.5 136 L 226.5 135 Z " /><path fill="rgb(161,146,182)" stroke="rgb(161,146,182)" stroke-width="1" opacity="1" d="M 122.5 137 L 123 139.5 L 122 139.5 L 122.5 137 Z " /><path fill="rgb(161,146,182)" stroke="rgb(161,146,182)" stroke-width="1" opacity="1" d="M 129.5 137 L 130 139.5 L 129 139.5 L 129.5 137 Z " /><path fill="rgb(161,146,182)" stroke="rgb(161,146,182)" stroke-width="1" opacity="1" d="M 245.5 137 L 246 140.5 L 245 140.5 L 245.5 137 Z " /><path fill="rgb(161,146,182)" stroke="rgb(161,146,182)" stroke-width="1" opacity="1" d="M 171.5 140 L 172 145.5 L 171 145.5 L 171.5 140 Z " /><path fill="rgb(161,146,182)" stroke="rgb(161,146,182)" stroke-width="1" opacity="1" d="M 164.5 141 L 165 145.5 L 164 145.5 L 164.5 141 Z " /><path fill="rgb(161,146,182)" stroke="rgb(161,146,182)" stroke-width="1" opacity="1" d="M 266.5 141 L 267 143.5 L 266 143.5 L 266.5 141 Z " /><path fill="rgb(161,146,182)" stroke="rgb(161,146,182)" stroke-width="1" opacity="1" d="M 136.5 142 L 137 144.5 L 136 144.5 L 136.5 142 Z " /><path fill="rgb(161,146,182)" stroke="rgb(161,146,182)" stroke-width="1" opacity="1" d="M 198.5 142 L 199 152.5 L 198 152.5 L 198.5 142 Z " /><path fill="rgb(161,146,182)" stroke="rgb(161,146,182)" stroke-width="1" opacity="1" d="M 178.5 145 L 179 147.5 L 178 147.5 L 178.5 145 Z " /><path fill="rgb(161,146,182)" stroke="rgb(161,146,182)" stroke-width="1" opacity="1" d="M 191.5 145 L 192 154.5 L 191 154.5 L 191.5 145 Z " /><path fill="rgb(161,146,182)" stroke="rgb(161,146,182)" stroke-width="1" opacity="1" d="M 274.5 146 L 277 146.5 L 274.5 147 L 274.5 146 Z " /><path fill="rgb(161,146,182)" stroke="rgb(161,146,182)" stroke-width="1" opacity="1" d="M 121.5 147 L 122 149.5 L 121 149.5 L 121.5 147 Z " /><path fill="rgb(161,146,182)" stroke="rgb(161,146,182)" stroke-width="1" opacity="1" d="M 212.5 148 L 213 153.5 L 212 153.5 L 212.5 148 Z " /><path fill="rgb(161,146,182)" stroke="rgb(161,146,182)" stroke-width="1" opacity="1" d="M 149.5 150 L 150 153.5 L 149 153.5 L 149.5 150 Z " /><path fill="rgb(161,146,182)" stroke="rgb(161,146,182)" stroke-width="1" opacity="1" d="M 235.5 150 L 239 150.5 L 235.5 151 L 235.5 150 Z " /><path fill="rgb(161,146,182)" stroke="rgb(161,146,182)" stroke-width="1" opacity="1" d="M 294.5 150 L 295 152.5 L 294 152.5 L 294.5 150 Z " /><path fill="rgb(161,146,182)" stroke="rgb(161,146,182)" stroke-width="1" opacity="1" d="M 156.5 151 L 157 154.5 L 156 154.5 L 156.5 151 Z " /><path fill="rgb(161,146,182)" stroke="rgb(161,146,182)" stroke-width="1" opacity="1" d="M 287.5 151 L 288 153.5 L 287 153.5 L 287.5 151 Z " /><path fill="rgb(161,146,182)" stroke="rgb(161,146,182)" stroke-width="1" opacity="1" d="M 171.5 153 L 178 153.5 L 171.5 154 L 171.5 153 Z " /><path fill="rgb(161,146,182)" stroke="rgb(161,146,182)" stroke-width="1" opacity="1" d="M 227.5 153 L 232 153.5 L 227.5 154 L 227.5 153 Z " /><path fill="rgb(161,146,182)" stroke="rgb(161,146,182)" stroke-width="1" opacity="1" d="M 260.5 153 L 261 155.5 L 260 155.5 L 260.5 153 Z " /><path fill="rgb(161,146,182)" stroke="rgb(161,146,182)" stroke-width="1" opacity="1" d="M 267.5 153 L 268 155.5 L 267 155.5 L 267.5 153 Z " /><path fill="rgb(161,146,182)" stroke="rgb(161,146,182)" stroke-width="1" opacity="1" d="M 274.5 153 L 275 155.5 L 274 155.5 L 274.5 153 Z " /><path fill="rgb(161,146,182)" stroke="rgb(161,146,182)" stroke-width="1" opacity="1" d="M 135.5 154 L 136 157.5 L 135 157.5 L 135.5 154 Z " /><path fill="rgb(161,146,182)" stroke="rgb(161,146,182)" stroke-width="1" opacity="1" d="M 246.5 154 L 247 158.5 L 246 158.5 L 246.5 154 Z " /><path fill="rgb(161,146,182)" stroke="rgb(161,146,182)" stroke-width="1" opacity="1" d="M 253.5 155 L 254 160 L 250 159.5 L 253 159 L 253.5 155 Z " /><path fill="rgb(161,146,182)" stroke="rgb(161,146,182)" stroke-width="1" opacity="1" d="M 116.5 156 L 119 156.5 L 116.5 157 L 116.5 156 Z " /><path fill="rgb(161,146,182)" stroke="rgb(161,146,182)" stroke-width="1" opacity="1" d="M 142.5 156 L 143 158.5 L 142 158.5 L 142.5 156 Z " /><path fill="rgb(161,146,182)" stroke="rgb(161,146,182)" stroke-width="1" opacity="1" d="M 283.5 156 L 286 156.5 L 283.5 157 L 283.5 156 Z " /><path fill="rgb(161,146,182)" stroke="rgb(161,146,182)" stroke-width="1" opacity="1" d="M 107.5 157 L 108 159.5 L 107 159.5 L 107.5 157 Z " /><path fill="rgb(161,146,182)" stroke="rgb(161,146,182)" stroke-width="1" opacity="1" d="M 176.5 158 L 181 158.5 L 176.5 159 L 176.5 158 Z " /><path fill="rgb(161,146,182)" stroke="rgb(161,146,182)" stroke-width="1" opacity="1" d="M 220.5 158 L 227 158.5 L 220.5 159 L 220.5 158 Z " /><path fill="rgb(161,146,182)" stroke="rgb(161,146,182)" stroke-width="1" opacity="1" d="M 265.5 160 L 268 160.5 L 265.5 161 L 265.5 160 Z " /><path fill="rgb(161,146,182)" stroke="rgb(161,146,182)" stroke-width="1" opacity="1" d="M 189.5 167 L 192 167.5 L 189.5 168 L 189.5 167 Z " /><path fill="rgb(161,146,182)" stroke="rgb(161,146,182)" stroke-width="1" opacity="1" d="M 211.5 167 L 214 167.5 L 211.5 168 L 211.5 167 Z " /><path fill="rgb(161,146,182)" stroke="rgb(161,146,182)" stroke-width="1" opacity="1" d="M 145.5 169 L 149 169.5 L 145.5 170 L 145.5 169 Z " /><path fill="rgb(161,146,182)" stroke="rgb(161,146,182)" stroke-width="1" opacity="1" d="M 198.5 169 L 199 174.5 L 198 174.5 L 198.5 169 Z " /><path fill="rgb(161,146,182)" stroke="rgb(161,146,182)" stroke-width="1" opacity="1" d="M 254.5 169 L 258 169.5 L 254.5 170 L 254.5 169 Z " /><path fill="rgb(161,146,182)" stroke="rgb(161,146,182)" stroke-width="1" opacity="1" d="M 134.5 170 L 137 170.5 L 134.5 171 L 134.5 170 Z " /><path fill="rgb(161,146,182)" stroke="rgb(161,146,182)" stroke-width="1" opacity="1" d="M 204.5 170 L 205 175.5 L 204 175.5 L 204.5 170 Z " /><path fill="rgb(161,146,182)" stroke="rgb(161,146,182)" stroke-width="1" opacity="1" d="M 266.5 170 L 269 170.5 L 266.5 171 L 266.5 170 Z " /><path fill="rgb(161,146,182)" stroke="rgb(161,146,182)" stroke-width="1" opacity="1" d="M 125.5 171 L 128 171.5 L 125.5 172 L 125.5 171 Z " /><path fill="rgb(161,146,182)" stroke="rgb(161,146,182)" stroke-width="1" opacity="1" d="M 275.5 171 L 278 171.5 L 275.5 172 L 275.5 171 Z " /><path fill="rgb(161,146,182)" stroke="rgb(161,146,182)" stroke-width="1" opacity="1" d="M 211.5 173 L 214 173.5 L 211.5 174 L 211.5 173 Z " /><path fill="rgb(161,146,182)" stroke="rgb(161,146,182)" stroke-width="1" opacity="1" d="M 188.5 177 L 189.5 179 L 188.5 177 Z " /><path fill="rgb(161,146,182)" stroke="rgb(161,146,182)" stroke-width="1" opacity="1" d="M 99.5 181 Q 101.8 180.3 101 182.5 L 99.5 181 Z " /><path fill="rgb(161,146,182)" stroke="rgb(161,146,182)" stroke-width="1" opacity="1" d="M 191.5 181 L 189.5 184 L 191.5 181 Z " /><path fill="rgb(161,146,182)" stroke="rgb(161,146,182)" stroke-width="1" opacity="1" d="M 142.5 182 L 145 182.5 L 142.5 183 L 142.5 182 Z " /><path fill="rgb(161,146,182)" stroke="rgb(161,146,182)" stroke-width="1" opacity="1" d="M 204.5 182 L 205.5 184 L 204.5 182 Z " /><path fill="rgb(161,146,182)" stroke="rgb(161,146,182)" stroke-width="1" opacity="1" d="M 258.5 182 L 261 182.5 L 258.5 183 L 258.5 182 Z " /><path fill="rgb(161,146,182)" stroke="rgb(161,146,182)" stroke-width="1" opacity="1" d="M 252.5 184 L 253 186.5 L 252 186.5 L 252.5 184 Z " /><path fill="rgb(161,146,182)" stroke="rgb(161,146,182)" stroke-width="1" opacity="1" d="M 150.5 185 L 151 187.5 L 150 187.5 L 150.5 185 Z " /><path fill="rgb(161,146,182)" stroke="rgb(161,146,182)" stroke-width="1" opacity="1" d="M 211.5 187 L 212 190.5 L 211 190.5 L 211.5 187 Z " /><path fill="rgb(161,146,182)" stroke="rgb(161,146,182)" stroke-width="1" opacity="1" d="M 142.5 188 L 145 188.5 L 142.5 189 L 142.5 188 Z " /><path fill="rgb(161,146,182)" stroke="rgb(161,146,182)" stroke-width="1" opacity="1" d="M 258.5 188 L 261 188.5 L 258.5 189 L 258.5 188 Z " /><path fill="rgb(161,146,182)" stroke="rgb(161,146,182)" stroke-width="1" opacity="1" d="M 170.5 192 L 173.5 196 L 170.5 192 Z " /><path fill="rgb(161,146,182)" stroke="rgb(161,146,182)" stroke-width="1" opacity="1" d="M 232.5 192 L 229.5 196 L 232.5 192 Z " /><path fill="rgb(161,146,182)" stroke="rgb(161,146,182)" stroke-width="1" opacity="1" d="M 196.5 193 L 197 197.5 L 196 197.5 L 196.5 193 Z " /><path fill="rgb(161,146,182)" stroke="rgb(161,146,182)" stroke-width="1" opacity="1" d="M 190.5 199 L 191 201.5 L 190 201.5 L 190.5 199 Z " /><path fill="rgb(161,146,182)" stroke="rgb(161,146,182)" stroke-width="1" opacity="1" d="M 206.5 200 L 207 205.5 L 206 205.5 L 206.5 200 Z " /><path fill="rgb(161,146,182)" stroke="rgb(161,146,182)" stroke-width="1" opacity="1" d="M 212.5 200 L 213 202.5 L 212 202.5 L 212.5 200 Z " /><path fill="rgb(161,146,182)" stroke="rgb(161,146,182)" stroke-width="1" opacity="1" d="M 230.5 200 L 229.5 202 L 230.5 200 Z " /><path fill="rgb(161,146,182)" stroke="rgb(161,146,182)" stroke-width="1" opacity="1" d="M 200.5 205 L 201 207.5 L 200 207.5 L 200.5 205 Z " /><path fill="rgb(161,146,182)" stroke="rgb(161,146,182)" stroke-width="1" opacity="1" d="M 202.5 207 L 203 210.5 L 202 210.5 L 202.5 207 Z " /><path fill="rgb(161,146,182)" stroke="rgb(161,146,182)" stroke-width="1" opacity="1" d="M 224.5 208 L 225.5 210 L 224.5 208 Z " /><path fill="rgb(161,146,182)" stroke="rgb(161,146,182)" stroke-width="1" opacity="1" d="M 160.5 211 L 161.5 213 L 160.5 211 Z " /><path fill="rgb(161,146,182)" stroke="rgb(161,146,182)" stroke-width="1" opacity="1" d="M 189.5 212 L 190 214.5 L 189 214.5 L 189.5 212 Z " /><path fill="rgb(161,146,182)" stroke="rgb(161,146,182)" stroke-width="1" opacity="1" d="M 241.5 212 L 240.5 214 L 241.5 212 Z " /><path fill="rgb(161,146,182)" stroke="rgb(161,146,182)" stroke-width="1" opacity="1" d="M 213.5 213 L 214 215.5 L 213 215.5 L 213.5 213 Z " /><path fill="rgb(161,146,182)" stroke="rgb(161,146,182)" stroke-width="1" opacity="1" d="M 179.5 214 L 178.5 216 L 179.5 214 Z " /><path fill="rgb(161,146,182)" stroke="rgb(161,146,182)" stroke-width="1" opacity="1" d="M 195.5 215 L 196 219.5 L 195 219.5 L 195.5 215 Z " /><path fill="rgb(161,146,182)" stroke="rgb(161,146,182)" stroke-width="1" opacity="1" d="M 158.5 218 L 163.5 224 L 158.5 218 Z " /><path fill="rgb(161,146,182)" stroke="rgb(161,146,182)" stroke-width="1" opacity="1" d="M 244.5 218 L 239.5 224 L 244.5 218 Z " /><path fill="rgb(161,146,182)" stroke="rgb(161,146,182)" stroke-width="1" opacity="1" d="M 234.5 219 L 233.5 221 L 234.5 219 Z " /><path fill="rgb(161,146,182)" stroke="rgb(161,146,182)" stroke-width="1" opacity="1" d="M 169.5 220 L 170.5 222 L 169.5 220 Z " /><path fill="rgb(161,146,182)" stroke="rgb(161,146,182)" stroke-width="1" opacity="1" d="M 199.5 256 L 200.5 258 L 199.5 256 Z " /><path fill="rgb(161,146,182)" stroke="rgb(161,146,182)" stroke-width="1" opacity="1" d="M 199.5 265 L 200.5 267 L 199.5 265 Z " /><path fill="rgb(48,3,84)" stroke="rgb(48,3,84)" stroke-width="1" opacity="1" d="M 89.5 0 L 129 0.5 Q 114.3 10.3 103 23.5 Q 77.5 52 65 93.5 L 59 119.5 L 58 134.5 L 57 135.5 L 57 172.5 L 58 173.5 L 58 181.5 L 62 203.5 L 73 236.5 Q 88.8 273.2 116.5 298 L 119 299.5 L 82 300 Q 56.7 268.6 43 224.5 L 37 199.5 L 35 179.5 L 34 178.5 L 33 142.5 L 34 141.5 L 35 120.5 L 39 98.5 L 48 68.5 Q 63 28.5 89.5 0 Z " /><path fill="rgb(48,3,84)" stroke="rgb(48,3,84)" stroke-width="1" opacity="1" d="M 273.5 0 L 312.5 0 L 315 2.5 Q 340.5 31.5 355 71.5 L 359 83.5 L 366 114.5 L 367 129.5 L 368 130.5 L 368 143.5 L 369 144.5 L 369 163.5 L 368 164.5 L 368 177.5 L 367 178.5 L 366 193.5 L 360 220.5 L 352 244.5 L 344.5 259 L 339 262.5 L 339.5 264 L 342 263 L 342 266.5 L 340 270 Q 333.4 271.1 330 276.5 L 330.5 278 L 333 276.5 Q 331 280.2 329 278.5 L 326 286.5 L 327 289.5 L 320 300 L 283 299.5 L 298 285.5 Q 324.1 256.6 337 214.5 L 342 193.5 L 344 172.5 L 345 171.5 L 345 136.5 L 344 135.5 L 344 127.5 L 343 126.5 L 341 109.5 L 337 93.5 L 329 71.5 Q 313.2 34.8 285.5 10 L 274.5 2 L 273.5 0 Z " /><path fill="rgb(48,3,84)" stroke="rgb(48,3,84)" stroke-width="1" opacity="1" d="M 372.5 258 L 371.5 260 L 372.5 258 Z " /><path fill="rgb(48,3,84)" stroke="rgb(48,3,84)" stroke-width="1" opacity="1" d="M 354.5 259 L 350.5 264 L 354.5 259 Z " /><path fill="rgb(48,3,84)" stroke="rgb(48,3,84)" stroke-width="1" opacity="1" d="M 356.5 261 L 354.5 264 L 356.5 261 Z " /><path fill="rgb(48,3,84)" stroke="rgb(48,3,84)" stroke-width="1" opacity="1" d="M 373.5 262 L 372.5 264 L 373.5 262 Z " /><path fill="rgb(48,3,84)" stroke="rgb(48,3,84)" stroke-width="1" opacity="1" d="M 371.5 265 L 372.5 267 L 371.5 265 Z " /><path fill="rgb(48,3,84)" stroke="rgb(48,3,84)" stroke-width="1" opacity="1" d="M 352.5 269 L 353.5 271 L 352.5 269 Z " /><path fill="rgb(48,3,84)" stroke="rgb(48,3,84)" stroke-width="1" opacity="1" d="M 337.5 273 L 336 275.5 L 335 277.5 L 335.5 279 L 334 278.5 L 333 280.5 Q 335.8 282.3 331.5 284 L 331 282.5 L 335 276.5 Q 332.8 275.3 335.5 274 L 337.5 273 Z " /><path fill="rgb(48,3,84)" stroke="rgb(48,3,84)" stroke-width="1" opacity="1" d="M 339.5 279 L 338.5 281 L 339.5 279 Z " /><path fill="rgb(48,3,84)" stroke="rgb(48,3,84)" stroke-width="1" opacity="1" d="M 335.5 284 L 332.5 288 L 335.5 284 Z " /><path fill="rgb(58,17,99)" stroke="rgb(58,17,99)" stroke-width="1" opacity="1" d="M 199.5 3 L 220.5 5 L 244.5 13 Q 270.1 25.4 287 46.5 Q 306.9 70.6 317 104.5 L 323 136.5 L 323 170.5 L 322 170.5 L 315 155.5 L 309 135.5 L 306 119.5 L 305 94 L 297 96 L 295 91.5 L 295 67 L 284.5 71 Q 274.4 55.6 260.5 44 Q 245.4 31.6 224.5 25 L 208.5 22 L 193.5 22 Q 147.8 29.8 125 60.5 L 119 70 L 108 67 L 108 89.5 L 104.5 96 L 98 94 L 98 107.5 L 97 108.5 L 97 118.5 L 96 119.5 L 95 130.5 L 89 152.5 L 79.5 173 L 78 151.5 L 79 150.5 L 79 135.5 L 80 134.5 L 82 116.5 L 92 84.5 Q 106.3 50.8 132.5 29 Q 146.2 17.2 164.5 10 L 181.5 5 L 198.5 4 L 199.5 3 Z " /><path fill="rgb(58,17,99)" stroke="rgb(58,17,99)" stroke-width="1" opacity="1" d="M 92.5 183 Q 96.3 182.3 97 184.5 L 97 189.5 L 93 199 L 99.5 197 Q 111.6 239.4 141.5 264 Q 153.4 273.6 168.5 280 L 186.5 285 L 207.5 286 L 224.5 283 L 247.5 273 Q 264 263 276 248.5 Q 294 227.3 302 197 L 310 199 L 305 187.5 L 305 183 L 321 185.5 Q 309.1 246.1 269.5 279 Q 253.7 292.7 231.5 300 L 170.5 300 Q 135.8 287.7 115 261.5 Q 89.9 232.1 81 186.5 L 82.5 185 L 92.5 183 Z " /><path fill="rgb(58,17,99)" stroke="rgb(58,17,99)" stroke-width="1" opacity="1" d="M 359.5 263 L 368 264.5 L 360.5 265 L 359.5 263 Z " /><path fill="rgb(58,17,99)" stroke="rgb(58,17,99)" stroke-width="1" opacity="1" d="M 357.5 278 L 358.5 280 L 357.5 278 Z " /><path fill="rgb(58,17,99)" stroke="rgb(58,17,99)" stroke-width="1" opacity="1" d="M 352.5 281 L 377 281.5 L 352.5 282 L 352.5 281 Z " /><path fill="rgb(78,38,131)" stroke="rgb(78,38,131)" stroke-width="1" opacity="1" d="M 198.5 35 L 204 35.5 L 198.5 36 L 198.5 35 Z " /><path fill="rgb(78,38,131)" stroke="rgb(78,38,131)" stroke-width="1" opacity="1" d="M 200.5 42 Q 206.3 42.3 209 45.5 L 211 52.5 Q 208.2 55.2 209 61.5 L 210 65 L 235.5 66 L 236.5 67 L 257.5 69 L 271.5 72 L 276 74.5 L 276 81 L 278.5 81 L 286.5 77 L 287 98.5 L 285.5 100 L 267.5 104 L 247 106 L 247 91.5 L 245.5 90 L 236.5 88 L 228.5 88 L 227.5 87 L 212 87 L 213 93 L 228.5 94 L 239 96 L 239 107 L 231.5 107 L 230.5 108 L 214 108 L 214 113.5 L 214.5 114 L 237.5 114 L 238.5 113 L 250.5 113 L 251.5 112 L 274.5 110 L 298 105 L 300 127.5 L 304 144.5 Q 309.2 162.7 317 177 L 293.5 173 Q 290.8 174.2 293 175.5 L 298 189 L 281.5 185 L 252 181 Q 250.3 209.6 231.5 222 Q 223.5 228.4 212 230 Q 210 246.6 201.5 258 Q 192.9 246.9 191 230 Q 174 226.7 164 215.5 Q 151.5 203.7 151 181 L 121.5 185 L 105 189 L 109 179.5 L 110 173.5 L 108.5 174 L 86 177 L 94 159.5 L 100 140.5 L 104 120.5 L 104 110.5 L 105 105 L 122.5 109 L 141.5 111 L 142.5 112 L 164.5 113 L 165.5 114 L 189 114 Q 190.3 109.4 187.5 108 L 172.5 108 L 171.5 107 L 164 107 L 164 96.5 L 166.5 96 L 174.5 94 L 190 93 L 191 87.5 L 175.5 87 L 174.5 88 L 166.5 88 L 156 90 L 156 106 L 149.5 106 L 148.5 105 L 141.5 105 L 125.5 102 L 116 98.5 L 116 82.5 L 115 77 L 127 81 L 127 74.5 L 128.5 73 L 159.5 67 L 193 65 L 194 56.5 Q 191.2 54.8 192 49.5 L 195.5 44 L 200.5 42 Z M 200 45 L 196 50 L 199 55 Q 202 56 200 52 L 204 53 Q 207 52 206 48 Q 205 44 200 45 Z M 197 69 L 194 72 L 194 82 L 201 82 L 201 71 Q 200 68 197 69 Z M 209 69 Q 205 70 206 75 L 209 76 L 210 79 L 209 79 Q 210 76 206 77 Q 205 81 208 82 Q 212 83 213 81 Q 214 76 212 75 L 213 70 L 209 69 Z M 175 70 L 173 72 L 173 82 L 175 83 L 180 82 L 180 76 L 176 76 L 177 73 L 177 75 Q 182 77 180 72 Q 179 69 175 70 Z M 185 70 L 185 82 L 190 82 Q 191 78 188 79 L 188 70 L 185 70 Z M 218 70 L 218 80 Q 219 83 224 82 L 225 81 L 225 70 L 222 70 L 222 79 L 221 79 L 221 70 L 218 70 Z M 229 70 Q 228 74 231 73 L 231 80 L 229 80 L 229 83 L 235 83 L 234 80 L 235 71 L 229 70 Z M 163 71 L 161 73 L 161 83 L 163 84 L 167 83 L 168 83 L 168 71 L 165 72 L 165 81 L 164 81 L 164 72 L 163 71 Z M 241 71 L 240 84 L 245 84 Q 246 80 243 81 L 243 72 L 241 71 Z M 154 72 L 151 73 L 149 75 L 149 84 Q 150 86 155 85 L 156 84 L 156 74 L 154 72 Z M 249 73 L 249 85 L 255 86 Q 256 82 253 83 L 253 73 L 249 73 Z M 141 74 L 140 75 L 137 76 L 137 87 L 143 86 L 144 86 L 144 76 L 141 74 Z M 259 74 L 259 86 Q 260 88 265 87 Q 267 83 262 84 L 263 81 L 265 82 L 265 79 Q 261 80 262 77 L 265 78 L 265 75 L 259 74 Z M 122 84 L 121 95 L 136 98 Q 142 99 145 97 L 142 94 L 131 92 L 127 92 L 127 86 L 122 84 Z M 282 84 L 278 86 L 276 87 L 276 92 L 261 95 Q 257 94 258 97 L 261 98 L 268 98 L 282 95 L 282 84 Z M 202 86 L 206 91 Q 208 84 202 86 Z M 196 89 L 198 99 L 183 99 L 182 100 L 171 100 L 170 103 L 196 103 L 202 109 L 204 106 L 208 103 L 232 103 L 233 100 L 205 99 L 206 95 Q 203 90 196 89 Z M 113 116 L 111 118 L 109 140 L 104 143 L 108 148 L 107 164 L 121 163 L 125 161 L 129 154 L 130 132 L 131 131 L 130 122 L 125 117 L 113 116 Z M 283 116 L 275 118 L 272 122 L 273 137 L 286 144 L 287 147 L 287 156 L 282 156 L 281 146 L 273 147 L 274 148 Q 273 155 275 159 L 281 163 Q 287 161 289 164 L 294 163 L 296 159 L 295 157 Q 293 146 298 143 L 282 133 Q 278 131 280 125 L 284 123 L 285 130 L 292 129 L 290 119 Q 288 115 283 116 Z M 259 118 L 258 119 L 244 119 L 246 159 Q 248 162 254 160 L 254 152 L 253 151 L 253 141 L 257 141 L 260 147 L 260 160 L 262 161 L 268 161 L 267 142 L 263 138 L 266 136 L 265 122 Q 263 118 259 118 Z M 142 119 L 139 120 L 137 127 L 137 139 L 136 140 L 136 151 L 135 152 L 135 161 L 142 161 L 143 160 L 143 150 L 144 149 L 144 144 L 150 144 L 149 147 L 149 160 L 156 160 L 157 159 L 158 123 Q 154 117 142 119 Z M 171 120 L 168 121 L 165 125 L 165 135 L 164 136 L 164 157 L 167 159 L 181 159 L 183 158 L 185 156 L 186 141 L 185 139 L 176 139 L 175 144 L 178 145 L 178 153 L 172 153 L 172 128 L 174 126 L 178 126 L 178 134 L 185 134 L 185 124 L 183 121 L 171 120 Z M 229 120 L 228 121 L 218 121 L 219 159 L 240 159 L 239 158 L 239 150 L 233 150 L 232 153 L 227 153 L 226 147 L 226 141 L 237 141 L 236 138 L 236 135 L 226 135 L 226 126 L 231 126 L 232 129 L 238 129 L 238 120 L 229 120 Z M 196 121 L 194 122 L 191 127 L 191 155 L 192 157 L 197 159 Q 205 160 211 158 L 213 155 L 213 141 L 212 139 L 203 139 L 203 145 L 205 146 L 205 153 L 200 153 L 199 153 L 199 127 L 204 127 L 204 134 L 212 134 L 211 124 L 209 121 L 196 121 Z M 198 166 L 197 167 L 187 167 L 176 170 L 186 193 Q 189 210 179 215 Q 176 214 177 217 L 189 222 L 190 221 L 191 196 L 192 195 L 192 187 L 191 186 L 188 188 L 192 182 L 191 180 L 189 176 L 199 177 L 199 167 L 198 166 Z M 204 166 L 204 176 L 211 174 L 213 175 L 210 180 L 216 184 L 211 184 L 213 221 L 215 222 L 226 217 Q 218 212 216 201 L 218 190 L 227 170 L 217 167 Q 208 168 204 166 Z M 141 169 L 140 170 L 131 170 L 119 172 L 117 179 L 135 175 L 147 174 L 152 172 L 152 169 L 141 169 Z M 251 169 L 251 173 L 269 175 L 286 179 L 284 174 L 281 171 L 251 169 Z M 172 172 L 170 173 L 163 181 L 168 191 Q 173 198 182 201 Q 183 194 180 190 Q 174 182 172 172 Z M 232 172 L 223 190 Q 220 194 221 201 L 229 197 Q 236 191 240 182 L 239 179 L 232 172 Z M 197 182 L 196 189 L 196 209 L 195 210 L 195 226 L 199 241 L 202 244 L 205 237 L 208 225 L 207 191 L 206 190 L 206 182 L 202 183 L 202 215 L 201 215 L 201 183 L 197 182 Z M 162 188 Q 161 205 173 213 L 177 211 Q 181 210 180 206 L 171 199 L 162 188 Z M 242 188 L 235 197 L 222 206 L 223 208 L 231 213 L 238 205 L 242 192 L 242 188 Z " /><path fill="rgb(78,38,131)" stroke="rgb(78,38,131)" stroke-width="1" opacity="1" d="M 217.5 49 L 218 54.5 L 217 54.5 L 217.5 49 Z " /><path fill="rgb(78,38,131)" stroke="rgb(78,38,131)" stroke-width="1" opacity="1" d="M 177.5 58 L 181 58.5 L 177.5 59 L 177.5 58 Z " /><path fill="rgb(78,38,131)" stroke="rgb(78,38,131)" stroke-width="1" opacity="1" d="M 222.5 58 L 226 58.5 L 222.5 59 L 222.5 58 Z " /><path fill="rgb(78,38,131)" stroke="rgb(78,38,131)" stroke-width="1" opacity="1" d="M 165.5 59 L 168 59.5 L 165.5 60 L 165.5 59 Z " /><path fill="rgb(78,38,131)" stroke="rgb(78,38,131)" stroke-width="1" opacity="1" d="M 108.5 67 L 109 96.5 L 108 96.5 L 108.5 67 Z " /><path fill="rgb(78,38,131)" stroke="rgb(78,38,131)" stroke-width="1" opacity="1" d="M 294.5 67 L 295 96.5 L 294 96.5 L 294.5 67 Z " /><path fill="rgb(78,38,131)" stroke="rgb(78,38,131)" stroke-width="1" opacity="1" d="M 152.5 75 L 153 81.5 L 152 81.5 L 152.5 75 Z " /><path fill="rgb(78,38,131)" stroke="rgb(78,38,131)" stroke-width="1" opacity="1" d="M 97.5 108 L 98 111.5 L 97 111.5 L 97.5 108 Z " /><path fill="rgb(78,38,131)" stroke="rgb(78,38,131)" stroke-width="1" opacity="1" d="M 305.5 110 L 306 112.5 L 305 112.5 L 305.5 110 Z " /><path fill="rgb(78,38,131)" stroke="rgb(78,38,131)" stroke-width="1" opacity="1" d="M 119.5 123 L 123 124 L 122 144.5 L 120 156 L 115 156 L 115 154.5 L 116 153.5 L 118 124.5 L 119.5 123 Z " /><path fill="rgb(78,38,131)" stroke="rgb(78,38,131)" stroke-width="1" opacity="1" d="M 145 125 L 151 125 L 151 130.5 L 150 131.5 L 150 138 L 144 138 L 144 135.5 L 145 134.5 L 145 125 Z " /><path fill="rgb(78,38,131)" stroke="rgb(78,38,131)" stroke-width="1" opacity="1" d="M 252 125 L 258 125 L 258 133.5 Q 256.6 136.3 252 135 L 252 125 Z " /><path fill="rgb(78,38,131)" stroke="rgb(78,38,131)" stroke-width="1" opacity="1" d="M 143.5 189 L 145 192.5 L 144 192.5 L 143.5 189 Z " /><path fill="rgb(78,38,131)" stroke="rgb(78,38,131)" stroke-width="1" opacity="1" d="M 154.5 214 L 155.5 216 L 154.5 214 Z " /><path fill="rgb(78,38,131)" stroke="rgb(78,38,131)" stroke-width="1" opacity="1" d="M 159.5 220 L 161.5 223 L 159.5 220 Z " /><path fill="rgb(78,38,131)" stroke="rgb(78,38,131)" stroke-width="1" opacity="1" d="M 166.5 226 L 167.5 228 L 166.5 226 Z " /><path fill="rgb(78,38,131)" stroke="rgb(78,38,131)" stroke-width="1" opacity="1" d="M 374.5 258 L 378 259.5 L 374.5 264 L 374 262.5 L 374.5 261 L 372 262.5 L 370 268 L 375.5 267 L 375 268.5 L 373 277 L 377 275.5 L 379 268.5 L 381.5 266 L 382.5 269 L 388 267 L 383 281.5 L 386 282.5 L 383.5 284 L 381 283 L 381 278.5 L 384 270 L 380 272.5 L 376.5 280 L 372.5 279 Q 371.3 281.3 370 278.5 L 371 270.5 L 368 272.5 L 364.5 280 Q 361.8 278.8 364 277.5 L 369 264.5 L 368.5 263 L 372 260.5 Q 371.3 258.3 373.5 259 L 374.5 258 Z " /><path fill="rgb(78,38,131)" stroke="rgb(78,38,131)" stroke-width="1" opacity="1" d="M 356.5 259 L 358 259.5 L 352 265.5 L 348 277 Q 351.8 277.8 353 274.5 Q 353.5 269 357.5 267 L 360.5 266 L 365 267.5 L 361 273.5 L 361 276.5 Q 363.3 277.8 360.5 279 L 357.5 278 L 353.5 280 Q 351 275.5 348.5 281 Q 342.8 282.8 345 276.5 L 348 270.5 L 344.5 270 L 333.5 275 L 334.5 273 L 342 268.5 L 343 263 L 340 262.5 Q 340.5 259.5 344.5 260 L 348 261.5 L 345 269 Q 348.8 269.8 350 266.5 L 353.5 261 L 356.5 259 Z M 360 268 L 355 274 Q 354 277 357 276 L 360 272 L 360 268 Z " /><path fill="rgb(78,38,131)" stroke="rgb(78,38,131)" stroke-width="1" opacity="1" d="M 339.5 274 L 342 274.5 L 330.5 288 Q 325.3 289.8 327 284.5 L 331.5 279 L 331 280.5 L 330 285 L 334 282.5 L 339.5 274 Z " /><path fill="rgb(55,12,94)" stroke="rgb(55,12,94)" stroke-width="1" opacity="1" d="M 155.5 0 L 246.5 0 Q 270.4 10.6 287 28.5 Q 314.4 56.6 327 99.5 L 331 115.5 L 332 126.5 L 333 127.5 L 333 135.5 L 334 136.5 L 334 171.5 L 333 172.5 L 333 180.5 L 329 201.5 L 317 235.5 Q 301.7 268.2 275.5 290 L 261.5 300 L 232.5 300 L 232.5 299 Q 266.1 287.6 286 262.5 Q 299.7 246.2 309 225.5 L 317 203.5 L 320 186 L 330.5 187 L 330 185.5 L 323 172.5 L 323 136.5 Q 320.3 134.8 322 128.5 L 317 104.5 L 312 89.5 Q 297.3 52.7 269.5 29 Q 255.8 17.2 237.5 10 L 220.5 5 L 199.5 3 L 198.5 4 L 187.5 4 L 173.5 7 L 151.5 16 Q 130.1 28.1 115 46.5 Q 99.5 65 90 89.5 L 81 121.5 L 78 155.5 L 79 156.5 L 79 174.5 L 72 186.5 L 75.5 187 L 80.5 186 L 82 187.5 L 85 203.5 L 90 218.5 L 101 241.5 Q 113.7 263.3 132.5 279 Q 147.8 292.7 170 299.5 L 140.5 300 Q 126.1 291.4 115 279.5 Q 90 253.5 77 215.5 L 72 197.5 L 69 180.5 L 69 173.5 L 68 172.5 L 68 135.5 L 74 102.5 L 84 74.5 Q 97.4 44.9 119.5 24 Q 134.7 9.2 155.5 0 Z " /><path fill="rgb(55,12,94)" stroke="rgb(55,12,94)" stroke-width="1" opacity="1" d="M 356.5 267 L 354.5 270 L 356.5 267 Z " /><path fill="rgb(55,12,94)" stroke="rgb(55,12,94)" stroke-width="1" opacity="1" d="M 377.5 281 L 380 281.5 L 377.5 282 L 377.5 281 Z " /><path fill="rgb(251,250,252)" stroke="rgb(251,250,252)" stroke-width="1" opacity="1" d="M 199.5 46 Q 205 45 206 48.5 L 203.5 52 L 199 51 L 198.5 54 L 197 48.5 L 199.5 46 Z " /><path fill="rgb(251,250,252)" stroke="rgb(251,250,252)" stroke-width="1" opacity="1" d="M 185 70 L 187 70.5 L 187 80 L 189.5 80 L 189.5 81 L 185 81 L 185 70 Z " /><path fill="rgb(251,250,252)" stroke="rgb(251,250,252)" stroke-width="1" opacity="1" d="M 195 70 L 201 70 L 201 81 L 199 81 Q 200.7 75.8 197 77 Q 198.7 82.2 195 81 L 195 70 Z M 197 72 Q 196 76 199 75 Q 200 71 197 72 Z " /><path fill="rgb(251,250,252)" stroke="rgb(251,250,252)" stroke-width="1" opacity="1" d="M 207 70 L 212 70 L 212 72.5 L 210.5 72 Q 208.3 71.3 209 73.5 L 213 76.5 Q 213.8 80.3 211.5 81 Q 205.2 82.9 207 78 Q 209.7 76.9 209 79.5 L 211 78.5 L 209.5 76 L 207 74.5 L 207 70 Z " /><path fill="rgb(251,250,252)" stroke="rgb(251,250,252)" stroke-width="1" opacity="1" d="M 219.5 70 L 221 71.5 L 221.5 80 L 222 71 L 224 71.5 L 224 81 L 221.5 82 L 219 81 L 219.5 70 Z " /><path fill="rgb(251,250,252)" stroke="rgb(251,250,252)" stroke-width="1" opacity="1" d="M 174 71 L 179 71 L 179 74 Q 176.3 75.1 177 72.5 L 175 73.5 Q 173.5 79.5 176.5 81 L 177 76 L 179 76 L 179 82 L 174 82 L 174 71 Z " /><path fill="rgb(251,250,252)" stroke="rgb(251,250,252)" stroke-width="1" opacity="1" d="M 230 71 Q 233.8 70 235 72.5 L 233 73 L 233 80.5 L 235 81 L 235 82.5 L 233.5 82 L 230 81.5 Q 232.8 79.8 231 73.5 L 230 71 Z " /><path fill="rgb(251,250,252)" stroke="rgb(251,250,252)" stroke-width="1" opacity="1" d="M 162 72 L 164 72.5 L 164 81.5 L 165 81.5 L 165 72.5 L 167 72 L 167 83 L 162 83 L 162 72 Z " /><path fill="rgb(251,250,252)" stroke="rgb(251,250,252)" stroke-width="1" opacity="1" d="M 240 72 L 242 72.5 L 242 82 Q 245.8 80.5 245 83.5 L 243.5 83 L 240 83 L 240 72 Z " /><path fill="rgb(251,250,252)" stroke="rgb(251,250,252)" stroke-width="1" opacity="1" d="M 151.5 73 Q 155.3 72.3 156 74.5 L 156 82.5 L 154.5 84 L 150 84 L 150 74.5 L 151.5 73 Z M 152 75 L 152 83 L 154 82 Q 156 74 152 75 Z " /><path fill="rgb(251,250,252)" stroke="rgb(251,250,252)" stroke-width="1" opacity="1" d="M 250 73 L 252 73 L 252 82.5 Q 254.8 81.9 254 85 L 250 83.5 L 250 73 Z " /><path fill="rgb(251,250,252)" stroke="rgb(251,250,252)" stroke-width="1" opacity="1" d="M 138 75 Q 142.6 73.8 144 76.5 L 144 84.5 L 142.5 86 L 138 86 L 138 75 Z M 140 77 L 140 84 L 142 84 L 142 78 L 140 77 Z " /><path fill="rgb(251,250,252)" stroke="rgb(251,250,252)" stroke-width="1" opacity="1" d="M 260 75 L 265 75 L 265 77 Q 261.3 75.5 262 78.5 L 263.5 81 L 262 81 L 262 85 L 264 85.5 L 260 86 L 260 75 Z " /><path fill="rgb(251,250,252)" stroke="rgb(251,250,252)" stroke-width="1" opacity="1" d="M 197.5 89 L 202 92.5 L 201.5 108 L 194.5 102 L 171 101.5 L 173.5 100 L 199 99.5 Q 195.6 96 197.5 89 Z " /><path fill="rgb(251,250,252)" stroke="rgb(251,250,252)" stroke-width="1" opacity="1" d="M 112 116 L 114.5 117 L 125.5 118 L 130 122.5 L 128 154.5 L 123.5 161 L 107 164 L 108 161.5 L 109 148.5 L 106 142 L 110 139.5 L 112 116 Z M 118 123 L 117 127 L 115 157 L 121 156 L 122 152 L 124 125 Q 123 122 118 123 Z " /><path fill="rgb(251,250,252)" stroke="rgb(251,250,252)" stroke-width="1" opacity="1" d="M 280.5 117 Q 288.3 115.3 290 119.5 L 291 129 L 285 129 L 285 123 L 279 123 Q 278 129.9 280 133 L 297 142 L 294 147.5 L 294 154.5 L 295 159.5 L 292.5 163 L 279.5 162 L 276 159.5 L 274 147 L 280 147 L 280 149.5 Q 282.3 150.7 281 155.5 L 282.5 157 L 288 157 L 288 149.5 L 287 144 L 274 137 Q 272 131 273 120.5 L 275.5 118 L 280.5 117 Z " /><path fill="rgb(251,250,252)" stroke="rgb(251,250,252)" stroke-width="1" opacity="1" d="M 254.5 119 Q 262.2 117.2 264 121.5 L 265 123.5 L 265 135.5 L 262 137.5 L 266 141.5 L 267 158.5 L 268 159.5 L 261 160 L 260 143.5 L 257.5 141 L 253.5 140 Q 250.8 141.3 252 146.5 L 253 147.5 L 253 159 L 247 159 L 247 150.5 L 246 149.5 L 245 120 L 253.5 120 L 254.5 119 Z M 253 124 L 251 126 Q 250 133 254 136 L 258 135 L 259 134 L 259 126 Q 258 123 253 124 Z " /><path fill="rgb(251,250,252)" stroke="rgb(251,250,252)" stroke-width="1" opacity="1" d="M 140.5 120 L 153.5 120 L 158 123.5 L 156 159 L 149.5 160 L 149 157.5 L 150 156.5 L 150 143 Q 144.6 141.5 143 144.5 L 142 160 L 136.5 161 L 136 148.5 L 137 147.5 L 138 123.5 L 140.5 120 Z M 146 124 L 144 126 L 144 139 L 150 139 L 151 138 L 151 125 L 146 124 Z " /><path fill="rgb(251,250,252)" stroke="rgb(251,250,252)" stroke-width="1" opacity="1" d="M 169.5 121 L 180.5 121 L 184 123.5 L 184 134 L 178 134 L 179 126 L 172 126 L 172 133.5 L 171 134.5 L 171 154 L 177.5 154 L 179 152.5 L 179 144.5 L 176 144 L 176 140 L 185 140 L 185 154.5 L 181.5 158 L 166.5 158 Q 163 157 164 151.5 L 165 150.5 L 165 130.5 Q 167.5 129 166 123.5 L 167.5 122 L 169.5 121 Z " /><path fill="rgb(251,250,252)" stroke="rgb(251,250,252)" stroke-width="1" opacity="1" d="M 219 121 L 236.5 121 L 237 122.5 L 238 129 L 232 129 L 232 126.5 Q 230.8 123.7 229.5 126 L 225 126 L 225 134.5 L 226.5 136 L 236 136 L 236 140 L 226 140 L 226 154 L 232 154 L 232.5 151 L 237.5 151 L 239 152.5 L 239 159 L 233.5 158 L 220 158 L 220 148.5 L 219 147.5 L 219 121 Z " /><path fill="rgb(251,250,252)" stroke="rgb(251,250,252)" stroke-width="1" opacity="1" d="M 194.5 122 L 208.5 122 L 211 124.5 L 211 134 L 205 134 L 205 126 L 199.5 126 L 198 127.5 L 198 152.5 Q 199.3 155.3 204.5 154 L 206 152.5 L 206 144 Q 201.1 145.6 203 140 L 212 140 L 212 155.5 L 208.5 158 L 195.5 158 L 192 155.5 L 192 125.5 L 194.5 122 Z " /><path fill="rgb(251,250,252)" stroke="rgb(251,250,252)" stroke-width="1" opacity="1" d="M 170.5 173 L 180 191.5 L 181 200 Q 172.8 197.3 168 189.5 L 164 182.5 L 164 179.5 L 170.5 173 Z " /><path fill="rgb(251,250,252)" stroke="rgb(251,250,252)" stroke-width="1" opacity="1" d="M 231 173 L 238 178.5 L 239 181.5 Q 235.2 191.2 227.5 197 L 222.5 200 L 222 193.5 L 230 178.5 L 231 173 Z " /><path fill="rgb(251,250,252)" stroke="rgb(251,250,252)" stroke-width="1" opacity="1" d="M 199.5 182 L 200 211.5 L 202 219.5 L 202 242.5 L 200 241.5 L 196 226.5 L 196 204.5 L 197 203.5 L 197 183 L 199.5 182 Z " /><path fill="rgb(251,250,252)" stroke="rgb(251,250,252)" stroke-width="1" opacity="1" d="M 162.5 190 L 174.5 203 L 179 205.5 Q 179.5 210.5 175.5 211 L 172.5 212 Q 161.9 205.4 162.5 190 Z " /><path fill="rgb(251,250,252)" stroke="rgb(251,250,252)" stroke-width="1" opacity="1" d="M 240.5 190 L 241 194.5 Q 238.6 206.1 230.5 212 L 223 206.5 L 239 192.5 L 240.5 190 Z " /><path fill="rgb(189,191,194)" stroke="rgb(189,191,194)" stroke-width="1" opacity="1" d="M 198.5 36 Q 211.1 35.4 215 43.5 Q 217.9 47.1 217 54.5 L 216 59 L 228.5 59 L 229.5 60 L 238.5 60 L 239.5 61 L 259.5 63 L 278.5 68 L 284.5 72 L 294 68 L 294.5 98 L 304 95 L 304 101.5 L 305 102.5 L 305 117.5 L 310 142.5 L 316 160.5 L 329 186 L 302 181 L 309 198 L 289.5 193 L 258 188 Q 254.2 213.5 236.5 226 L 217 236.5 Q 213.4 255.9 201.5 267 L 193 256.5 L 184.5 235 Q 165.9 229.6 156 215.5 Q 146.8 205.1 145 188 L 113.5 193 L 94 198 L 101 181 L 74 186 L 86 162.5 L 93 142.5 L 98 117.5 L 98 99.5 L 99 95 L 108.5 98 L 109 68 L 118.5 72 L 126.5 67 L 143.5 63 L 163.5 61 L 164.5 60 L 173.5 60 L 174.5 59 L 187 59 Q 185.3 55.6 186 48.5 L 190 40 L 198.5 36 Z M 199 42 L 197 43 L 192 49 Q 190 56 194 58 L 193 63 L 192 64 Q 185 62 184 65 L 171 65 L 170 66 L 148 68 L 128 73 Q 124 75 126 80 L 123 80 L 116 76 L 115 100 L 132 104 L 152 106 L 153 107 Q 157 107 157 107 L 157 90 L 172 89 L 173 88 L 185 88 L 186 87 L 190 87 L 190 92 L 187 93 L 178 93 L 177 94 L 165 95 L 163 97 L 163 107 L 165 108 L 176 108 L 177 109 L 188 109 L 188 114 L 141 111 L 140 110 L 121 108 L 104 104 L 103 123 L 98 146 Q 93 164 85 178 L 108 174 L 110 175 L 105 188 L 105 189 L 150 182 Q 151 200 160 212 Q 170 226 190 230 L 194 246 L 199 257 L 203 258 Q 210 246 213 230 L 220 229 L 234 221 Q 251 208 253 182 L 284 186 L 294 189 L 299 189 L 293 174 L 318 178 L 312 166 L 304 143 L 300 123 L 299 104 L 271 110 L 255 111 L 254 112 L 243 112 L 242 113 L 224 113 L 223 114 L 215 114 L 215 109 L 239 108 L 240 107 L 240 97 L 239 95 L 227 94 L 226 93 L 217 93 L 216 92 L 213 92 L 213 87 L 219 88 L 231 88 L 240 90 L 246 90 L 246 107 L 272 104 L 288 100 L 288 76 L 280 80 L 277 80 L 277 75 L 274 72 L 256 68 L 234 66 L 233 65 L 210 64 L 209 59 L 211 55 L 210 47 Q 208 41 199 42 Z " /><path fill="rgb(189,191,194)" stroke="rgb(189,191,194)" stroke-width="1" opacity="1" d="M 218.5 70 L 219 78.5 L 218 78.5 L 218.5 70 Z " /><path fill="rgb(189,191,194)" stroke="rgb(189,191,194)" stroke-width="1" opacity="1" d="M 222.5 70 L 225 71.5 L 224.5 80 L 224 71 L 222.5 70 Z " /><path fill="rgb(189,191,194)" stroke="rgb(189,191,194)" stroke-width="1" opacity="1" d="M 173.5 72 L 174 80.5 L 173 80.5 L 173.5 72 Z " /><path fill="rgb(189,191,194)" stroke="rgb(189,191,194)" stroke-width="1" opacity="1" d="M 175.5 73 L 177 77.5 L 176 79.5 L 176.5 81 Q 173.1 79.1 175.5 73 Z " /><path fill="rgb(189,191,194)" stroke="rgb(189,191,194)" stroke-width="1" opacity="1" d="M 153.5 75 L 154 81.5 L 153 81.5 L 153.5 75 Z " /><path fill="rgb(189,191,194)" stroke="rgb(189,191,194)" stroke-width="1" opacity="1" d="M 263.5 79 L 264.5 81 L 263.5 79 Z " /><path fill="rgb(189,191,194)" stroke="rgb(189,191,194)" stroke-width="1" opacity="1" d="M 185.5 81 L 188 81.5 L 185.5 82 L 185.5 81 Z " /><path fill="rgb(189,191,194)" stroke="rgb(189,191,194)" stroke-width="1" opacity="1" d="M 231.5 82 L 234 82.5 L 231.5 83 L 231.5 82 Z " /><path fill="rgb(189,191,194)" stroke="rgb(189,191,194)" stroke-width="1" opacity="1" d="M 150.5 84 L 153 84.5 L 150.5 85 L 150.5 84 Z " /><path fill="rgb(189,191,194)" stroke="rgb(189,191,194)" stroke-width="1" opacity="1" d="M 121 85 L 126 86 Q 124.5 91.4 127.5 93 L 138.5 94 L 144 96.5 L 133.5 97 L 123.5 95 L 122 93.5 L 121 85 Z " /><path fill="rgb(189,191,194)" stroke="rgb(189,191,194)" stroke-width="1" opacity="1" d="M 264.5 85 L 263.5 87 L 264.5 85 Z " /><path fill="rgb(189,191,194)" stroke="rgb(189,191,194)" stroke-width="1" opacity="1" d="M 280.5 85 Q 283.1 84.2 282 87.5 Q 279.8 88.8 281 93.5 L 279.5 95 L 269.5 97 L 259.5 97 L 260.5 95 L 275.5 93 L 277 91.5 L 277 86 L 279.5 86 L 280.5 85 Z " /><path fill="rgb(189,191,194)" stroke="rgb(189,191,194)" stroke-width="1" opacity="1" d="M 203.5 87 Q 207.3 85.8 206 89.5 L 203.5 87 Z " /><path fill="rgb(189,191,194)" stroke="rgb(189,191,194)" stroke-width="1" opacity="1" d="M 201.5 91 Q 206 92 205 98.5 L 204.5 100 L 229.5 100 L 232 101.5 L 208.5 102 L 202.5 107 L 202 92.5 L 201.5 91 Z " /><path fill="rgb(189,191,194)" stroke="rgb(189,191,194)" stroke-width="1" opacity="1" d="M 171.5 100 L 173 100.5 L 170.5 102 L 171.5 100 Z " /><path fill="rgb(189,191,194)" stroke="rgb(189,191,194)" stroke-width="1" opacity="1" d="M 191.5 102 L 195 102.5 L 191.5 103 L 191.5 102 Z " /><path fill="rgb(189,191,194)" stroke="rgb(189,191,194)" stroke-width="1" opacity="1" d="M 200.5 107 L 201.5 109 L 200.5 107 Z " /><path fill="rgb(189,191,194)" stroke="rgb(189,191,194)" stroke-width="1" opacity="1" d="M 127.5 119 L 128.5 121 L 127.5 119 Z " /><path fill="rgb(189,191,194)" stroke="rgb(189,191,194)" stroke-width="1" opacity="1" d="M 142.5 119 L 147 119.5 L 142.5 120 L 142.5 119 Z " /><path fill="rgb(189,191,194)" stroke="rgb(189,191,194)" stroke-width="1" opacity="1" d="M 251.5 119 L 254 119.5 L 251.5 120 L 251.5 119 Z " /><path fill="rgb(189,191,194)" stroke="rgb(189,191,194)" stroke-width="1" opacity="1" d="M 197.5 121 L 207 121.5 L 197.5 122 L 197.5 121 Z " /><path fill="rgb(189,191,194)" stroke="rgb(189,191,194)" stroke-width="1" opacity="1" d="M 272.5 122 L 273 124.5 L 272 124.5 L 272.5 122 Z " /><path fill="rgb(189,191,194)" stroke="rgb(189,191,194)" stroke-width="1" opacity="1" d="M 122.5 123 L 123.5 125 L 122.5 123 Z " /><path fill="rgb(189,191,194)" stroke="rgb(189,191,194)" stroke-width="1" opacity="1" d="M 145.5 124 L 147 124.5 L 145 125 L 144.5 128 L 144 125.5 L 145.5 124 Z " /><path fill="rgb(189,191,194)" stroke="rgb(189,191,194)" stroke-width="1" opacity="1" d="M 165.5 125 L 166 129.5 L 165 129.5 L 165.5 125 Z " /><path fill="rgb(189,191,194)" stroke="rgb(189,191,194)" stroke-width="1" opacity="1" d="M 184.5 125 L 185 133.5 L 184 133.5 L 184.5 125 Z " /><path fill="rgb(189,191,194)" stroke="rgb(189,191,194)" stroke-width="1" opacity="1" d="M 117.5 126 L 118 128.5 L 117 128.5 L 117.5 126 Z " /><path fill="rgb(189,191,194)" stroke="rgb(189,191,194)" stroke-width="1" opacity="1" d="M 178.5 126 L 179 130.5 L 178 130.5 L 178.5 126 Z " /><path fill="rgb(189,191,194)" stroke="rgb(189,191,194)" stroke-width="1" opacity="1" d="M 198.5 127 L 199 141.5 L 198 141.5 L 198.5 127 Z " /><path fill="rgb(189,191,194)" stroke="rgb(189,191,194)" stroke-width="1" opacity="1" d="M 251.5 128 L 252 131.5 L 251 131.5 L 251.5 128 Z " /><path fill="rgb(189,191,194)" stroke="rgb(189,191,194)" stroke-width="1" opacity="1" d="M 279.5 128 L 280 130.5 L 279 130.5 L 279.5 128 Z " /><path fill="rgb(189,191,194)" stroke="rgb(189,191,194)" stroke-width="1" opacity="1" d="M 123.5 129 L 124 131.5 L 123 131.5 L 123.5 129 Z " /><path fill="rgb(189,191,194)" stroke="rgb(189,191,194)" stroke-width="1" opacity="1" d="M 157.5 129 L 158 132.5 L 157 132.5 L 157.5 129 Z " /><path fill="rgb(189,191,194)" stroke="rgb(189,191,194)" stroke-width="1" opacity="1" d="M 265.5 131 L 266 133.5 L 265 133.5 L 265.5 131 Z " /><path fill="rgb(189,191,194)" stroke="rgb(189,191,194)" stroke-width="1" opacity="1" d="M 225.5 132 L 226 134.5 L 225 134.5 L 225.5 132 Z " /><path fill="rgb(189,191,194)" stroke="rgb(189,191,194)" stroke-width="1" opacity="1" d="M 245.5 133 L 246 136.5 L 245 136.5 L 245.5 133 Z " /><path fill="rgb(189,191,194)" stroke="rgb(189,191,194)" stroke-width="1" opacity="1" d="M 273.5 133 L 274 135.5 L 273 135.5 L 273.5 133 Z " /><path fill="rgb(189,191,194)" stroke="rgb(189,191,194)" stroke-width="1" opacity="1" d="M 171.5 134 L 172 139.5 L 171 139.5 L 171.5 134 Z " /><path fill="rgb(189,191,194)" stroke="rgb(189,191,194)" stroke-width="1" opacity="1" d="M 231.5 135 L 236 135.5 L 231.5 136 L 231.5 135 Z " /><path fill="rgb(189,191,194)" stroke="rgb(189,191,194)" stroke-width="1" opacity="1" d="M 253.5 135 L 256 135.5 L 253.5 136 L 253.5 135 Z " /><path fill="rgb(189,191,194)" stroke="rgb(189,191,194)" stroke-width="1" opacity="1" d="M 116.5 136 L 117 138.5 L 116 138.5 L 116.5 136 Z " /><path fill="rgb(189,191,194)" stroke="rgb(189,191,194)" stroke-width="1" opacity="1" d="M 144.5 138 L 150 138.5 L 144.5 139 L 144.5 138 Z " /><path fill="rgb(189,191,194)" stroke="rgb(189,191,194)" stroke-width="1" opacity="1" d="M 226.5 140 L 236 140.5 L 226.5 141 L 226.5 140 Z " /><path fill="rgb(189,191,194)" stroke="rgb(189,191,194)" stroke-width="1" opacity="1" d="M 253.5 140 L 256 140.5 L 253.5 141 L 253.5 140 Z " /><path fill="rgb(189,191,194)" stroke="rgb(189,191,194)" stroke-width="1" opacity="1" d="M 144.5 143 L 150 143.5 L 144.5 144 L 144.5 143 Z " /><path fill="rgb(189,191,194)" stroke="rgb(189,191,194)" stroke-width="1" opacity="1" d="M 252.5 143 L 253 146.5 L 252 146.5 L 252.5 143 Z " /><path fill="rgb(189,191,194)" stroke="rgb(189,191,194)" stroke-width="1" opacity="1" d="M 266.5 144 L 267 146.5 L 266 146.5 L 266.5 144 Z " /><path fill="rgb(189,191,194)" stroke="rgb(189,191,194)" stroke-width="1" opacity="1" d="M 136.5 145 L 137 147.5 L 136 147.5 L 136.5 145 Z " /><path fill="rgb(189,191,194)" stroke="rgb(189,191,194)" stroke-width="1" opacity="1" d="M 115.5 146 L 116 148.5 L 115 148.5 L 115.5 146 Z " /><path fill="rgb(189,191,194)" stroke="rgb(189,191,194)" stroke-width="1" opacity="1" d="M 128.5 146 L 129 148.5 L 128 148.5 L 128.5 146 Z " /><path fill="rgb(189,191,194)" stroke="rgb(189,191,194)" stroke-width="1" opacity="1" d="M 164.5 146 L 165 150.5 L 164 150.5 L 164.5 146 Z " /><path fill="rgb(189,191,194)" stroke="rgb(189,191,194)" stroke-width="1" opacity="1" d="M 156.5 147 L 157 150.5 L 156 150.5 L 156.5 147 Z " /><path fill="rgb(189,191,194)" stroke="rgb(189,191,194)" stroke-width="1" opacity="1" d="M 178.5 148 L 179 152.5 L 178 152.5 L 178.5 148 Z " /><path fill="rgb(189,191,194)" stroke="rgb(189,191,194)" stroke-width="1" opacity="1" d="M 219.5 148 L 220 157.5 L 219 157.5 L 219.5 148 Z " /><path fill="rgb(189,191,194)" stroke="rgb(189,191,194)" stroke-width="1" opacity="1" d="M 260.5 149 L 261 152.5 L 260 152.5 L 260.5 149 Z " /><path fill="rgb(189,191,194)" stroke="rgb(189,191,194)" stroke-width="1" opacity="1" d="M 232.5 150 L 235 150.5 L 232.5 151 L 232.5 150 Z " /><path fill="rgb(189,191,194)" stroke="rgb(189,191,194)" stroke-width="1" opacity="1" d="M 246.5 150 L 247 153.5 L 246 153.5 L 246.5 150 Z " /><path fill="rgb(189,191,194)" stroke="rgb(189,191,194)" stroke-width="1" opacity="1" d="M 274.5 150 L 275 152.5 L 274 152.5 L 274.5 150 Z " /><path fill="rgb(189,191,194)" stroke="rgb(189,191,194)" stroke-width="1" opacity="1" d="M 142.5 153 L 143 155.5 L 142 155.5 L 142.5 153 Z " /><path fill="rgb(189,191,194)" stroke="rgb(189,191,194)" stroke-width="1" opacity="1" d="M 199.5 153 L 205 153.5 L 199.5 154 L 199.5 153 Z " /><path fill="rgb(189,191,194)" stroke="rgb(189,191,194)" stroke-width="1" opacity="1" d="M 149.5 154 L 150 156.5 L 149 156.5 L 149.5 154 Z " /><path fill="rgb(189,191,194)" stroke="rgb(189,191,194)" stroke-width="1" opacity="1" d="M 267.5 156 L 268 158.5 L 267 158.5 L 267.5 156 Z " /><path fill="rgb(189,191,194)" stroke="rgb(189,191,194)" stroke-width="1" opacity="1" d="M 135.5 158 L 136 160.5 L 135 160.5 L 135.5 158 Z " /><path fill="rgb(189,191,194)" stroke="rgb(189,191,194)" stroke-width="1" opacity="1" d="M 168.5 158 L 176 158.5 L 168.5 159 L 168.5 158 Z " /><path fill="rgb(189,191,194)" stroke="rgb(189,191,194)" stroke-width="1" opacity="1" d="M 227.5 158 L 234 158.5 L 227.5 159 L 227.5 158 Z " /><path fill="rgb(189,191,194)" stroke="rgb(189,191,194)" stroke-width="1" opacity="1" d="M 150.5 159 L 154 159.5 L 150.5 160 L 150.5 159 Z " /><path fill="rgb(189,191,194)" stroke="rgb(189,191,194)" stroke-width="1" opacity="1" d="M 137.5 160 L 140 160.5 L 137.5 161 L 137.5 160 Z " /><path fill="rgb(189,191,194)" stroke="rgb(189,191,194)" stroke-width="1" opacity="1" d="M 192.5 167 Q 199.5 165.5 199 168.5 L 197.5 177 Q 194.2 173.8 186.5 175 L 191 180.5 L 187 187.5 L 189.5 188 L 191 187.5 L 189 221 L 178 216.5 Q 184.3 212.3 187 204.5 L 187 194.5 L 178 175.5 L 177 170 L 192.5 167 Z " /><path fill="rgb(189,191,194)" stroke="rgb(189,191,194)" stroke-width="1" opacity="1" d="M 204 167 L 218.5 168 L 226 170 L 225 175.5 L 216 193.5 L 216 204.5 Q 218.8 212.3 225 216.5 L 214 221 L 213 200.5 L 212 199.5 L 212 187.5 L 211 185 L 217 183.5 L 211 180 Q 210.4 175.4 214 173.5 L 211.5 173 L 205.5 176 L 204 167 Z " /><path fill="rgb(189,191,194)" stroke="rgb(189,191,194)" stroke-width="1" opacity="1" d="M 149.5 169 Q 152.5 168.2 151 172 L 118 178 L 120 172 L 136.5 171 L 137.5 170 L 148.5 170 L 149.5 169 Z " /><path fill="rgb(189,191,194)" stroke="rgb(189,191,194)" stroke-width="1" opacity="1" d="M 251.5 169 L 283 172 L 285 178 L 252 172 L 251.5 169 Z " /><path fill="rgb(189,191,194)" stroke="rgb(189,191,194)" stroke-width="1" opacity="1" d="M 167.5 175 L 166.5 177 L 167.5 175 Z " /><path fill="rgb(189,191,194)" stroke="rgb(189,191,194)" stroke-width="1" opacity="1" d="M 235.5 175 L 236.5 177 L 235.5 175 Z " /><path fill="rgb(189,191,194)" stroke="rgb(189,191,194)" stroke-width="1" opacity="1" d="M 203.5 182 L 206 184.5 L 207 225.5 L 202.5 241 L 202 219.5 L 201 218.5 L 203 210.5 L 203.5 182 Z " /><path fill="rgb(189,191,194)" stroke="rgb(189,191,194)" stroke-width="1" opacity="1" d="M 221.5 197 L 222 199.5 L 221 199.5 L 221.5 197 Z " /><path fill="rgb(189,191,194)" stroke="rgb(189,191,194)" stroke-width="1" opacity="1" d="M 196.5 198 L 197 203.5 L 196 203.5 L 196.5 198 Z " /><path fill="rgb(189,191,194)" stroke="rgb(189,191,194)" stroke-width="1" opacity="1" d="M 200.5 208 L 201 211.5 L 200 211.5 L 200.5 208 Z " /><path fill="rgb(189,191,194)" stroke="rgb(189,191,194)" stroke-width="1" opacity="1" d="M 169.5 209 L 171.5 212 L 169.5 209 Z " /><path fill="rgb(189,191,194)" stroke="rgb(189,191,194)" stroke-width="1" opacity="1" d="M 233.5 209 L 231.5 212 L 233.5 209 Z " /><path fill="rgb(189,191,194)" stroke="rgb(189,191,194)" stroke-width="1" opacity="1" d="M 195.5 220 L 196 222.5 L 195 222.5 L 195.5 220 Z " /><path fill="rgb(52,8,90)" stroke="rgb(52,8,90)" stroke-width="1" opacity="1" d="M 141.5 0 L 155 0.5 Q 130.6 11.1 114 29.5 Q 88.6 56.1 76 95.5 L 71 115.5 L 69 134.5 L 68 135.5 L 68 172.5 L 74 205.5 L 85 235.5 Q 97.9 263.1 118.5 283 L 140 299.5 L 129.5 300 L 105 277.5 Q 81.5 250.5 70 211.5 L 63 177.5 L 62 142.5 L 63 141.5 L 63 130.5 L 67 107.5 L 80 69.5 Q 95.7 35.7 122.5 13 L 141.5 0 Z " /><path fill="rgb(52,8,90)" stroke="rgb(52,8,90)" stroke-width="1" opacity="1" d="M 247.5 0 L 260.5 0 L 264.5 2 Q 282.9 14.1 297 30.5 Q 320.4 57.6 332 96.5 L 339 131.5 L 340 164.5 L 339 165.5 L 339 176.5 L 338 177.5 L 336 195.5 L 325 231.5 Q 309.2 269.2 280.5 294 L 272.5 300 L 262.5 300 L 262.5 299 Q 281.5 287.5 295 270.5 Q 316.4 244.9 327 208.5 L 331 192.5 L 331 187.5 L 333 180.5 L 333 172.5 L 334 171.5 L 334 136.5 L 333 135.5 L 333 127.5 L 329 106.5 L 317 72.5 Q 304.1 44.9 283.5 25 L 266.5 11 L 251.5 2 L 247.5 1 L 247.5 0 Z " /><path fill="rgb(64,23,108)" stroke="rgb(64,23,108)" stroke-width="1" opacity="1" d="M 193.5 22 L 215.5 23 L 233.5 28 Q 259.7 38.8 276 59.5 L 282 68.5 L 280.5 68 L 268.5 64 L 247.5 61 Q 235.4 50.3 217 47 L 212.5 39 Q 208.5 34 198.5 35 Q 191.6 36.5 188 41.5 L 184.5 47 L 170.5 51 L 154.5 61 L 130.5 65 L 118.5 71 L 119 69.5 Q 127.8 54.4 141.5 44 Q 153.4 34.4 168.5 28 L 181.5 24 L 192.5 23 L 193.5 22 Z " /><path fill="rgb(64,23,108)" stroke="rgb(64,23,108)" stroke-width="1" opacity="1" d="M 107.5 90 L 108 96.5 L 106.5 96 Q 104.3 96.8 105 94.5 L 107.5 90 Z " /><path fill="rgb(64,23,108)" stroke="rgb(64,23,108)" stroke-width="1" opacity="1" d="M 295.5 92 L 297 95.5 L 295 96.5 L 295.5 92 Z " /><path fill="rgb(64,23,108)" stroke="rgb(64,23,108)" stroke-width="1" opacity="1" d="M 98.5 182 L 100 182.5 L 97.5 188 L 96 183.5 L 98.5 182 Z " /><path fill="rgb(64,23,108)" stroke="rgb(64,23,108)" stroke-width="1" opacity="1" d="M 303.5 182 Q 306.5 181.1 305 185.5 L 304 185.5 L 303.5 182 Z " /><path fill="rgb(64,23,108)" stroke="rgb(64,23,108)" stroke-width="1" opacity="1" d="M 117.5 193 L 129 218.5 Q 138.2 233.8 151.5 245 L 173.5 258 L 186.5 262 L 196.5 263 L 201.5 268 L 206.5 263 L 223.5 260 L 240.5 252 Q 253.4 243.9 263 232.5 L 273 218.5 L 284.5 193 L 302 197 Q 290.9 238.6 261.5 263 Q 248.4 274.4 230.5 281 L 215.5 285 L 194.5 286 L 177.5 283 L 154.5 273 Q 137.8 263.2 126 248.5 Q 107.7 227.6 100 197 L 117.5 193 Z " /><path fill="rgb(64,23,108)" stroke="rgb(64,23,108)" stroke-width="1" opacity="1" d="M 351.5 269 L 350.5 271 L 351.5 269 Z " /><path fill="rgb(64,23,108)" stroke="rgb(64,23,108)" stroke-width="1" opacity="1" d="M 382.5 270 L 383.5 272 L 381 271.5 L 382.5 270 Z " /><path fill="rgb(64,23,108)" stroke="rgb(64,23,108)" stroke-width="1" opacity="1" d="M 332.5 274 L 331.5 276 L 332.5 274 Z " /><path fill="rgb(64,23,108)" stroke="rgb(64,23,108)" stroke-width="1" opacity="1" d="M 380.5 281 L 381 283 L 378 282.5 L 380.5 281 Z " /><path fill="rgb(70,30,117)" stroke="rgb(70,30,117)" stroke-width="1" opacity="1" d="M 212.5 39 L 213.5 41 L 212.5 39 Z " /><path fill="rgb(70,30,117)" stroke="rgb(70,30,117)" stroke-width="1" opacity="1" d="M 189.5 40 L 188.5 42 L 189.5 40 Z " /><path fill="rgb(70,30,117)" stroke="rgb(70,30,117)" stroke-width="1" opacity="1" d="M 185.5 46 L 186 47.5 Q 183.5 49 185 54.5 L 186 58 L 165.5 59 L 155.5 61 L 155.5 60 Q 167.8 50.3 185.5 46 Z " /><path fill="rgb(70,30,117)" stroke="rgb(70,30,117)" stroke-width="1" opacity="1" d="M 217 47 Q 235 50.3 247 60.5 L 245.5 61 L 236.5 59 L 217 58 L 218 49.5 L 217 47 Z " /><path fill="rgb(70,30,117)" stroke="rgb(70,30,117)" stroke-width="1" opacity="1" d="M 141.5 189 L 144 190.5 Q 148.3 211.2 161.5 223 Q 170.9 232.3 185 236 Q 187.8 252.2 196 263 Q 158.1 257.7 139 232.5 Q 125.2 216.3 118 193.5 L 141.5 189 Z " /><path fill="rgb(70,30,117)" stroke="rgb(70,30,117)" stroke-width="1" opacity="1" d="M 259 189 L 280.5 192 L 284 193.5 Q 274.1 225.1 251.5 244 Q 235.2 259.7 206.5 263 L 209 259.5 Q 215.7 249.4 218 236 Q 237.1 230.3 248 215.5 Q 256.8 205 259 189 Z " /><path fill="rgb(70,30,117)" stroke="rgb(70,30,117)" stroke-width="1" opacity="1" d="M 344.5 259 L 345.5 261 L 344.5 259 Z " /><path fill="rgb(70,30,117)" stroke="rgb(70,30,117)" stroke-width="1" opacity="1" d="M 340.5 261 L 339.5 263 L 340.5 261 Z " /><path fill="rgb(70,30,117)" stroke="rgb(70,30,117)" stroke-width="1" opacity="1" d="M 373.5 261 L 373.5 264 Q 370.5 262.5 373.5 261 Z " /><path fill="rgb(70,30,117)" stroke="rgb(70,30,117)" stroke-width="1" opacity="1" d="M 377.5 261 L 376.5 263 L 377.5 261 Z " /><path fill="rgb(70,30,117)" stroke="rgb(70,30,117)" stroke-width="1" opacity="1" d="M 360.5 263 L 368 263.5 L 360.5 264 L 360.5 263 Z " /><path fill="rgb(70,30,117)" stroke="rgb(70,30,117)" stroke-width="1" opacity="1" d="M 370.5 266 L 371.5 268 L 370.5 266 Z " /><path fill="rgb(70,30,117)" stroke="rgb(70,30,117)" stroke-width="1" opacity="1" d="M 380.5 266 L 379.5 268 L 380.5 266 Z " /><path fill="rgb(70,30,117)" stroke="rgb(70,30,117)" stroke-width="1" opacity="1" d="M 339.5 270 L 340.5 272 L 339.5 270 Z " /><path fill="rgb(70,30,117)" stroke="rgb(70,30,117)" stroke-width="1" opacity="1" d="M 332.5 275 L 331.5 278 L 333.5 277 L 332.5 279 L 331 279.5 L 331.5 281 L 329 280.5 L 332.5 275 Z " /><path fill="rgb(70,30,117)" stroke="rgb(70,30,117)" stroke-width="1" opacity="1" d="M 376.5 275 L 375.5 277 L 376.5 275 Z " /><path fill="rgb(70,30,117)" stroke="rgb(70,30,117)" stroke-width="1" opacity="1" d="M 362.5 276 L 363.5 278 L 362.5 276 Z " /><path fill="rgb(70,30,117)" stroke="rgb(70,30,117)" stroke-width="1" opacity="1" d="M 366.5 277 L 367 278.5 L 365 279.5 L 366.5 277 Z " /><path fill="rgb(70,30,117)" stroke="rgb(70,30,117)" stroke-width="1" opacity="1" d="M 333.5 282 L 331.5 285 L 333.5 282 Z " /><path fill="rgb(70,30,117)" stroke="rgb(70,30,117)" stroke-width="1" opacity="1" d="M 352.5 282 L 378 282.5 L 352.5 283 L 352.5 282 Z " /><path fill="rgb(70,30,117)" stroke="rgb(70,30,117)" stroke-width="1" opacity="1" d="M 335.5 283 L 332.5 287 L 335.5 283 Z " /><path fill="rgb(50,6,89)" stroke="rgb(50,6,89)" stroke-width="1" opacity="1" d="M 129.5 0 L 141 0.5 Q 119.8 12.3 105 30.5 Q 80.7 58.7 69 99.5 L 63 130.5 L 62 165.5 L 63 166.5 L 64 184.5 L 68 204.5 L 81 240.5 Q 96.4 272.1 121.5 294 L 129 299.5 L 119.5 300 L 104 285.5 Q 77.9 256.6 65 214.5 L 59 188.5 L 58 173.5 L 57 172.5 L 57 135.5 L 58 134.5 L 59 119.5 L 63 100.5 Q 68.5 80 77 62.5 Q 92.2 31.7 116.5 10 L 129.5 0 Z " /><path fill="rgb(50,6,89)" stroke="rgb(50,6,89)" stroke-width="1" opacity="1" d="M 261.5 0 L 272.5 0 Q 286.8 9.7 298 22.5 Q 324.1 51.4 337 93.5 L 342 114.5 L 344 135.5 L 345 136.5 L 345 171.5 L 344 172.5 L 344 180.5 L 343 181.5 L 341 198.5 L 337 214.5 L 329 236.5 Q 313.5 272.5 286.5 297 Q 283.4 301.9 273.5 300 L 274.5 298 Q 287.3 290.3 296 278.5 Q 320.1 251.1 332 211.5 L 339 176.5 L 340 143.5 L 339 142.5 L 338 123.5 L 334 103.5 L 321 67.5 Q 305.6 35.9 280.5 14 L 261.5 1 L 261.5 0 Z " /><path fill="rgb(50,6,89)" stroke="rgb(50,6,89)" stroke-width="1" opacity="1" d="M 344.5 277 L 345 279.5 L 344 279.5 L 344.5 277 Z " /></svg>