<svg width="512" height="512" version="1.1" xmlns="http://www.w3.org/2000/svg" desc="Created with imagetracer.js version 1.2.6" ><path fill="rgb(254,254,254)" stroke="rgb(254,254,254)" stroke-width="1" opacity="1" d="M 293.5 86 L 328.5 87 L 329.5 88 Q 339.1 86.9 344 89 L 344 143 L 302.5 143 Q 292.3 144.8 287 151.5 L 283 160.5 Q 284.5 166 282 167.5 L 282 209.5 L 283.5 211 L 342 211 L 340 230.5 L 339 231.5 L 339 238.5 L 338 239.5 L 338 246.5 L 337 247.5 L 337 254.5 L 335 262.5 L 335 269.5 L 333.5 271 L 282 271 L 282 426 L 220 426 L 220 271.5 L 219.5 271 L 168 271 L 168 211 L 220 211 L 220 155.5 L 221 154.5 L 222 142.5 L 227 127.5 Q 233.9 111.9 246.5 102 L 266.5 91 L 282.5 87 L 292.5 87 L 293.5 86 Z " /><path fill="rgb(23,118,242)" stroke="rgb(23,118,242)" stroke-width="1" opacity="0.5098039215686274" d="M 234.5 6 L 245 6.5 L 234.5 7 L 234.5 6 Z " /><path fill="rgb(23,118,242)" stroke="rgb(23,118,242)" stroke-width="1" opacity="0.5098039215686274" d="M 267.5 6 L 278 6.5 L 267.5 7 L 267.5 6 Z " /><path fill="rgb(23,118,242)" stroke="rgb(23,118,242)" stroke-width="1" opacity="0.5098039215686274" d="M 224.5 7 L 231 7.5 L 224.5 8 L 224.5 7 Z " /><path fill="rgb(23,118,242)" stroke="rgb(23,118,242)" stroke-width="1" opacity="0.5098039215686274" d="M 281.5 7 L 288 7.5 L 281.5 8 L 281.5 7 Z " /><path fill="rgb(23,118,242)" stroke="rgb(23,118,242)" stroke-width="1" opacity="0.5098039215686274" d="M 217.5 8 L 222 8.5 L 217.5 9 L 217.5 8 Z " /><path fill="rgb(23,118,242)" stroke="rgb(23,118,242)" stroke-width="1" opacity="0.5098039215686274" d="M 290.5 8 L 295 8.5 L 290.5 9 L 290.5 8 Z " /><path fill="rgb(23,118,242)" stroke="rgb(23,118,242)" stroke-width="1" opacity="0.5098039215686274" d="M 211.5 9 L 216 9.5 L 211.5 10 L 211.5 9 Z " /><path fill="rgb(23,118,242)" stroke="rgb(23,118,242)" stroke-width="1" opacity="0.5098039215686274" d="M 296.5 9 L 301 9.5 L 296.5 10 L 296.5 9 Z " /><path fill="rgb(23,118,242)" stroke="rgb(23,118,242)" stroke-width="1" opacity="0.5098039215686274" d="M 206.5 10 L 210 10.5 L 206.5 11 L 206.5 10 Z " /><path fill="rgb(23,118,242)" stroke="rgb(23,118,242)" stroke-width="1" opacity="0.5098039215686274" d="M 302.5 10 L 306 10.5 L 302.5 11 L 302.5 10 Z " /><path fill="rgb(23,118,242)" stroke="rgb(23,118,242)" stroke-width="1" opacity="0.5098039215686274" d="M 201.5 11 L 205 11.5 L 201.5 12 L 201.5 11 Z " /><path fill="rgb(23,118,242)" stroke="rgb(23,118,242)" stroke-width="1" opacity="0.5098039215686274" d="M 307.5 11 L 311 11.5 L 307.5 12 L 307.5 11 Z " /><path fill="rgb(23,118,242)" stroke="rgb(23,118,242)" stroke-width="1" opacity="0.5098039215686274" d="M 197.5 12 L 200 12.5 L 197.5 13 L 197.5 12 Z " /><path fill="rgb(23,118,242)" stroke="rgb(23,118,242)" stroke-width="1" opacity="0.5098039215686274" d="M 312.5 12 L 315 12.5 L 312.5 13 L 312.5 12 Z " /><path fill="rgb(23,118,242)" stroke="rgb(23,118,242)" stroke-width="1" opacity="0.5098039215686274" d="M 193.5 13 L 196 13.5 L 193.5 14 L 193.5 13 Z " /><path fill="rgb(23,118,242)" stroke="rgb(23,118,242)" stroke-width="1" opacity="0.5098039215686274" d="M 316.5 13 L 319 13.5 L 316.5 14 L 316.5 13 Z " /><path fill="rgb(23,118,242)" stroke="rgb(23,118,242)" stroke-width="1" opacity="0.5098039215686274" d="M 189.5 14 L 192 14.5 L 189.5 15 L 189.5 14 Z " /><path fill="rgb(23,118,242)" stroke="rgb(23,118,242)" stroke-width="1" opacity="0.5098039215686274" d="M 320.5 14 L 323 14.5 L 320.5 15 L 320.5 14 Z " /><path fill="rgb(23,118,242)" stroke="rgb(23,118,242)" stroke-width="1" opacity="0.5098039215686274" d="M 185.5 15 L 188 15.5 L 176.5 19 L 176.5 18 L 185.5 15 Z " /><path fill="rgb(23,118,242)" stroke="rgb(23,118,242)" stroke-width="1" opacity="0.5098039215686274" d="M 324.5 15 L 333 17.5 L 330.5 18 L 324.5 16 L 324.5 15 Z " /><path fill="rgb(23,118,242)" stroke="rgb(23,118,242)" stroke-width="1" opacity="0.5098039215686274" d="M 173.5 19 L 175 19.5 L 158.5 26 L 158.5 25 L 173.5 19 Z " /><path fill="rgb(23,118,242)" stroke="rgb(23,118,242)" stroke-width="1" opacity="0.5098039215686274" d="M 337.5 19 L 344 21.5 L 342.5 22 L 337.5 20 L 337.5 19 Z " /><path fill="rgb(23,118,242)" stroke="rgb(23,118,242)" stroke-width="1" opacity="0.5098039215686274" d="M 345.5 22 L 354 25.5 L 352.5 26 L 345.5 23 L 345.5 22 Z " /><path fill="rgb(23,118,242)" stroke="rgb(23,118,242)" stroke-width="1" opacity="0.5098039215686274" d="M 155.5 26 L 157 26.5 L 149.5 30 L 149.5 29 L 155.5 26 Z " /><path fill="rgb(23,118,242)" stroke="rgb(23,118,242)" stroke-width="1" opacity="0.5098039215686274" d="M 355.5 26 L 361 28.5 L 359.5 29 L 355.5 27 L 355.5 26 Z " /><path fill="rgb(23,118,242)" stroke="rgb(23,118,242)" stroke-width="1" opacity="0.5098039215686274" d="M 145.5 31 L 144.5 33 L 132.5 39 L 133.5 37 L 145.5 31 Z " /><path fill="rgb(23,118,242)" stroke="rgb(23,118,242)" stroke-width="1" opacity="0.5098039215686274" d="M 370.5 33 L 380 38.5 L 378.5 38 L 371.5 35 L 370.5 33 Z " /><path fill="rgb(23,118,242)" stroke="rgb(23,118,242)" stroke-width="1" opacity="0.5098039215686274" d="M 130.5 39 L 129.5 41 Q 97.6 58.6 74 84.5 Q 54.2 105.2 39.5 131 L 40 129.5 Q 59.1 95.1 87.5 70 Q 106.8 52.3 130.5 39 Z " /><path fill="rgb(23,118,242)" stroke="rgb(23,118,242)" stroke-width="1" opacity="0.5098039215686274" d="M 381.5 39 Q 416.3 58.7 442 87.5 L 465 117.5 L 463 116.5 Q 447.8 92.7 427.5 74 L 407.5 57 L 382.5 41 L 381.5 39 Z " /><path fill="rgb(23,118,242)" stroke="rgb(23,118,242)" stroke-width="1" opacity="0.5098039215686274" d="M 465.5 119 L 473 130.5 L 471 129.5 L 465.5 119 Z " /><path fill="rgb(23,118,242)" stroke="rgb(23,118,242)" stroke-width="1" opacity="0.5098039215686274" d="M 38.5 132 L 38 133.5 L 32.5 144 L 33 142.5 L 38.5 132 Z " /><path fill="rgb(23,118,242)" stroke="rgb(23,118,242)" stroke-width="1" opacity="0.5098039215686274" d="M 473.5 132 L 480 143.5 L 478 142.5 L 473.5 132 Z " /><path fill="rgb(23,118,242)" stroke="rgb(23,118,242)" stroke-width="1" opacity="0.5098039215686274" d="M 29.5 149 L 30 150.5 L 26.5 157 L 26 155.5 L 29.5 149 Z " /><path fill="rgb(23,118,242)" stroke="rgb(23,118,242)" stroke-width="1" opacity="0.5098039215686274" d="M 482.5 149 L 486 156.5 L 485 156.5 L 482.5 149 Z " /><path fill="rgb(23,118,242)" stroke="rgb(23,118,242)" stroke-width="1" opacity="0.5098039215686274" d="M 25.5 158 L 26 159.5 L 22.5 167 L 22 165.5 L 25.5 158 Z " /><path fill="rgb(23,118,242)" stroke="rgb(23,118,242)" stroke-width="1" opacity="0.5098039215686274" d="M 486.5 158 L 490 166.5 L 489 166.5 L 486.5 158 Z " /><path fill="rgb(23,118,242)" stroke="rgb(23,118,242)" stroke-width="1" opacity="0.5098039215686274" d="M 21.5 168 L 22 169.5 L 19.5 175 L 19 173.5 L 21.5 168 Z " /><path fill="rgb(23,118,242)" stroke="rgb(23,118,242)" stroke-width="1" opacity="0.5098039215686274" d="M 490.5 168 L 496 184.5 L 495 184.5 L 490.5 168 Z " /><path fill="rgb(23,118,242)" stroke="rgb(23,118,242)" stroke-width="1" opacity="0.5098039215686274" d="M 17.5 179 L 18 181.5 L 15.5 188 L 15 185.5 L 17.5 179 Z " /><path fill="rgb(23,118,242)" stroke="rgb(23,118,242)" stroke-width="1" opacity="0.5098039215686274" d="M 14.5 189 L 15 191.5 L 14 191.5 L 14.5 189 Z " /><path fill="rgb(23,118,242)" stroke="rgb(23,118,242)" stroke-width="1" opacity="0.5098039215686274" d="M 497.5 189 L 498 191.5 L 497 191.5 L 497.5 189 Z " /><path fill="rgb(23,118,242)" stroke="rgb(23,118,242)" stroke-width="1" opacity="0.5098039215686274" d="M 13.5 193 L 14 195.5 L 13 195.5 L 13.5 193 Z " /><path fill="rgb(23,118,242)" stroke="rgb(23,118,242)" stroke-width="1" opacity="0.5098039215686274" d="M 498.5 193 L 499 195.5 L 498 195.5 L 498.5 193 Z " /><path fill="rgb(23,118,242)" stroke="rgb(23,118,242)" stroke-width="1" opacity="0.5098039215686274" d="M 12.5 197 L 13 199.5 L 12 199.5 L 12.5 197 Z " /><path fill="rgb(23,118,242)" stroke="rgb(23,118,242)" stroke-width="1" opacity="0.5098039215686274" d="M 499.5 197 L 500 199.5 L 499 199.5 L 499.5 197 Z " /><path fill="rgb(23,118,242)" stroke="rgb(23,118,242)" stroke-width="1" opacity="0.5098039215686274" d="M 11.5 201 L 12 204.5 L 11 204.5 L 11.5 201 Z " /><path fill="rgb(23,118,242)" stroke="rgb(23,118,242)" stroke-width="1" opacity="0.5098039215686274" d="M 500.5 201 L 501 204.5 L 500 204.5 L 500.5 201 Z " /><path fill="rgb(23,118,242)" stroke="rgb(23,118,242)" stroke-width="1" opacity="0.5098039215686274" d="M 10.5 206 L 11 209.5 L 10 209.5 L 10.5 206 Z " /><path fill="rgb(23,118,242)" stroke="rgb(23,118,242)" stroke-width="1" opacity="0.5098039215686274" d="M 501.5 206 L 502 209.5 L 501 209.5 L 501.5 206 Z " /><path fill="rgb(23,118,242)" stroke="rgb(23,118,242)" stroke-width="1" opacity="0.5098039215686274" d="M 9.5 211 L 10 215.5 L 9 215.5 L 9.5 211 Z " /><path fill="rgb(23,118,242)" stroke="rgb(23,118,242)" stroke-width="1" opacity="0.5098039215686274" d="M 502.5 211 L 503 215.5 L 502 215.5 L 502.5 211 Z " /><path fill="rgb(23,118,242)" stroke="rgb(23,118,242)" stroke-width="1" opacity="0.5098039215686274" d="M 8.5 217 L 9 221.5 L 8 221.5 L 8.5 217 Z " /><path fill="rgb(23,118,242)" stroke="rgb(23,118,242)" stroke-width="1" opacity="0.5098039215686274" d="M 503.5 217 L 504 222.5 L 503 222.5 L 503.5 217 Z " /><path fill="rgb(23,118,242)" stroke="rgb(23,118,242)" stroke-width="1" opacity="0.5098039215686274" d="M 7.5 224 L 8 230.5 L 7 230.5 L 7.5 224 Z " /><path fill="rgb(23,118,242)" stroke="rgb(23,118,242)" stroke-width="1" opacity="0.5098039215686274" d="M 504.5 224 L 505 230.5 L 504 230.5 L 504.5 224 Z " /><path fill="rgb(23,118,242)" stroke="rgb(23,118,242)" stroke-width="1" opacity="0.5098039215686274" d="M 6.5 233 L 7 244.5 L 6 244.5 L 6.5 233 Z " /><path fill="rgb(23,118,242)" stroke="rgb(23,118,242)" stroke-width="1" opacity="0.5098039215686274" d="M 505.5 234 L 506 244.5 L 505 244.5 L 505.5 234 Z " /><path fill="rgb(23,118,242)" stroke="rgb(23,118,242)" stroke-width="1" opacity="0.5098039215686274" d="M 6.5 267 L 7 277.5 L 6 277.5 L 6.5 267 Z " /><path fill="rgb(23,118,242)" stroke="rgb(23,118,242)" stroke-width="1" opacity="0.5098039215686274" d="M 505.5 271 L 506 277.5 L 505 277.5 L 505.5 271 Z " /><path fill="rgb(23,118,242)" stroke="rgb(23,118,242)" stroke-width="1" opacity="0.5098039215686274" d="M 7.5 281 L 8 287.5 L 7 287.5 L 7.5 281 Z " /><path fill="rgb(23,118,242)" stroke="rgb(23,118,242)" stroke-width="1" opacity="0.5098039215686274" d="M 504.5 283 L 505 287.5 L 504 287.5 L 504.5 283 Z " /><path fill="rgb(23,118,242)" stroke="rgb(23,118,242)" stroke-width="1" opacity="0.5098039215686274" d="M 8.5 290 L 9 294.5 L 8 294.5 L 8.5 290 Z " /><path fill="rgb(23,118,242)" stroke="rgb(23,118,242)" stroke-width="1" opacity="0.5098039215686274" d="M 503.5 291 L 504 294.5 L 503 294.5 L 503.5 291 Z " /><path fill="rgb(23,118,242)" stroke="rgb(23,118,242)" stroke-width="1" opacity="0.5098039215686274" d="M 9.5 296 L 10 300.5 L 9 300.5 L 9.5 296 Z " /><path fill="rgb(23,118,242)" stroke="rgb(23,118,242)" stroke-width="1" opacity="0.5098039215686274" d="M 502.5 298 L 503 300.5 L 502 300.5 L 502.5 298 Z " /><path fill="rgb(23,118,242)" stroke="rgb(23,118,242)" stroke-width="1" opacity="0.5098039215686274" d="M 10.5 302 L 11 305.5 L 10 305.5 L 10.5 302 Z " /><path fill="rgb(23,118,242)" stroke="rgb(23,118,242)" stroke-width="1" opacity="0.5098039215686274" d="M 501.5 303 L 502 305.5 L 501 305.5 L 501.5 303 Z " /><path fill="rgb(23,118,242)" stroke="rgb(23,118,242)" stroke-width="1" opacity="0.5098039215686274" d="M 11.5 307 L 12 310.5 L 11 310.5 L 11.5 307 Z " /><path fill="rgb(23,118,242)" stroke="rgb(23,118,242)" stroke-width="1" opacity="0.5098039215686274" d="M 500.5 308 L 501 310.5 L 500 310.5 L 500.5 308 Z " /><path fill="rgb(23,118,242)" stroke="rgb(23,118,242)" stroke-width="1" opacity="0.5098039215686274" d="M 12.5 312 L 13 314.5 L 12 314.5 L 12.5 312 Z " /><path fill="rgb(23,118,242)" stroke="rgb(23,118,242)" stroke-width="1" opacity="0.5098039215686274" d="M 13.5 316 L 14 318.5 L 13 318.5 L 13.5 316 Z " /><path fill="rgb(23,118,242)" stroke="rgb(23,118,242)" stroke-width="1" opacity="0.5098039215686274" d="M 14.5 320 L 15 322.5 L 14 322.5 L 14.5 320 Z " /><path fill="rgb(23,118,242)" stroke="rgb(23,118,242)" stroke-width="1" opacity="0.5098039215686274" d="M 16.5 327 L 19 335.5 L 18 335.5 L 16.5 327 Z " /><path fill="rgb(23,118,242)" stroke="rgb(23,118,242)" stroke-width="1" opacity="0.5098039215686274" d="M 19.5 337 L 22 343.5 L 21 343.5 L 19.5 337 Z " /><path fill="rgb(23,118,242)" stroke="rgb(23,118,242)" stroke-width="1" opacity="0.5098039215686274" d="M 22.5 345 L 26 353.5 L 25 353.5 L 22.5 345 Z " /><path fill="rgb(23,118,242)" stroke="rgb(23,118,242)" stroke-width="1" opacity="0.5098039215686274" d="M 488.5 348 L 489 349.5 L 487.5 352 L 487 350.5 L 488.5 348 Z " /><path fill="rgb(23,118,242)" stroke="rgb(23,118,242)" stroke-width="1" opacity="0.5098039215686274" d="M 26.5 355 L 30 362.5 L 29 362.5 L 26.5 355 Z " /><path fill="rgb(23,118,242)" stroke="rgb(23,118,242)" stroke-width="1" opacity="0.5098039215686274" d="M 485.5 355 L 486 356.5 L 484.5 359 L 484 357.5 L 485.5 355 Z " /><path fill="rgb(23,118,242)" stroke="rgb(23,118,242)" stroke-width="1" opacity="0.5098039215686274" d="M 32.5 368 L 39 379.5 L 37 378.5 L 32.5 368 Z " /><path fill="rgb(23,118,242)" stroke="rgb(23,118,242)" stroke-width="1" opacity="0.5098039215686274" d="M 475.5 376 L 475 377.5 L 473.5 380 L 474 378.5 L 475.5 376 Z " /><path fill="rgb(23,118,242)" stroke="rgb(23,118,242)" stroke-width="1" opacity="0.5098039215686274" d="M 39.5 381 Q 57.7 412.8 83.5 437 Q 111.1 463.9 148 481.5 L 146.5 481 Q 101.2 459.8 70 424.5 L 48 396.5 L 39.5 381 Z " /><path fill="rgb(23,118,242)" stroke="rgb(23,118,242)" stroke-width="1" opacity="0.5098039215686274" d="M 471.5 383 L 471 384.5 L 469.5 387 L 470 385.5 L 471.5 383 Z " /><path fill="rgb(23,118,242)" stroke="rgb(23,118,242)" stroke-width="1" opacity="0.5098039215686274" d="M 468.5 388 L 467.5 390 L 468.5 388 Z " /><path fill="rgb(23,118,242)" stroke="rgb(23,118,242)" stroke-width="1" opacity="0.5098039215686274" d="M 466.5 391 L 465.5 393 L 466.5 391 Z " /><path fill="rgb(23,118,242)" stroke="rgb(23,118,242)" stroke-width="1" opacity="0.5098039215686274" d="M 464.5 394 L 464 395.5 L 461.5 399 L 463 396.5 L 464.5 394 Z " /><path fill="rgb(23,118,242)" stroke="rgb(23,118,242)" stroke-width="1" opacity="0.5098039215686274" d="M 460.5 400 L 459 402.5 L 456.5 406 L 458 403.5 L 460.5 400 Z " /><path fill="rgb(23,118,242)" stroke="rgb(23,118,242)" stroke-width="1" opacity="0.5098039215686274" d="M 455.5 407 L 452.5 411 L 455.5 407 Z " /><path fill="rgb(23,118,242)" stroke="rgb(23,118,242)" stroke-width="1" opacity="0.5098039215686274" d="M 451.5 412 L 448.5 416 L 451.5 412 Z " /><path fill="rgb(23,118,242)" stroke="rgb(23,118,242)" stroke-width="1" opacity="0.5098039215686274" d="M 447.5 417 L 442.5 423 L 447.5 417 Z " /><path fill="rgb(23,118,242)" stroke="rgb(23,118,242)" stroke-width="1" opacity="0.5098039215686274" d="M 441.5 424 L 424.5 442 L 441.5 424 Z " /><path fill="rgb(23,118,242)" stroke="rgb(23,118,242)" stroke-width="1" opacity="0.5098039215686274" d="M 422.5 442 L 417.5 448 L 422.5 442 Z " /><path fill="rgb(23,118,242)" stroke="rgb(23,118,242)" stroke-width="1" opacity="0.5098039215686274" d="M 415.5 448 L 412.5 452 L 415.5 448 Z " /><path fill="rgb(23,118,242)" stroke="rgb(23,118,242)" stroke-width="1" opacity="0.5098039215686274" d="M 410.5 452 L 407.5 456 L 410.5 452 Z " /><path fill="rgb(23,118,242)" stroke="rgb(23,118,242)" stroke-width="1" opacity="0.5098039215686274" d="M 405.5 456 L 403.5 459 L 400.5 461 L 402.5 458 L 405.5 456 Z " /><path fill="rgb(23,118,242)" stroke="rgb(23,118,242)" stroke-width="1" opacity="0.5098039215686274" d="M 398.5 461 L 396.5 464 L 391.5 467 L 392.5 465 L 398.5 461 Z " /><path fill="rgb(23,118,242)" stroke="rgb(23,118,242)" stroke-width="1" opacity="0.5098039215686274" d="M 389.5 467 L 388.5 469 L 389.5 467 Z " /><path fill="rgb(23,118,242)" stroke="rgb(23,118,242)" stroke-width="1" opacity="0.5098039215686274" d="M 386.5 469 L 385.5 471 L 383.5 472 L 384.5 470 L 386.5 469 Z " /><path fill="rgb(23,118,242)" stroke="rgb(23,118,242)" stroke-width="1" opacity="0.5098039215686274" d="M 379.5 473 L 378.5 475 L 376.5 476 L 377.5 474 L 379.5 473 Z " /><path fill="rgb(23,118,242)" stroke="rgb(23,118,242)" stroke-width="1" opacity="0.5098039215686274" d="M 149.5 482 L 157 485.5 L 155.5 486 L 149.5 483 L 149.5 482 Z " /><path fill="rgb(23,118,242)" stroke="rgb(23,118,242)" stroke-width="1" opacity="0.5098039215686274" d="M 357.5 484 L 359 484.5 L 355.5 486 L 355.5 485 L 357.5 484 Z " /><path fill="rgb(23,118,242)" stroke="rgb(23,118,242)" stroke-width="1" opacity="0.5098039215686274" d="M 158.5 486 L 167 489.5 L 165.5 490 L 158.5 487 L 158.5 486 Z " /><path fill="rgb(23,118,242)" stroke="rgb(23,118,242)" stroke-width="1" opacity="0.5098039215686274" d="M 350.5 487 L 352 487.5 L 348.5 489 L 348.5 488 L 350.5 487 Z " /><path fill="rgb(23,118,242)" stroke="rgb(23,118,242)" stroke-width="1" opacity="0.5098039215686274" d="M 168.5 490 L 185 495.5 L 182.5 496 L 170.5 492 L 168.5 490 Z " /><path fill="rgb(23,118,242)" stroke="rgb(23,118,242)" stroke-width="1" opacity="0.5098039215686274" d="M 189.5 497 L 192 497.5 L 189.5 498 L 189.5 497 Z " /><path fill="rgb(23,118,242)" stroke="rgb(23,118,242)" stroke-width="1" opacity="0.5098039215686274" d="M 193.5 498 L 196 498.5 L 193.5 499 L 193.5 498 Z " /><path fill="rgb(23,118,242)" stroke="rgb(23,118,242)" stroke-width="1" opacity="0.5098039215686274" d="M 197.5 499 L 200 499.5 L 197.5 500 L 197.5 499 Z " /><path fill="rgb(23,118,242)" stroke="rgb(23,118,242)" stroke-width="1" opacity="0.5098039215686274" d="M 201.5 500 L 205 500.5 L 201.5 501 L 201.5 500 Z " /><path fill="rgb(23,118,242)" stroke="rgb(23,118,242)" stroke-width="1" opacity="0.5098039215686274" d="M 308.5 500 L 311 500.5 L 308.5 501 L 308.5 500 Z " /><path fill="rgb(23,118,242)" stroke="rgb(23,118,242)" stroke-width="1" opacity="0.5098039215686274" d="M 206.5 501 L 210 501.5 L 206.5 502 L 206.5 501 Z " /><path fill="rgb(23,118,242)" stroke="rgb(23,118,242)" stroke-width="1" opacity="0.5098039215686274" d="M 303.5 501 L 306 501.5 L 303.5 502 L 303.5 501 Z " /><path fill="rgb(23,118,242)" stroke="rgb(23,118,242)" stroke-width="1" opacity="0.5098039215686274" d="M 211.5 502 L 216 502.5 L 211.5 503 L 211.5 502 Z " /><path fill="rgb(23,118,242)" stroke="rgb(23,118,242)" stroke-width="1" opacity="0.5098039215686274" d="M 298.5 502 L 301 502.5 L 298.5 503 L 298.5 502 Z " /><path fill="rgb(23,118,242)" stroke="rgb(23,118,242)" stroke-width="1" opacity="0.5098039215686274" d="M 217.5 503 L 222 503.5 L 217.5 504 L 217.5 503 Z " /><path fill="rgb(23,118,242)" stroke="rgb(23,118,242)" stroke-width="1" opacity="0.5098039215686274" d="M 289.5 503 L 295 503.5 L 289.5 504 L 289.5 503 Z " /><path fill="rgb(23,118,242)" stroke="rgb(23,118,242)" stroke-width="1" opacity="0.5098039215686274" d="M 224.5 504 L 231 504.5 L 224.5 505 L 224.5 504 Z " /><path fill="rgb(23,118,242)" stroke="rgb(23,118,242)" stroke-width="1" opacity="0.5098039215686274" d="M 281.5 504 L 288 504.5 L 281.5 505 L 281.5 504 Z " /><path fill="rgb(23,118,242)" stroke="rgb(23,118,242)" stroke-width="1" opacity="0.5098039215686274" d="M 234.5 505 L 245 505.5 L 234.5 506 L 234.5 505 Z " /><path fill="rgb(23,118,242)" stroke="rgb(23,118,242)" stroke-width="1" opacity="0.5098039215686274" d="M 267.5 505 L 278 505.5 L 267.5 506 L 267.5 505 Z " /><path fill="rgb(0,0,0)" stroke="rgb(0,0,0)" stroke-width="1" opacity="0" d="M 0 0 L 512 0 L 512 512 L 0 512 L 0 0 Z M 235 6 L 234 7 L 225 7 L 224 8 L 212 9 L 186 15 L 156 26 Q 117 43 88 70 Q 49 105 26 156 L 15 186 L 9 212 L 7 233 L 6 234 L 6 278 L 7 279 L 7 288 L 11 311 L 20 342 Q 38 390 70 425 Q 105 463 156 486 L 190 498 L 212 503 L 224 504 L 225 505 L 234 505 L 235 506 L 278 506 L 279 505 L 288 505 L 311 501 L 342 492 Q 390 474 425 442 Q 463 407 486 357 L 498 323 L 503 301 L 504 289 L 505 288 L 505 279 L 506 278 L 506 235 L 505 234 L 505 225 L 501 202 L 492 171 Q 474 122 442 88 Q 405 46 350 23 L 327 15 L 295 8 L 279 7 L 278 6 L 235 6 Z " /><path fill="rgb(24,119,241)" stroke="rgb(24,119,241)" stroke-width="1" opacity="0.996078431372549" d="M 245.5 6 L 254 6.5 L 245.5 7 L 245.5 6 Z " /><path fill="rgb(24,119,241)" stroke="rgb(24,119,241)" stroke-width="1" opacity="0.996078431372549" d="M 258.5 6 L 267 6.5 L 258.5 7 L 258.5 6 Z " /><path fill="rgb(24,119,241)" stroke="rgb(24,119,241)" stroke-width="1" opacity="0.996078431372549" d="M 231.5 7 L 234 7.5 L 231.5 8 L 231.5 7 Z " /><path fill="rgb(24,119,241)" stroke="rgb(24,119,241)" stroke-width="1" opacity="0.996078431372549" d="M 278.5 7 L 281 7.5 L 278.5 8 L 278.5 7 Z " /><path fill="rgb(24,119,241)" stroke="rgb(24,119,241)" stroke-width="1" opacity="0.996078431372549" d="M 131.5 39 L 130.5 41 L 131.5 39 Z " /><path fill="rgb(24,119,241)" stroke="rgb(24,119,241)" stroke-width="1" opacity="0.996078431372549" d="M 380.5 39 L 381.5 41 L 380.5 39 Z " /><path fill="rgb(24,119,241)" stroke="rgb(24,119,241)" stroke-width="1" opacity="0.996078431372549" d="M 126.5 42 L 125.5 44 L 126.5 42 Z " /><path fill="rgb(24,119,241)" stroke="rgb(24,119,241)" stroke-width="1" opacity="0.996078431372549" d="M 393.5 47 L 394.5 49 L 393.5 47 Z " /><path fill="rgb(24,119,241)" stroke="rgb(24,119,241)" stroke-width="1" opacity="0.996078431372549" d="M 115.5 49 L 114.5 51 L 115.5 49 Z " /><path fill="rgb(24,119,241)" stroke="rgb(24,119,241)" stroke-width="1" opacity="0.996078431372549" d="M 396.5 49 L 397.5 51 L 396.5 49 Z " /><path fill="rgb(24,119,241)" stroke="rgb(24,119,241)" stroke-width="1" opacity="0.996078431372549" d="M 111.5 52 L 110.5 54 L 111.5 52 Z " /><path fill="rgb(24,119,241)" stroke="rgb(24,119,241)" stroke-width="1" opacity="0.996078431372549" d="M 400.5 52 L 401.5 54 L 400.5 52 Z " /><path fill="rgb(24,119,241)" stroke="rgb(24,119,241)" stroke-width="1" opacity="0.996078431372549" d="M 108.5 54 L 107.5 56 L 108.5 54 Z " /><path fill="rgb(24,119,241)" stroke="rgb(24,119,241)" stroke-width="1" opacity="0.996078431372549" d="M 403.5 54 L 404.5 56 L 403.5 54 Z " /><path fill="rgb(24,119,241)" stroke="rgb(24,119,241)" stroke-width="1" opacity="0.996078431372549" d="M 104.5 57 L 102.5 60 L 104.5 57 Z " /><path fill="rgb(24,119,241)" stroke="rgb(24,119,241)" stroke-width="1" opacity="0.996078431372549" d="M 407.5 57 L 409.5 60 L 407.5 57 Z " /><path fill="rgb(24,119,241)" stroke="rgb(24,119,241)" stroke-width="1" opacity="0.996078431372549" d="M 99.5 61 L 97.5 64 L 99.5 61 Z " /><path fill="rgb(24,119,241)" stroke="rgb(24,119,241)" stroke-width="1" opacity="0.996078431372549" d="M 412.5 61 L 414.5 64 L 412.5 61 Z " /><path fill="rgb(24,119,241)" stroke="rgb(24,119,241)" stroke-width="1" opacity="0.996078431372549" d="M 417.5 65 L 421.5 70 L 417.5 65 Z " /><path fill="rgb(24,119,241)" stroke="rgb(24,119,241)" stroke-width="1" opacity="0.996078431372549" d="M 93.5 66 L 90.5 70 L 93.5 66 Z " /><path fill="rgb(24,119,241)" stroke="rgb(24,119,241)" stroke-width="1" opacity="0.996078431372549" d="M 84.5 74 L 74.5 85 L 84.5 74 Z " /><path fill="rgb(24,119,241)" stroke="rgb(24,119,241)" stroke-width="1" opacity="0.996078431372549" d="M 427.5 74 L 437.5 85 L 427.5 74 Z " /><path fill="rgb(24,119,241)" stroke="rgb(24,119,241)" stroke-width="1" opacity="0.996078431372549" d="M 286.5 86 L 293 86.5 L 286.5 87 L 286.5 86 Z " /><path fill="rgb(24,119,241)" stroke="rgb(24,119,241)" stroke-width="1" opacity="0.996078431372549" d="M 306.5 86 L 322 86.5 L 306.5 87 L 306.5 86 Z " /><path fill="rgb(24,119,241)" stroke="rgb(24,119,241)" stroke-width="1" opacity="0.996078431372549" d="M 279.5 87 L 282 87.5 L 279.5 88 L 279.5 87 Z " /><path fill="rgb(24,119,241)" stroke="rgb(24,119,241)" stroke-width="1" opacity="0.996078431372549" d="M 329.5 87 L 336 87.5 L 329.5 88 L 329.5 87 Z " /><path fill="rgb(24,119,241)" stroke="rgb(24,119,241)" stroke-width="1" opacity="0.996078431372549" d="M 274.5 88 L 277 88.5 L 274.5 89 L 274.5 88 Z " /><path fill="rgb(24,119,241)" stroke="rgb(24,119,241)" stroke-width="1" opacity="0.996078431372549" d="M 341.5 88 L 344.5 88 L 504.5 248 L 505.5 245 L 506 249.5 L 344.5 89 Q 340.5 89.8 341.5 88 Z " /><path fill="rgb(24,119,241)" stroke="rgb(24,119,241)" stroke-width="1" opacity="0.996078431372549" d="M 270.5 89 L 273 89.5 L 270.5 90 L 270.5 89 Z " /><path fill="rgb(24,119,241)" stroke="rgb(24,119,241)" stroke-width="1" opacity="0.996078431372549" d="M 69.5 90 L 66.5 94 L 69.5 90 Z " /><path fill="rgb(24,119,241)" stroke="rgb(24,119,241)" stroke-width="1" opacity="0.996078431372549" d="M 442.5 90 L 446.5 95 L 442.5 90 Z " /><path fill="rgb(24,119,241)" stroke="rgb(24,119,241)" stroke-width="1" opacity="0.996078431372549" d="M 264.5 91 L 266 91.5 L 262.5 93 L 262.5 92 L 264.5 91 Z " /><path fill="rgb(24,119,241)" stroke="rgb(24,119,241)" stroke-width="1" opacity="0.996078431372549" d="M 254.5 96 L 253.5 98 L 251.5 99 L 252.5 97 L 254.5 96 Z " /><path fill="rgb(24,119,241)" stroke="rgb(24,119,241)" stroke-width="1" opacity="0.996078431372549" d="M 63.5 97 L 61.5 100 L 63.5 97 Z " /><path fill="rgb(24,119,241)" stroke="rgb(24,119,241)" stroke-width="1" opacity="0.996078431372549" d="M 448.5 97 L 450.5 100 L 448.5 97 Z " /><path fill="rgb(24,119,241)" stroke="rgb(24,119,241)" stroke-width="1" opacity="0.996078431372549" d="M 249.5 99 L 247.5 102 L 249.5 99 Z " /><path fill="rgb(24,119,241)" stroke="rgb(24,119,241)" stroke-width="1" opacity="0.996078431372549" d="M 59.5 102 L 57.5 105 L 59.5 102 Z " /><path fill="rgb(24,119,241)" stroke="rgb(24,119,241)" stroke-width="1" opacity="0.996078431372549" d="M 245.5 102 L 236.5 112 L 245.5 102 Z " /><path fill="rgb(24,119,241)" stroke="rgb(24,119,241)" stroke-width="1" opacity="0.996078431372549" d="M 452.5 102 L 454.5 105 L 452.5 102 Z " /><path fill="rgb(24,119,241)" stroke="rgb(24,119,241)" stroke-width="1" opacity="0.996078431372549" d="M 55.5 107 L 54.5 109 L 55.5 107 Z " /><path fill="rgb(24,119,241)" stroke="rgb(24,119,241)" stroke-width="1" opacity="0.996078431372549" d="M 456.5 107 L 457.5 109 L 456.5 107 Z " /><path fill="rgb(24,119,241)" stroke="rgb(24,119,241)" stroke-width="1" opacity="0.996078431372549" d="M 53.5 110 L 52.5 112 L 53.5 110 Z " /><path fill="rgb(24,119,241)" stroke="rgb(24,119,241)" stroke-width="1" opacity="0.996078431372549" d="M 458.5 110 L 459.5 112 L 458.5 110 Z " /><path fill="rgb(24,119,241)" stroke="rgb(24,119,241)" stroke-width="1" opacity="0.996078431372549" d="M 235.5 113 L 233.5 116 L 235.5 113 Z " /><path fill="rgb(24,119,241)" stroke="rgb(24,119,241)" stroke-width="1" opacity="0.996078431372549" d="M 50.5 114 L 49.5 116 L 50.5 114 Z " /><path fill="rgb(24,119,241)" stroke="rgb(24,119,241)" stroke-width="1" opacity="0.996078431372549" d="M 461.5 114 L 462.5 116 L 461.5 114 Z " /><path fill="rgb(24,119,241)" stroke="rgb(24,119,241)" stroke-width="1" opacity="0.996078431372549" d="M 48.5 117 L 47.5 119 L 48.5 117 Z " /><path fill="rgb(24,119,241)" stroke="rgb(24,119,241)" stroke-width="1" opacity="0.996078431372549" d="M 232.5 117 L 232 118.5 L 230.5 121 L 231 119.5 L 232.5 117 Z " /><path fill="rgb(24,119,241)" stroke="rgb(24,119,241)" stroke-width="1" opacity="0.996078431372549" d="M 463.5 117 L 464.5 119 L 463.5 117 Z " /><path fill="rgb(24,119,241)" stroke="rgb(24,119,241)" stroke-width="1" opacity="0.996078431372549" d="M 43.5 125 L 42.5 127 L 43.5 125 Z " /><path fill="rgb(24,119,241)" stroke="rgb(24,119,241)" stroke-width="1" opacity="0.996078431372549" d="M 468.5 125 L 469.5 127 L 468.5 125 Z " /><path fill="rgb(24,119,241)" stroke="rgb(24,119,241)" stroke-width="1" opacity="0.996078431372549" d="M 226.5 128 L 227 129.5 L 225.5 132 L 225 130.5 L 226.5 128 Z " /><path fill="rgb(24,119,241)" stroke="rgb(24,119,241)" stroke-width="1" opacity="0.996078431372549" d="M 40.5 130 L 39.5 132 L 40.5 130 Z " /><path fill="rgb(24,119,241)" stroke="rgb(24,119,241)" stroke-width="1" opacity="0.996078431372549" d="M 471.5 130 L 472.5 132 L 471.5 130 Z " /><path fill="rgb(24,119,241)" stroke="rgb(24,119,241)" stroke-width="1" opacity="0.996078431372549" d="M 221.5 144 L 222 146.5 L 221 146.5 L 221.5 144 Z " /><path fill="rgb(24,119,241)" stroke="rgb(24,119,241)" stroke-width="1" opacity="0.996078431372549" d="M 220.5 150 L 221 154.5 L 220 154.5 L 220.5 150 Z " /><path fill="rgb(24,119,241)" stroke="rgb(24,119,241)" stroke-width="1" opacity="0.996078431372549" d="M 219.5 161 L 220 211 L 168 211 L 168 270.5 L 167 270.5 L 167 211.5 L 168.5 210 L 219 210 L 219.5 161 Z " /><path fill="rgb(24,119,241)" stroke="rgb(24,119,241)" stroke-width="1" opacity="0.996078431372549" d="M 7.5 231 L 8 233.5 L 7 233.5 L 7.5 231 Z " /><path fill="rgb(24,119,241)" stroke="rgb(24,119,241)" stroke-width="1" opacity="0.996078431372549" d="M 504.5 231 L 505 233.5 L 504 233.5 L 504.5 231 Z " /><path fill="rgb(24,119,241)" stroke="rgb(24,119,241)" stroke-width="1" opacity="0.996078431372549" d="M 6.5 245 L 7 266.5 L 6 266.5 L 6.5 245 Z " /><path fill="rgb(24,119,241)" stroke="rgb(24,119,241)" stroke-width="1" opacity="0.996078431372549" d="M 7.5 278 L 8 280.5 L 7 280.5 L 7.5 278 Z " /><path fill="rgb(24,119,241)" stroke="rgb(24,119,241)" stroke-width="1" opacity="0.996078431372549" d="M 219.5 323 L 220 425.5 L 296 501.5 L 296 503 L 294 502.5 L 295 501.5 L 219 425.5 L 219.5 323 Z " /><path fill="rgb(24,119,241)" stroke="rgb(24,119,241)" stroke-width="1" opacity="0.996078431372549" d="M 39.5 380 L 40.5 382 L 39.5 380 Z " /><path fill="rgb(24,119,241)" stroke="rgb(24,119,241)" stroke-width="1" opacity="0.996078431372549" d="M 42.5 385 L 43.5 387 L 42.5 385 Z " /><path fill="rgb(24,119,241)" stroke="rgb(24,119,241)" stroke-width="1" opacity="0.996078431372549" d="M 47.5 393 L 48.5 395 L 47.5 393 Z " /><path fill="rgb(24,119,241)" stroke="rgb(24,119,241)" stroke-width="1" opacity="0.996078431372549" d="M 49.5 396 L 50.5 398 L 49.5 396 Z " /><path fill="rgb(24,119,241)" stroke="rgb(24,119,241)" stroke-width="1" opacity="0.996078431372549" d="M 52.5 400 L 53.5 402 L 52.5 400 Z " /><path fill="rgb(24,119,241)" stroke="rgb(24,119,241)" stroke-width="1" opacity="0.996078431372549" d="M 54.5 403 L 55.5 405 L 54.5 403 Z " /><path fill="rgb(24,119,241)" stroke="rgb(24,119,241)" stroke-width="1" opacity="0.996078431372549" d="M 57.5 407 L 59.5 410 L 57.5 407 Z " /><path fill="rgb(24,119,241)" stroke="rgb(24,119,241)" stroke-width="1" opacity="0.996078431372549" d="M 61.5 412 L 63.5 415 L 61.5 412 Z " /><path fill="rgb(24,119,241)" stroke="rgb(24,119,241)" stroke-width="1" opacity="0.996078431372549" d="M 66.5 418 L 69.5 422 L 66.5 418 Z " /><path fill="rgb(24,119,241)" stroke="rgb(24,119,241)" stroke-width="1" opacity="0.996078431372549" d="M 74.5 427 L 83.5 437 L 74.5 427 Z " /><path fill="rgb(24,119,241)" stroke="rgb(24,119,241)" stroke-width="1" opacity="0.996078431372549" d="M 90.5 442 L 93.5 446 L 90.5 442 Z " /><path fill="rgb(24,119,241)" stroke="rgb(24,119,241)" stroke-width="1" opacity="0.996078431372549" d="M 97.5 448 L 99.5 451 L 97.5 448 Z " /><path fill="rgb(24,119,241)" stroke="rgb(24,119,241)" stroke-width="1" opacity="0.996078431372549" d="M 102.5 452 L 104.5 455 L 102.5 452 Z " /><path fill="rgb(24,119,241)" stroke="rgb(24,119,241)" stroke-width="1" opacity="0.996078431372549" d="M 107.5 456 L 108.5 458 L 107.5 456 Z " /><path fill="rgb(24,119,241)" stroke="rgb(24,119,241)" stroke-width="1" opacity="0.996078431372549" d="M 110.5 458 L 111.5 460 L 110.5 458 Z " /><path fill="rgb(24,119,241)" stroke="rgb(24,119,241)" stroke-width="1" opacity="0.996078431372549" d="M 114.5 461 L 115.5 463 L 114.5 461 Z " /><path fill="rgb(24,119,241)" stroke="rgb(24,119,241)" stroke-width="1" opacity="0.996078431372549" d="M 125.5 468 L 126.5 470 L 125.5 468 Z " /><path fill="rgb(24,119,241)" stroke="rgb(24,119,241)" stroke-width="1" opacity="0.996078431372549" d="M 231.5 504 L 234 504.5 L 231.5 505 L 231.5 504 Z " /><path fill="rgb(24,119,241)" stroke="rgb(24,119,241)" stroke-width="1" opacity="0.996078431372549" d="M 278.5 504 L 281 504.5 L 278.5 505 L 278.5 504 Z " /><path fill="rgb(24,119,241)" stroke="rgb(24,119,241)" stroke-width="1" opacity="0.996078431372549" d="M 245.5 505 L 254 505.5 L 245.5 506 L 245.5 505 Z " /><path fill="rgb(24,119,241)" stroke="rgb(24,119,241)" stroke-width="1" opacity="0.996078431372549" d="M 258.5 505 L 267 505.5 L 258.5 506 L 258.5 505 Z " /><path fill="rgb(24,119,242)" stroke="rgb(24,119,242)" stroke-width="1" opacity="1" d="M 254.5 6 L 258.5 7 L 277.5 7 L 278.5 8 L 287.5 8 L 288.5 9 L 305.5 11 L 325.5 16 L 360.5 29 Q 408.6 51.9 442 89.5 Q 472.2 122.8 490 168.5 L 501 206.5 L 503 224.5 L 504 225.5 L 504 233.5 L 505 234.5 L 505 247.5 L 344.5 88 L 322.5 87 L 321.5 86 L 286.5 86 L 270.5 89 L 252.5 97 L 236 111.5 Q 225 124.5 221 144.5 L 220 160.5 L 219 161.5 L 219 210 L 168.5 210 L 167 211.5 L 167 270.5 L 170 275 L 176 279.5 Q 175.3 281.8 177.5 281 L 182 287 L 183.5 287 L 219 322.5 L 219 425.5 L 295 501.5 L 293.5 503 Q 288 501.5 286.5 504 L 254.5 506 L 253.5 505 L 224.5 504 L 197.5 499 L 168.5 490 L 149.5 482 Q 102.7 459.3 70 422.5 Q 39.8 389.2 22 343.5 L 14 318.5 L 8 287.5 L 8 278.5 L 7 277.5 L 7 234.5 L 8 233.5 L 8 224.5 Q 11 217 11 206.5 L 16 186.5 Q 23.2 162.2 34 141.5 Q 55.9 99.9 89.5 70 Q 122.8 39.8 168.5 22 L 206.5 11 L 211.5 11 L 224.5 8 L 253.5 7 L 254.5 6 Z " /><path fill="rgb(26,78,144)" stroke="rgb(26,78,144)" stroke-width="1" opacity="1" d="M 344.5 90 L 406 152.5 L 342 215.5 L 343 210 L 283 210 L 283 162.5 Q 284.8 152.8 291.5 148 L 294.5 146 L 306.5 143 L 344 143 L 344.5 90 Z " /><path fill="rgb(26,78,144)" stroke="rgb(26,78,144)" stroke-width="1" opacity="1" d="M 170.5 272 L 219 272 L 219 320.5 L 170.5 272 Z " /><path fill="rgb(26,78,144)" stroke="rgb(26,78,144)" stroke-width="1" opacity="1" d="M 283 272 L 286 272.5 L 283 274.5 L 283 272 Z " /><path fill="rgb(63,118,190)" stroke="rgb(63,118,190)" stroke-width="1" opacity="0.7490196078431373" d="M 282.5 167 L 283 171.5 L 282 171.5 L 282.5 167 Z " /><path fill="rgb(63,118,190)" stroke="rgb(63,118,190)" stroke-width="1" opacity="0.7490196078431373" d="M 283.5 210 L 342 210.5 L 283.5 211 L 283.5 210 Z " /><path fill="rgb(63,118,190)" stroke="rgb(63,118,190)" stroke-width="1" opacity="0.7490196078431373" d="M 282.5 271 L 283 425.5 L 282 425.5 L 282.5 271 Z " /><path fill="rgb(63,118,190)" stroke="rgb(63,118,190)" stroke-width="1" opacity="0.7490196078431373" d="M 441.5 423 L 438.5 427 L 441.5 423 Z " /><path fill="rgb(63,118,190)" stroke="rgb(63,118,190)" stroke-width="1" opacity="0.7490196078431373" d="M 425.5 439 L 423.5 442 L 425.5 439 Z " /><path fill="rgb(63,118,190)" stroke="rgb(63,118,190)" stroke-width="1" opacity="0.7490196078431373" d="M 417.5 446 L 416.5 448 L 417.5 446 Z " /><path fill="rgb(26,81,153)" stroke="rgb(26,81,153)" stroke-width="1" opacity="0.996078431372549" d="M 406.5 152 L 468 213.5 L 283.5 398 L 283 275.5 L 286.5 272 L 333.5 272 L 335 270.5 L 342 216.5 L 406.5 152 Z " /><path fill="rgb(26,81,153)" stroke="rgb(26,81,153)" stroke-width="1" opacity="0.996078431372549" d="M 169.5 271 L 180 271.5 L 169.5 272 L 169.5 271 Z " /><path fill="rgb(26,81,153)" stroke="rgb(26,81,153)" stroke-width="1" opacity="0.996078431372549" d="M 185.5 271 L 195 271.5 L 185.5 272 L 185.5 271 Z " /><path fill="rgb(26,81,153)" stroke="rgb(26,81,153)" stroke-width="1" opacity="0.996078431372549" d="M 219.5 272 L 220 307.5 L 219 307.5 L 219.5 272 Z " /><path fill="rgb(26,81,153)" stroke="rgb(26,81,153)" stroke-width="1" opacity="0.996078431372549" d="M 221.5 426 L 255 426.5 L 238.5 443 L 230.5 435 L 221.5 426 Z " /><path fill="rgb(25,87,166)" stroke="rgb(25,87,166)" stroke-width="1" opacity="0.996078431372549" d="M 344.5 89 L 406.5 152 L 344.5 89 Z " /><path fill="rgb(25,87,166)" stroke="rgb(25,87,166)" stroke-width="1" opacity="0.996078431372549" d="M 408.5 153 L 410.5 156 L 408.5 153 Z " /><path fill="rgb(25,87,166)" stroke="rgb(25,87,166)" stroke-width="1" opacity="0.996078431372549" d="M 412.5 157 L 415.5 161 L 412.5 157 Z " /><path fill="rgb(25,87,166)" stroke="rgb(25,87,166)" stroke-width="1" opacity="0.996078431372549" d="M 419.5 164 L 420.5 166 L 419.5 164 Z " /><path fill="rgb(25,87,166)" stroke="rgb(25,87,166)" stroke-width="1" opacity="0.996078431372549" d="M 422.5 167 L 429.5 175 L 422.5 167 Z " /><path fill="rgb(25,87,166)" stroke="rgb(25,87,166)" stroke-width="1" opacity="0.996078431372549" d="M 467.5 214 L 505 250.5 L 505 255.5 L 278.5 482 L 270.5 476 L 230 435.5 L 238.5 443 L 255.5 426 L 283 426 L 283 398.5 L 467.5 214 Z " /><path fill="rgb(25,87,166)" stroke="rgb(25,87,166)" stroke-width="1" opacity="0.996078431372549" d="M 180.5 271 L 185 271.5 L 180.5 272 L 180.5 271 Z " /><path fill="rgb(25,87,166)" stroke="rgb(25,87,166)" stroke-width="1" opacity="0.996078431372549" d="M 195.5 271 L 220 271.5 L 195.5 272 L 195.5 271 Z " /><path fill="rgb(25,87,166)" stroke="rgb(25,87,166)" stroke-width="1" opacity="0.996078431372549" d="M 283.5 271 L 334 271.5 L 283.5 272 L 283.5 271 Z " /><path fill="rgb(25,87,166)" stroke="rgb(25,87,166)" stroke-width="1" opacity="0.996078431372549" d="M 219.5 308 L 220 321.5 L 219 321.5 L 219.5 308 Z " /><path fill="rgb(25,92,178)" stroke="rgb(25,92,178)" stroke-width="1" opacity="0.996078431372549" d="M 282.5 172 L 283 209.5 L 282 209.5 L 282.5 172 Z " /><path fill="rgb(25,92,178)" stroke="rgb(25,92,178)" stroke-width="1" opacity="0.996078431372549" d="M 430.5 175 L 506 250.5 L 506 269.5 L 505 270.5 L 505 282.5 L 504 283.5 L 503 296.5 L 497 323.5 Q 490.5 346 481 365.5 Q 459.7 408.2 426.5 439 Q 399.2 464.7 363.5 482 L 323.5 497 L 301.5 502 L 296.5 502 L 271.5 476 L 278.5 482 L 505 255.5 L 505 250.5 L 430.5 175 Z " /><path fill="rgb(25,92,178)" stroke="rgb(25,92,178)" stroke-width="1" opacity="0.996078431372549" d="M 168.5 271 L 219.5 323 L 168.5 271 Z " /></svg>