<svg width="512" height="512" version="1.1" xmlns="http://www.w3.org/2000/svg" desc="Created with imagetracer.js version 1.2.6" ><path fill="rgb(255,0,0)" stroke="rgb(255,0,0)" stroke-width="1" opacity="0.5215686274509804" d="M 185.5 77 L 225 77.5 L 185.5 78 L 185.5 77 Z " /><path fill="rgb(255,0,0)" stroke="rgb(255,0,0)" stroke-width="1" opacity="0.5215686274509804" d="M 286.5 77 L 325 77.5 L 286.5 78 L 286.5 77 Z " /><path fill="rgb(255,0,0)" stroke="rgb(255,0,0)" stroke-width="1" opacity="0.5215686274509804" d="M 153.5 78 L 174 78.5 L 153.5 79 L 153.5 78 Z " /><path fill="rgb(255,0,0)" stroke="rgb(255,0,0)" stroke-width="1" opacity="0.5215686274509804" d="M 336.5 78 L 359 78.5 L 336.5 79 L 336.5 78 Z " /><path fill="rgb(255,0,0)" stroke="rgb(255,0,0)" stroke-width="1" opacity="0.5215686274509804" d="M 128.5 79 L 146 79.5 L 128.5 80 L 128.5 79 Z " /><path fill="rgb(255,0,0)" stroke="rgb(255,0,0)" stroke-width="1" opacity="0.5215686274509804" d="M 365.5 79 L 381 79.5 L 365.5 80 L 365.5 79 Z " /><path fill="rgb(255,0,0)" stroke="rgb(255,0,0)" stroke-width="1" opacity="0.5215686274509804" d="M 111.5 80 L 124 80.5 L 111.5 81 L 111.5 80 Z " /><path fill="rgb(255,0,0)" stroke="rgb(255,0,0)" stroke-width="1" opacity="0.5215686274509804" d="M 386.5 80 L 399 80.5 L 386.5 81 L 386.5 80 Z " /><path fill="rgb(255,0,0)" stroke="rgb(255,0,0)" stroke-width="1" opacity="0.5215686274509804" d="M 97.5 81 L 107 81.5 L 97.5 82 L 97.5 81 Z " /><path fill="rgb(255,0,0)" stroke="rgb(255,0,0)" stroke-width="1" opacity="0.5215686274509804" d="M 402.5 81 L 413 81.5 L 402.5 82 L 402.5 81 Z " /><path fill="rgb(255,0,0)" stroke="rgb(255,0,0)" stroke-width="1" opacity="0.5215686274509804" d="M 86.5 82 L 94 82.5 L 86.5 83 L 86.5 82 Z " /><path fill="rgb(255,0,0)" stroke="rgb(255,0,0)" stroke-width="1" opacity="0.5215686274509804" d="M 415.5 82 L 424 82.5 L 415.5 83 L 415.5 82 Z " /><path fill="rgb(255,0,0)" stroke="rgb(255,0,0)" stroke-width="1" opacity="0.5215686274509804" d="M 76.5 83 L 84 83.5 L 76.5 84 L 76.5 83 Z " /><path fill="rgb(255,0,0)" stroke="rgb(255,0,0)" stroke-width="1" opacity="0.5215686274509804" d="M 427.5 83 L 434 83.5 L 427.5 84 L 427.5 83 Z " /><path fill="rgb(255,0,0)" stroke="rgb(255,0,0)" stroke-width="1" opacity="0.5215686274509804" d="M 69.5 84 L 75 84.5 L 69.5 85 L 69.5 84 Z " /><path fill="rgb(255,0,0)" stroke="rgb(255,0,0)" stroke-width="1" opacity="0.5215686274509804" d="M 435.5 84 L 441 84.5 L 435.5 85 L 435.5 84 Z " /><path fill="rgb(255,0,0)" stroke="rgb(255,0,0)" stroke-width="1" opacity="0.5215686274509804" d="M 63.5 85 L 68 85.5 L 63.5 86 L 63.5 85 Z " /><path fill="rgb(255,0,0)" stroke="rgb(255,0,0)" stroke-width="1" opacity="0.5215686274509804" d="M 442.5 85 L 448 85.5 L 442.5 86 L 442.5 85 Z " /><path fill="rgb(255,0,0)" stroke="rgb(255,0,0)" stroke-width="1" opacity="0.5215686274509804" d="M 58.5 86 L 62 86.5 L 58.5 87 L 58.5 86 Z " /><path fill="rgb(255,0,0)" stroke="rgb(255,0,0)" stroke-width="1" opacity="0.5215686274509804" d="M 449.5 86 Q 458.9 86.6 465 90.5 L 463.5 91 Q 458.1 87.4 449.5 87 L 449.5 86 Z " /><path fill="rgb(255,0,0)" stroke="rgb(255,0,0)" stroke-width="1" opacity="0.5215686274509804" d="M 54.5 87 L 57 87.5 L 54.5 88 L 54.5 87 Z " /><path fill="rgb(255,0,0)" stroke="rgb(255,0,0)" stroke-width="1" opacity="0.5215686274509804" d="M 51.5 88 L 53 88.5 Q 36.5 94 26 105.5 Q 15 116.5 10.5 134 L 10 131.5 Q 16.3 111.8 30.5 100 Q 39.1 92.1 51.5 88 Z " /><path fill="rgb(255,0,0)" stroke="rgb(255,0,0)" stroke-width="1" opacity="0.5215686274509804" d="M 466.5 91 Q 480.2 96.8 489 107.5 Q 498.2 117.8 502 133.5 L 501 133.5 Q 496.5 115 484.5 104 Q 477.1 96.4 466.5 92 L 466.5 91 Z " /><path fill="rgb(255,0,0)" stroke="rgb(255,0,0)" stroke-width="1" opacity="0.5215686274509804" d="M 9.5 135 L 10 138.5 L 8.5 143 L 8 139.5 L 9.5 135 Z " /><path fill="rgb(255,0,0)" stroke="rgb(255,0,0)" stroke-width="1" opacity="0.5215686274509804" d="M 502.5 135 L 504 142.5 L 503 142.5 L 502.5 135 Z " /><path fill="rgb(255,0,0)" stroke="rgb(255,0,0)" stroke-width="1" opacity="0.5215686274509804" d="M 7.5 144 L 8 148.5 L 7 148.5 L 7.5 144 Z " /><path fill="rgb(255,0,0)" stroke="rgb(255,0,0)" stroke-width="1" opacity="0.5215686274509804" d="M 504.5 144 L 505 147.5 L 504 147.5 L 504.5 144 Z " /><path fill="rgb(255,0,0)" stroke="rgb(255,0,0)" stroke-width="1" opacity="0.5215686274509804" d="M 505.5 149 L 506 154.5 L 505 154.5 L 505.5 149 Z " /><path fill="rgb(255,0,0)" stroke="rgb(255,0,0)" stroke-width="1" opacity="0.5215686274509804" d="M 6.5 150 L 7 154.5 L 6 154.5 L 6.5 150 Z " /><path fill="rgb(255,0,0)" stroke="rgb(255,0,0)" stroke-width="1" opacity="0.5215686274509804" d="M 506.5 156 L 507 161.5 L 506 161.5 L 506.5 156 Z " /><path fill="rgb(255,0,0)" stroke="rgb(255,0,0)" stroke-width="1" opacity="0.5215686274509804" d="M 5.5 157 L 6 162.5 L 5 162.5 L 5.5 157 Z " /><path fill="rgb(255,0,0)" stroke="rgb(255,0,0)" stroke-width="1" opacity="0.5215686274509804" d="M 507.5 163 L 508 169.5 L 507 169.5 L 507.5 163 Z " /><path fill="rgb(255,0,0)" stroke="rgb(255,0,0)" stroke-width="1" opacity="0.5215686274509804" d="M 4.5 164 L 5 170.5 L 4 170.5 L 4.5 164 Z " /><path fill="rgb(255,0,0)" stroke="rgb(255,0,0)" stroke-width="1" opacity="0.5215686274509804" d="M 508.5 172 L 509 179.5 L 508 179.5 L 508.5 172 Z " /><path fill="rgb(255,0,0)" stroke="rgb(255,0,0)" stroke-width="1" opacity="0.5215686274509804" d="M 3.5 173 L 4 181.5 L 3 181.5 L 3.5 173 Z " /><path fill="rgb(255,0,0)" stroke="rgb(255,0,0)" stroke-width="1" opacity="0.5215686274509804" d="M 509.5 182 L 510 191.5 L 509 191.5 L 509.5 182 Z " /><path fill="rgb(255,0,0)" stroke="rgb(255,0,0)" stroke-width="1" opacity="0.5215686274509804" d="M 2.5 184 L 3 194.5 L 2 194.5 L 2.5 184 Z " /><path fill="rgb(255,0,0)" stroke="rgb(255,0,0)" stroke-width="1" opacity="0.5215686274509804" d="M 510.5 196 L 511 208.5 L 510 208.5 L 510.5 196 Z " /><path fill="rgb(255,0,0)" stroke="rgb(255,0,0)" stroke-width="1" opacity="0.5215686274509804" d="M 1.5 198 L 2 211.5 L 1 211.5 L 1.5 198 Z " /><path fill="rgb(255,0,0)" stroke="rgb(255,0,0)" stroke-width="1" opacity="0.5215686274509804" d="M 511.5 214 L 512 237.5 L 511 237.5 L 511.5 214 Z " /><path fill="rgb(255,0,0)" stroke="rgb(255,0,0)" stroke-width="1" opacity="0.5215686274509804" d="M 0.5 217 L 1 239.5 L 0 239.5 L 0.5 217 Z " /><path fill="rgb(255,0,0)" stroke="rgb(255,0,0)" stroke-width="1" opacity="0.5215686274509804" d="M 0.5 273 L 1 295.5 L 0 295.5 L 0.5 273 Z " /><path fill="rgb(255,0,0)" stroke="rgb(255,0,0)" stroke-width="1" opacity="0.5215686274509804" d="M 511.5 273 L 512 295.5 L 511 295.5 L 511.5 273 Z " /><path fill="rgb(255,0,0)" stroke="rgb(255,0,0)" stroke-width="1" opacity="0.5215686274509804" d="M 1.5 301 L 2 313.5 L 1 313.5 L 1.5 301 Z " /><path fill="rgb(255,0,0)" stroke="rgb(255,0,0)" stroke-width="1" opacity="0.5215686274509804" d="M 510.5 301 L 511 313.5 L 510 313.5 L 510.5 301 Z " /><path fill="rgb(255,0,0)" stroke="rgb(255,0,0)" stroke-width="1" opacity="0.5215686274509804" d="M 2.5 318 L 3 327.5 L 2 327.5 L 2.5 318 Z " /><path fill="rgb(255,0,0)" stroke="rgb(255,0,0)" stroke-width="1" opacity="0.5215686274509804" d="M 509.5 318 L 510 327.5 L 509 327.5 L 509.5 318 Z " /><path fill="rgb(255,0,0)" stroke="rgb(255,0,0)" stroke-width="1" opacity="0.5215686274509804" d="M 3.5 331 L 4 338.5 L 3 338.5 L 3.5 331 Z " /><path fill="rgb(255,0,0)" stroke="rgb(255,0,0)" stroke-width="1" opacity="0.5215686274509804" d="M 508.5 331 L 509 338.5 L 508 338.5 L 508.5 331 Z " /><path fill="rgb(255,0,0)" stroke="rgb(255,0,0)" stroke-width="1" opacity="0.5215686274509804" d="M 4.5 341 L 5 347.5 L 4 347.5 L 4.5 341 Z " /><path fill="rgb(255,0,0)" stroke="rgb(255,0,0)" stroke-width="1" opacity="0.5215686274509804" d="M 507.5 341 L 508 347.5 L 507 347.5 L 507.5 341 Z " /><path fill="rgb(255,0,0)" stroke="rgb(255,0,0)" stroke-width="1" opacity="0.5215686274509804" d="M 5.5 350 L 6 355.5 L 5 355.5 L 5.5 350 Z " /><path fill="rgb(255,0,0)" stroke="rgb(255,0,0)" stroke-width="1" opacity="0.5215686274509804" d="M 506.5 350 L 507 355.5 L 506 355.5 L 506.5 350 Z " /><path fill="rgb(255,0,0)" stroke="rgb(255,0,0)" stroke-width="1" opacity="0.5215686274509804" d="M 6.5 357 L 7 362.5 L 6 362.5 L 6.5 357 Z " /><path fill="rgb(255,0,0)" stroke="rgb(255,0,0)" stroke-width="1" opacity="0.5215686274509804" d="M 505.5 357 L 506 362.5 L 505 362.5 L 505.5 357 Z " /><path fill="rgb(255,0,0)" stroke="rgb(255,0,0)" stroke-width="1" opacity="0.5215686274509804" d="M 7.5 364 L 8 367.5 L 7 367.5 L 7.5 364 Z " /><path fill="rgb(255,0,0)" stroke="rgb(255,0,0)" stroke-width="1" opacity="0.5215686274509804" d="M 504.5 364 L 505 367.5 L 504 367.5 L 504.5 364 Z " /><path fill="rgb(255,0,0)" stroke="rgb(255,0,0)" stroke-width="1" opacity="0.5215686274509804" d="M 8.5 369 L 9 372.5 L 8 372.5 L 8.5 369 Z " /><path fill="rgb(255,0,0)" stroke="rgb(255,0,0)" stroke-width="1" opacity="0.5215686274509804" d="M 503.5 369 L 504 372.5 L 503 372.5 L 503.5 369 Z " /><path fill="rgb(255,0,0)" stroke="rgb(255,0,0)" stroke-width="1" opacity="0.5215686274509804" d="M 9.5 374 L 10 376.5 L 9 376.5 L 9.5 374 Z " /><path fill="rgb(255,0,0)" stroke="rgb(255,0,0)" stroke-width="1" opacity="0.5215686274509804" d="M 502.5 374 L 503 377.5 L 499.5 387 L 499 385.5 L 502.5 374 Z " /><path fill="rgb(255,0,0)" stroke="rgb(255,0,0)" stroke-width="1" opacity="0.5215686274509804" d="M 10.5 378 L 11 380.5 L 10 380.5 L 10.5 378 Z " /><path fill="rgb(255,0,0)" stroke="rgb(255,0,0)" stroke-width="1" opacity="0.5215686274509804" d="M 12.5 385 Q 18.8 401.7 31.5 412 L 45 420.5 L 43.5 421 Q 30 414 21 402.5 L 14 391.5 L 12.5 385 Z " /><path fill="rgb(255,0,0)" stroke="rgb(255,0,0)" stroke-width="1" opacity="0.5215686274509804" d="M 498.5 388 L 499 389.5 Q 492.8 402.8 482.5 412 Q 472.6 421.1 457.5 425 L 457.5 424 Q 479.6 418.1 491 401.5 L 498.5 388 Z " /><path fill="rgb(255,0,0)" stroke="rgb(255,0,0)" stroke-width="1" opacity="0.5215686274509804" d="M 46.5 421 L 53 423.5 L 50.5 424 L 46.5 422 L 46.5 421 Z " /><path fill="rgb(255,0,0)" stroke="rgb(255,0,0)" stroke-width="1" opacity="0.5215686274509804" d="M 54.5 424 L 61 425.5 L 57.5 426 L 54.5 425 L 54.5 424 Z " /><path fill="rgb(255,0,0)" stroke="rgb(255,0,0)" stroke-width="1" opacity="0.5215686274509804" d="M 453.5 425 L 456 425.5 L 453.5 426 L 453.5 425 Z " /><path fill="rgb(255,0,0)" stroke="rgb(255,0,0)" stroke-width="1" opacity="0.5215686274509804" d="M 62.5 426 L 67 426.5 L 62.5 427 L 62.5 426 Z " /><path fill="rgb(255,0,0)" stroke="rgb(255,0,0)" stroke-width="1" opacity="0.5215686274509804" d="M 448.5 426 L 452 426.5 L 448.5 427 L 448.5 426 Z " /><path fill="rgb(255,0,0)" stroke="rgb(255,0,0)" stroke-width="1" opacity="0.5215686274509804" d="M 68.5 427 L 74 427.5 L 68.5 428 L 68.5 427 Z " /><path fill="rgb(255,0,0)" stroke="rgb(255,0,0)" stroke-width="1" opacity="0.5215686274509804" d="M 441.5 427 L 446 427.5 L 441.5 428 L 441.5 427 Z " /><path fill="rgb(255,0,0)" stroke="rgb(255,0,0)" stroke-width="1" opacity="0.5215686274509804" d="M 75.5 428 L 82 428.5 L 75.5 429 L 75.5 428 Z " /><path fill="rgb(255,0,0)" stroke="rgb(255,0,0)" stroke-width="1" opacity="0.5215686274509804" d="M 433.5 428 L 439 428.5 L 433.5 429 L 433.5 428 Z " /><path fill="rgb(255,0,0)" stroke="rgb(255,0,0)" stroke-width="1" opacity="0.5215686274509804" d="M 84.5 429 L 91 429.5 L 84.5 430 L 84.5 429 Z " /><path fill="rgb(255,0,0)" stroke="rgb(255,0,0)" stroke-width="1" opacity="0.5215686274509804" d="M 424.5 429 L 431 429.5 L 424.5 430 L 424.5 429 Z " /><path fill="rgb(255,0,0)" stroke="rgb(255,0,0)" stroke-width="1" opacity="0.5215686274509804" d="M 94.5 430 L 103 430.5 L 94.5 431 L 94.5 430 Z " /><path fill="rgb(255,0,0)" stroke="rgb(255,0,0)" stroke-width="1" opacity="0.5215686274509804" d="M 411.5 430 L 421 430.5 L 411.5 431 L 411.5 430 Z " /><path fill="rgb(255,0,0)" stroke="rgb(255,0,0)" stroke-width="1" opacity="0.5215686274509804" d="M 106.5 431 L 118 431.5 L 106.5 432 L 106.5 431 Z " /><path fill="rgb(255,0,0)" stroke="rgb(255,0,0)" stroke-width="1" opacity="0.5215686274509804" d="M 397.5 431 L 409 431.5 L 397.5 432 L 397.5 431 Z " /><path fill="rgb(255,0,0)" stroke="rgb(255,0,0)" stroke-width="1" opacity="0.5215686274509804" d="M 122.5 432 L 136 432.5 L 122.5 433 L 122.5 432 Z " /><path fill="rgb(255,0,0)" stroke="rgb(255,0,0)" stroke-width="1" opacity="0.5215686274509804" d="M 378.5 432 L 393 432.5 L 378.5 433 L 378.5 432 Z " /><path fill="rgb(255,0,0)" stroke="rgb(255,0,0)" stroke-width="1" opacity="0.5215686274509804" d="M 142.5 433 L 161 433.5 L 142.5 434 L 142.5 433 Z " /><path fill="rgb(255,0,0)" stroke="rgb(255,0,0)" stroke-width="1" opacity="0.5215686274509804" d="M 352.5 433 L 372 433.5 L 352.5 434 L 352.5 433 Z " /><path fill="rgb(255,0,0)" stroke="rgb(255,0,0)" stroke-width="1" opacity="0.5215686274509804" d="M 168.5 434 L 198 434.5 L 168.5 435 L 168.5 434 Z " /><path fill="rgb(255,0,0)" stroke="rgb(255,0,0)" stroke-width="1" opacity="0.5215686274509804" d="M 315.5 434 L 345 434.5 L 315.5 435 L 315.5 434 Z " /><path fill="rgb(255,0,0)" stroke="rgb(255,0,0)" stroke-width="1" opacity="0.5215686274509804" d="M 211.5 435 L 302 435.5 L 211.5 436 L 211.5 435 Z " /><path fill="rgb(255,0,0)" stroke="rgb(255,0,0)" stroke-width="1" opacity="1" d="M 225.5 77 L 335.5 78 L 336.5 79 L 364.5 79 L 365.5 80 L 385.5 80 L 386.5 81 L 401.5 81 L 402.5 82 L 426.5 83 L 427.5 84 L 448.5 86 L 465.5 91 Q 477.5 96.5 486 105.5 Q 494.1 113.9 499 125.5 L 505 148.5 L 507 169.5 L 508 170.5 L 508 179.5 L 509 180.5 L 510 208.5 L 511 209.5 L 512 272.5 L 511 273.5 L 511 300.5 L 510 301.5 L 509 330.5 L 508 331.5 L 507 349.5 L 506 350.5 L 503 373.5 Q 497.4 400.4 478.5 414 L 456.5 425 L 440.5 428 L 424.5 429 L 423.5 430 L 411.5 430 L 410.5 431 L 378.5 432 L 377.5 433 L 352.5 433 L 351.5 434 L 315.5 434 L 314.5 435 L 198.5 435 L 197.5 434 L 161.5 434 L 160.5 433 L 118.5 432 L 117.5 431 L 91.5 430 L 90.5 429 L 82.5 429 L 81.5 428 L 61.5 426 Q 36.3 420.7 23 403.5 L 12 384.5 L 5 349.5 L 4 331.5 L 3 330.5 L 3 318.5 L 2 317.5 L 2 301.5 L 1 300.5 L 0 240.5 L 1 239.5 L 1 212.5 L 2 211.5 L 3 182.5 L 4 181.5 L 4 171.5 L 5 170.5 L 8 143.5 L 13 125.5 L 17 117.5 L 29.5 102 Q 39.5 93 53.5 88 L 75.5 84 L 93.5 83 L 94.5 82 L 106.5 82 L 107.5 81 L 123.5 81 L 124.5 80 L 173.5 79 L 174.5 78 L 224.5 78 L 225.5 77 Z M 206 179 L 205 333 L 337 258 L 338 255 L 206 179 Z " /><path fill="rgb(0,0,0)" stroke="rgb(0,0,0)" stroke-width="1" opacity="0" d="M 0 0 L 512 0 L 512 213.5 L 511 213.5 L 511 196.5 L 510 195.5 L 509 172.5 L 508 171.5 L 506 149.5 L 502 131.5 Q 496 112.5 482.5 101 Q 472.1 91.4 456.5 87 L 433.5 83 L 413.5 82 L 412.5 81 L 381.5 80 L 380.5 79 L 359.5 79 L 358.5 78 L 325.5 78 L 324.5 77 L 185.5 77 L 184.5 78 L 153.5 78 L 152.5 79 L 111.5 80 L 110.5 81 L 97.5 81 L 96.5 82 L 86.5 82 L 85.5 83 L 76.5 83 L 75.5 84 L 63.5 85 Q 36.9 89.9 23 107.5 Q 11.8 119.8 8 139.5 L 5 163.5 L 4 164.5 L 4 172.5 L 3 173.5 L 0.5 217 L 0 0 Z " /><path fill="rgb(0,0,0)" stroke="rgb(0,0,0)" stroke-width="1" opacity="0" d="M 0.5 296 L 4 347.5 L 10 380.5 Q 16.6 401.9 32.5 414 Q 42.7 422.3 57.5 426 L 74.5 428 L 75.5 429 L 83.5 429 L 84.5 430 L 105.5 431 L 106.5 432 L 141.5 433 L 142.5 434 L 167.5 434 L 168.5 435 L 210.5 435 L 211.5 436 L 301.5 436 L 302.5 435 L 344.5 435 L 345.5 434 L 392.5 433 L 393.5 432 L 408.5 432 L 409.5 431 L 420.5 431 L 421.5 430 L 445.5 428 L 462.5 424 L 474.5 418 L 488 406.5 Q 498.6 395.1 503 377.5 L 507 355.5 L 508 339.5 L 509 338.5 L 511.5 296 L 512 512 L 0 512 L 0.5 296 Z " /><path fill="rgb(255,253,253)" stroke="rgb(255,253,253)" stroke-width="1" opacity="1" d="M 205 180 L 338 256.5 L 205.5 333 L 205 180 Z " /><path fill="rgb(255,30,30)" stroke="rgb(255,30,30)" stroke-width="1" opacity="1" d="M 207.5 180 L 208.5 182 L 207.5 180 Z " /><path fill="rgb(255,30,30)" stroke="rgb(255,30,30)" stroke-width="1" opacity="1" d="M 214.5 184 L 215.5 186 L 214.5 184 Z " /><path fill="rgb(255,30,30)" stroke="rgb(255,30,30)" stroke-width="1" opacity="1" d="M 221.5 188 L 222.5 190 L 221.5 188 Z " /><path fill="rgb(255,30,30)" stroke="rgb(255,30,30)" stroke-width="1" opacity="1" d="M 233.5 195 L 234.5 197 L 233.5 195 Z " /><path fill="rgb(255,30,30)" stroke="rgb(255,30,30)" stroke-width="1" opacity="1" d="M 240.5 199 L 241.5 201 L 240.5 199 Z " /><path fill="rgb(255,30,30)" stroke="rgb(255,30,30)" stroke-width="1" opacity="1" d="M 247.5 203 L 248.5 205 L 247.5 203 Z " /><path fill="rgb(255,30,30)" stroke="rgb(255,30,30)" stroke-width="1" opacity="1" d="M 254.5 207 L 255.5 209 L 254.5 207 Z " /><path fill="rgb(255,30,30)" stroke="rgb(255,30,30)" stroke-width="1" opacity="1" d="M 266.5 214 L 267.5 216 L 266.5 214 Z " /><path fill="rgb(255,30,30)" stroke="rgb(255,30,30)" stroke-width="1" opacity="1" d="M 273.5 218 L 274.5 220 L 273.5 218 Z " /><path fill="rgb(255,30,30)" stroke="rgb(255,30,30)" stroke-width="1" opacity="1" d="M 280.5 222 L 281.5 224 L 280.5 222 Z " /><path fill="rgb(255,30,30)" stroke="rgb(255,30,30)" stroke-width="1" opacity="1" d="M 287.5 226 L 288.5 228 L 287.5 226 Z " /><path fill="rgb(255,30,30)" stroke="rgb(255,30,30)" stroke-width="1" opacity="1" d="M 299.5 233 L 300.5 235 L 299.5 233 Z " /><path fill="rgb(255,30,30)" stroke="rgb(255,30,30)" stroke-width="1" opacity="1" d="M 306.5 237 L 307.5 239 L 306.5 237 Z " /><path fill="rgb(255,30,30)" stroke="rgb(255,30,30)" stroke-width="1" opacity="1" d="M 313.5 241 L 314.5 243 L 313.5 241 Z " /><path fill="rgb(255,30,30)" stroke="rgb(255,30,30)" stroke-width="1" opacity="1" d="M 320.5 245 L 321.5 247 L 320.5 245 Z " /><path fill="rgb(255,30,30)" stroke="rgb(255,30,30)" stroke-width="1" opacity="1" d="M 332.5 252 L 333.5 254 L 332.5 252 Z " /><path fill="rgb(255,30,30)" stroke="rgb(255,30,30)" stroke-width="1" opacity="1" d="M 327.5 262 L 326.5 264 L 327.5 262 Z " /><path fill="rgb(255,30,30)" stroke="rgb(255,30,30)" stroke-width="1" opacity="1" d="M 320.5 266 L 319.5 268 L 320.5 266 Z " /><path fill="rgb(255,30,30)" stroke="rgb(255,30,30)" stroke-width="1" opacity="1" d="M 313.5 270 L 312.5 272 L 313.5 270 Z " /><path fill="rgb(255,30,30)" stroke="rgb(255,30,30)" stroke-width="1" opacity="1" d="M 301.5 277 L 300.5 279 L 301.5 277 Z " /><path fill="rgb(255,30,30)" stroke="rgb(255,30,30)" stroke-width="1" opacity="1" d="M 294.5 281 L 293.5 283 L 294.5 281 Z " /><path fill="rgb(255,30,30)" stroke="rgb(255,30,30)" stroke-width="1" opacity="1" d="M 287.5 285 L 286.5 287 L 287.5 285 Z " /><path fill="rgb(255,30,30)" stroke="rgb(255,30,30)" stroke-width="1" opacity="1" d="M 280.5 289 L 279.5 291 L 280.5 289 Z " /><path fill="rgb(255,30,30)" stroke="rgb(255,30,30)" stroke-width="1" opacity="1" d="M 268.5 296 L 267.5 298 L 268.5 296 Z " /><path fill="rgb(255,30,30)" stroke="rgb(255,30,30)" stroke-width="1" opacity="1" d="M 261.5 300 L 260.5 302 L 261.5 300 Z " /><path fill="rgb(255,30,30)" stroke="rgb(255,30,30)" stroke-width="1" opacity="1" d="M 254.5 304 L 253.5 306 L 254.5 304 Z " /><path fill="rgb(255,30,30)" stroke="rgb(255,30,30)" stroke-width="1" opacity="1" d="M 247.5 308 L 246.5 310 L 247.5 308 Z " /><path fill="rgb(255,30,30)" stroke="rgb(255,30,30)" stroke-width="1" opacity="1" d="M 235.5 315 L 234.5 317 L 235.5 315 Z " /><path fill="rgb(255,30,30)" stroke="rgb(255,30,30)" stroke-width="1" opacity="1" d="M 228.5 319 L 227.5 321 L 228.5 319 Z " /><path fill="rgb(255,30,30)" stroke="rgb(255,30,30)" stroke-width="1" opacity="1" d="M 221.5 323 L 220.5 325 L 221.5 323 Z " /><path fill="rgb(255,30,30)" stroke="rgb(255,30,30)" stroke-width="1" opacity="1" d="M 214.5 327 L 213.5 329 L 214.5 327 Z " /></svg>