<svg width="512" height="512" version="1.1" xmlns="http://www.w3.org/2000/svg" desc="Created with imagetracer.js version 1.2.6" ><path fill="rgb(0,0,0)" stroke="rgb(0,0,0)" stroke-width="1" opacity="0" d="M 0 0 L 164 0.5 L 143.5 1 L 142.5 2 L 124.5 3 L 92.5 11 Q 56.3 24.3 34 51.5 Q 16.4 71.9 8 101.5 L 2 132.5 L 0.5 163 L 0 0 Z " /><path fill="rgb(0,0,0)" stroke="rgb(0,0,0)" stroke-width="1" opacity="0" d="M 348.5 0 L 512 0 L 512 162.5 L 511 162.5 L 511 143.5 L 510 142.5 L 509 124.5 L 504 101.5 L 500 89.5 L 489 66.5 L 470 42 L 445.5 23 L 422.5 12 L 393.5 4 L 380.5 3 L 379.5 2 L 369.5 2 L 368.5 1 L 348.5 1 L 348.5 0 Z " /><path fill="rgb(0,0,0)" stroke="rgb(0,0,0)" stroke-width="1" opacity="0" d="M 166.5 47 L 344.5 47 L 345.5 48 L 375.5 49 L 392.5 52 L 410.5 58 L 424.5 66 L 436 75 L 446 87.5 L 453 99.5 L 458 112.5 L 463 136.5 L 464 167.5 L 465 168.5 L 465 344.5 L 464 345.5 L 464 364.5 L 463 365.5 L 462 382.5 L 456 405.5 Q 447.9 426.4 432.5 440 Q 421 450 405.5 456 L 392.5 460 L 375.5 463 L 366.5 463 L 365.5 464 L 345.5 464 L 344.5 465 L 167.5 465 L 166.5 464 L 136.5 463 L 109.5 457 Q 84 448 69 428.5 L 61 416.5 L 54 399.5 L 50 382.5 L 49 365.5 L 48 364.5 L 48 345.5 L 47 344.5 L 47 167.5 L 48 166.5 L 48 146.5 L 49 145.5 L 50 129.5 L 56 106.5 Q 63.9 85.4 79.5 72 Q 93.8 58.8 115.5 53 L 135.5 49 L 165.5 48 L 166.5 47 Z M 389 88 L 381 90 L 373 95 Q 366 100 363 109 L 361 119 L 363 131 L 370 142 L 382 149 L 393 151 L 404 149 L 413 144 Q 422 137 424 124 Q 425 108 418 101 Q 413 94 405 90 L 397 88 L 389 88 Z M 246 124 L 223 128 L 203 135 Q 183 144 169 157 Q 152 171 141 191 L 129 219 L 124 246 L 124 267 L 129 294 Q 137 321 154 341 Q 169 359 191 371 L 219 383 L 231 386 L 246 387 L 247 388 L 276 387 L 303 380 Q 326 371 343 356 Q 360 341 372 320 L 382 297 L 387 276 L 387 267 L 388 266 L 388 246 L 383 219 Q 375 191 358 172 Q 338 147 308 134 L 294 129 L 276 125 L 246 124 Z " /><path fill="rgb(0,0,0)" stroke="rgb(0,0,0)" stroke-width="1" opacity="0" d="M 248.5 171 L 270.5 172 L 290.5 178 Q 309.4 187.1 322 202.5 L 331 215.5 L 338 232.5 L 341 249.5 L 341 263.5 L 338 279.5 L 334 290.5 Q 326.5 306.5 314.5 318 Q 302.4 329.4 285.5 336 L 270.5 340 L 249.5 341 L 248.5 340 L 236.5 339 L 219.5 333 Q 201.9 324.1 190 309.5 Q 180.3 298.3 175 282.5 L 171 262.5 L 171 249.5 L 172 248.5 L 173 236.5 L 179 219.5 Q 186.2 204.7 197.5 194 Q 207.9 184.4 221.5 178 L 232.5 174 L 248.5 171 Z " /><path fill="rgb(0,0,0)" stroke="rgb(0,0,0)" stroke-width="1" opacity="0" d="M 0.5 349 L 1 368.5 L 2 369.5 L 3 387.5 L 8 410.5 L 12 422.5 Q 25.3 457.7 52.5 479 Q 72.6 495.9 101.5 504 L 132.5 510 L 164 511.5 L 0 512 L 0.5 349 Z " /><path fill="rgb(0,0,0)" stroke="rgb(0,0,0)" stroke-width="1" opacity="0" d="M 511.5 349 L 512 512 L 348 511.5 L 368.5 511 L 369.5 510 L 387.5 509 L 410.5 504 L 422.5 500 Q 455.8 486.8 477 461.5 Q 494.1 441.6 503 413.5 L 509 387.5 L 510 369.5 L 511 368.5 L 511.5 349 Z " /><path fill="rgb(237,0,96)" stroke="rgb(237,0,96)" stroke-width="1" opacity="0.9764705882352941" d="M 164.5 0 L 347.5 0 L 348.5 1 L 368.5 1 L 369.5 2 L 387.5 3 L 410.5 8 L 432.5 16 L 454.5 29 L 470 42 L 483 57.5 L 496 79.5 L 504 101.5 L 509 124.5 L 510 142.5 L 511 143.5 L 511 162.5 L 512 163.5 L 512 348.5 L 511 349.5 L 511 368.5 L 510 369.5 L 510 379.5 L 509 380.5 L 508 393.5 L 503 413.5 L 496.5 428 L 460.5 393 L 459 393.5 L 461 388.5 L 462 376.5 L 463 375.5 L 464 345.5 L 465 344.5 L 465 168.5 L 464 167.5 L 463 136.5 L 458 112.5 L 450 93.5 L 436 75 L 424.5 66 L 410.5 58 L 392.5 52 L 375.5 49 L 345.5 48 L 344.5 47 L 166.5 47 L 165.5 48 L 135.5 49 L 120.5 52 L 82 15.5 L 101.5 8 L 118.5 4 L 131.5 3 L 132.5 2 L 142.5 2 L 143.5 1 L 163.5 1 L 164.5 0 Z " /><path fill="rgb(237,0,96)" stroke="rgb(237,0,96)" stroke-width="1" opacity="0.9764705882352941" d="M 388.5 88 L 396.5 88 L 404.5 90 Q 412.9 93.6 418 100.5 Q 424.8 108.2 424 123.5 Q 421.7 137.2 412.5 144 L 403.5 149 L 392.5 151 L 381.5 149 L 370 142 L 363 130.5 L 361 118.5 L 363 108.5 Q 366.1 100.1 372.5 95 L 380.5 90 L 388.5 88 Z " /><path fill="rgb(237,0,96)" stroke="rgb(237,0,96)" stroke-width="1" opacity="0.9764705882352941" d="M 245.5 124 L 275.5 125 L 293.5 129 L 307.5 134 Q 338.1 147.4 358 171.5 Q 374.5 191 383 218.5 L 388 245.5 L 388 265.5 L 387 266.5 L 387 275.5 L 385 285.5 L 378.5 305 L 341.5 267 L 340 267.5 L 341 264.5 L 341 249.5 L 338 232.5 L 331 215.5 Q 322.4 200.6 309.5 190 Q 298.2 180.3 282.5 175 L 262.5 171 L 248.5 171 L 245 172 L 245 170.5 L 208.5 134 L 207 133.5 L 230.5 126 L 244.5 125 L 245.5 124 Z " /><path fill="rgb(254,47,2)" stroke="rgb(254,47,2)" stroke-width="1" opacity="0.9764705882352941" d="M 80.5 16 L 83.5 16 L 120 51.5 L 103.5 57 L 91.5 63 L 72 79.5 Q 63.4 88.9 58 101.5 L 53 115.5 L 50 129.5 L 49 145.5 L 48 146.5 L 48 166.5 L 47 167.5 L 47 247.5 L 46 249.5 L 47 252.5 L 46 252.5 L 0 205.5 L 0 164.5 L 1 163.5 L 1 143.5 L 2 142.5 L 3 124.5 L 8 101.5 L 12 89.5 Q 24.8 55.8 50.5 35 Q 63.4 23.4 80.5 16 Z " /><path fill="rgb(254,47,2)" stroke="rgb(254,47,2)" stroke-width="1" opacity="0.9764705882352941" d="M 205.5 134 L 208.5 134 L 245 170.5 Q 245.9 173.9 240.5 172 Q 211 178.5 194 197.5 Q 182.6 209.6 176 226.5 L 172 241.5 L 171 262.5 L 172 263.5 L 173 275.5 L 179 292.5 Q 187.9 310.1 202.5 322 Q 213.7 331.8 229.5 337 L 249.5 341 L 262.5 341 L 263.5 340 L 275.5 339 L 292.5 333 Q 307.3 325.8 318 314.5 Q 327.6 304.1 334 290.5 L 338 279.5 L 339 271.5 L 341.5 267 L 378 303.5 L 378 305.5 Q 365.8 336.3 342.5 356 Q 325.5 371 302.5 380 L 275.5 387 L 246.5 388 L 218.5 383 L 190.5 371 Q 170.6 359.4 156 342.5 Q 138.1 322.4 129 293.5 L 124 266.5 L 124 245.5 L 129 218.5 L 141 190.5 Q 152.1 171.1 168.5 157 Q 184.1 142.6 205.5 134 Z " /><path fill="rgb(254,47,2)" stroke="rgb(254,47,2)" stroke-width="1" opacity="0.9764705882352941" d="M 460.5 393 L 497 428.5 Q 484.5 458 461.5 477 Q 436.7 498.7 398.5 507 L 380.5 509 L 379.5 510 L 369.5 510 L 368.5 511 L 306.5 512 L 261.5 466 L 264.5 465 L 344.5 465 L 345.5 464 L 365.5 464 L 366.5 463 L 382.5 462 L 399.5 458 L 416.5 451 Q 430.1 443.6 440 432.5 L 450 418.5 L 460.5 393 Z " /><path fill="rgb(255,163,0)" stroke="rgb(255,163,0)" stroke-width="1" opacity="0.9764705882352941" d="M 0.5 206 L 47 253.5 L 47 344.5 L 48 345.5 L 48 364.5 L 49 365.5 L 50 382.5 L 54 399.5 L 61 416.5 Q 69.8 432.2 83.5 443 L 101.5 454 L 112.5 458 L 136.5 463 L 166.5 464 L 167.5 465 L 264 465.5 L 261 466.5 L 305.5 512 L 164.5 512 L 163.5 511 L 143.5 511 L 142.5 510 L 132.5 510 L 131.5 509 L 118.5 508 Q 62.2 497.3 33 459.5 Q 21.4 445.6 14 427.5 L 8 410.5 L 3 387.5 L 2 369.5 L 1 368.5 L 1 349.5 L 0 348.5 L 0.5 206 Z " /><path fill="rgb(255,163,0)" stroke="rgb(255,163,0)" stroke-width="1" opacity="0.9764705882352941" d="M 154.5 340 L 155.5 342 L 154.5 340 Z " /><path fill="rgb(255,163,0)" stroke="rgb(255,163,0)" stroke-width="1" opacity="0.9764705882352941" d="M 170.5 356 L 171.5 358 L 170.5 356 Z " /></svg>