<svg width="300" height="116" version="1.1" xmlns="http://www.w3.org/2000/svg" desc="Created with imagetracer.js version 1.2.6" ><path fill="rgb(0,0,0)" stroke="rgb(0,0,0)" stroke-width="1" opacity="0" d="M 0 0 L 104 0.5 L 97 6.5 L 92.5 15 L 90.5 14 L 88 16.5 L 79 35.5 L 76 48.5 L 75 64.5 L 78 80.5 L 83.5 94 L 85.5 93 Q 85.3 99.3 88 102.5 L 100 115.5 L 74.5 116 L 71 114 L 70.5 116 L 0 116 L 0 0 Z " /><path fill="rgb(0,0,0)" stroke="rgb(0,0,0)" stroke-width="1" opacity="0" d="M 112.5 0 L 121 0.5 L 113 10.5 L 97.5 42 Q 93.3 35.7 95 23.5 L 99 11.5 L 105.5 5 L 112.5 0 Z " /><path fill="rgb(0,0,0)" stroke="rgb(0,0,0)" stroke-width="1" opacity="0" d="M 134.5 0 L 300 0 L 300 116 L 230.5 116 L 230 114 L 227.5 114 L 225.5 116 L 175.5 116 Q 144.1 106.9 125 85.5 L 120 78.5 L 122.5 76 L 130.5 73 L 142.5 72 L 143.5 71 L 144.5 72 L 157.5 72 L 158.5 73 L 174.5 74 L 175.5 75 L 207.5 75 L 224 71 Q 225.3 68 221.5 69 L 220.5 70 L 209.5 71 L 209.5 70 L 221.5 68 L 225 65.5 Q 225.8 63.3 223.5 64 L 210.5 67 L 184.5 67 L 183.5 66 L 156.5 64 L 155.5 63 L 133.5 63 L 122.5 66 L 112.5 71 L 108 65.5 L 108 63.5 L 126.5 47 L 157.5 29 Q 171 22.5 187.5 19 L 207.5 18 L 212 19 Q 213.1 16.3 210.5 17 L 205.5 15 L 192 14.5 L 208 13 L 207.5 11 L 185.5 11 Q 133.1 22.6 102.5 56 L 101 52.5 L 110 39.5 L 122 13.5 L 134.5 0 Z " /><path fill="rgb(0,0,0)" stroke="rgb(0,0,0)" stroke-width="1" opacity="0" d="M 91.5 16 L 92 18.5 L 91 18.5 L 91.5 16 Z " /><path fill="rgb(0,0,0)" stroke="rgb(0,0,0)" stroke-width="1" opacity="0" d="M 86.5 31 L 87 39.5 L 90 50.5 Q 88.1 54.8 81 53 Q 80.9 39.6 86.5 31 Z " /><path fill="rgb(0,0,0)" stroke="rgb(0,0,0)" stroke-width="1" opacity="0" d="M 92.5 60 Q 95.8 58.9 95 61.5 Q 97.5 63 94 64.5 L 85 81 Q 82 82.3 83 78.5 L 80 68.5 L 80 62 Q 88.3 63.5 92.5 60 Z " /><path fill="rgb(0,0,0)" stroke="rgb(0,0,0)" stroke-width="1" opacity="0" d="M 101.5 71 L 107 78.5 Q 100 85.5 101 100.5 L 105 112.5 L 95 103.5 L 90 95.5 L 90 92.5 Q 92.9 78.9 101.5 71 Z " /><path fill="rgb(0,0,0)" stroke="rgb(0,0,0)" stroke-width="1" opacity="0" d="M 197.5 71 L 200 71.5 L 197.5 72 L 197.5 71 Z " /><path fill="rgb(0,0,0)" stroke="rgb(0,0,0)" stroke-width="1" opacity="0" d="M 113.5 86 L 126.5 100 Q 136.1 109.4 149 115.5 L 117.5 116 L 111 104.5 L 110 92.5 L 113.5 86 Z " /><path fill="rgb(244,104,40)" stroke="rgb(244,104,40)" stroke-width="1" opacity="0.9098039215686274" d="M 106.5 0 L 110 0.5 L 98 10.5 Q 92 19.5 94 36.5 L 96 44 L 99 42.5 L 114 11.5 L 123.5 0 L 126 0.5 L 114 16.5 L 102 42.5 L 96.5 50 L 95 48.5 L 92 36.5 L 92 20.5 Q 95 8.5 103.5 2 L 106.5 0 Z " /><path fill="rgb(244,104,40)" stroke="rgb(244,104,40)" stroke-width="1" opacity="0.9098039215686274" d="M 130.5 0 L 132 0.5 Q 123.5 7.5 118 17.5 L 109 38.5 L 100 51.5 L 100 54.5 L 101 57 L 103.5 57 L 125.5 38 L 151.5 23 L 180.5 13 L 200.5 12 L 200.5 13 L 191.5 13 L 180.5 15 L 158.5 22 Q 125.4 36.9 101.5 61 L 97 51.5 L 103 44.5 L 119 11.5 L 128.5 1 L 130.5 0 Z " /><path fill="rgb(244,104,40)" stroke="rgb(244,104,40)" stroke-width="1" opacity="0.9098039215686274" d="M 185.5 16 L 205 16.5 L 186.5 18 L 174.5 21 L 156.5 28 L 125.5 46 L 106 63.5 L 112.5 73 L 129.5 65 L 134.5 64 L 154.5 64 L 155.5 65 L 163.5 65 L 164.5 66 L 181.5 67 L 182.5 68 L 211.5 68 L 216.5 67 L 216.5 68 L 207.5 70 L 176.5 70 L 166.5 68 L 157.5 68 L 156.5 67 L 131.5 67 Q 120 69.5 112.5 76 L 103 62.5 Q 133.6 28.6 185.5 16 Z " /><path fill="rgb(244,104,40)" stroke="rgb(244,104,40)" stroke-width="1" opacity="0.9098039215686274" d="M 89.5 17 L 90 35.5 L 94 52.5 Q 90.8 57.3 82.5 57 L 77 55 L 80 36.5 L 89.5 17 Z M 86 28 L 82 38 L 79 52 L 81 54 Q 90 56 92 51 L 88 39 L 88 29 L 86 28 Z " /><path fill="rgb(244,104,40)" stroke="rgb(244,104,40)" stroke-width="1" opacity="0.9098039215686274" d="M 95.5 54 L 100 63.5 Q 88.6 74.3 85 92 Q 82 93.3 83 89.5 Q 76.5 77 76 58.5 Q 77.3 55.8 78.5 58 L 84.5 59 L 91.5 57 L 95.5 54 Z M 94 58 Q 90 62 82 61 Q 80 59 79 62 Q 78 77 85 85 Q 89 72 97 64 L 96 60 L 94 58 Z " /><path fill="rgb(244,104,40)" stroke="rgb(244,104,40)" stroke-width="1" opacity="0.9098039215686274" d="M 101.5 65 L 111 77.5 L 111 79.5 Q 102.7 86.2 105 103.5 L 111 115.5 L 108 116 Q 101.9 108.2 102 93.5 L 108 77.5 L 101.5 69 Q 99.3 68.3 100 70.5 L 91 84.5 L 89 90.5 L 89 96.5 Q 95 108 105 115.5 L 102.5 116 L 89 101.5 Q 85.5 97.5 87 88.5 Q 91.8 74.3 101.5 65 Z " /><path fill="rgb(244,104,40)" stroke="rgb(244,104,40)" stroke-width="1" opacity="0.9098039215686274" d="M 135.5 68 L 151.5 68 L 152.5 69 L 177.5 71 L 178.5 72 L 202.5 73 L 203.5 72 L 212.5 72 L 212.5 73 Q 207.7 71.8 206.5 74 L 176.5 74 L 175.5 73 L 167.5 73 L 158.5 71 L 141.5 70 L 140.5 71 L 129.5 72 L 118 77 L 119 80.5 L 129.5 92 Q 145.9 108.1 171 115.5 L 164.5 116 Q 133.8 105.2 116 81.5 L 115 77.5 L 124.5 71 L 135.5 68 Z " /><path fill="rgb(244,104,40)" stroke="rgb(244,104,40)" stroke-width="1" opacity="0.9098039215686274" d="M 112.5 81 L 137.5 104 Q 145.9 111.6 158 115.5 L 152.5 116 Q 132.7 106.3 119 90.5 L 113.5 84 Q 111.3 83.3 112 85.5 Q 107.3 90.3 109 101.5 L 115 116 L 112 114.5 L 107 103.5 L 107 89.5 L 112.5 81 Z " /><path fill="rgb(254,239,233)" stroke="rgb(254,239,233)" stroke-width="1" opacity="0.2196078431372549" d="M 104.5 0 L 106 0.5 L 98 7.5 Q 89.5 16.5 92 36.5 L 94 45.5 L 96.5 50 L 102 42.5 L 114 16.5 L 126.5 0 L 130 0.5 L 122 7.5 L 116 16.5 L 103 44.5 L 97 52.5 L 101.5 61 Q 125.4 36.9 158.5 22 L 180.5 15 L 201 12.5 L 186.5 12 L 163.5 18 L 143.5 27 L 125.5 38 L 103.5 57 L 101 57 L 100 51.5 L 109 38.5 L 121 12.5 L 132.5 0 L 134 0.5 L 122 13.5 L 110 39.5 L 101 53.5 L 102.5 56 Q 124.9 32.4 157.5 19 L 171.5 14 L 185.5 11 L 208 11 Q 209.3 14.7 203.5 13 L 202.5 14 L 192 14.5 L 205.5 15 L 212 17 Q 213.3 20.3 208.5 19 L 207.5 18 L 195.5 18 L 175.5 22 L 147.5 34 Q 124.7 45.7 108 63.5 L 108 65.5 L 112.5 71 L 122.5 66 L 133.5 63 L 155.5 63 L 156.5 64 L 183.5 66 L 184.5 67 L 210.5 67 L 225 64 L 223.5 67 L 214 69.5 L 220.5 70 L 224 69 Q 225.1 71.7 222.5 71 L 218.5 73 L 207.5 75 L 175.5 75 L 174.5 74 L 166.5 74 L 157.5 72 L 144.5 72 L 143.5 71 L 142.5 72 L 130.5 73 L 122.5 76 L 120 78.5 L 131.5 92 Q 148.8 108.2 175 115.5 L 171.5 116 Q 142.1 106.9 124 86.5 Q 119 83 118 77 L 129.5 72 L 145.5 70 L 146.5 71 L 158.5 71 L 159.5 72 L 175.5 73 L 176.5 74 L 206.5 74 L 213 72.5 L 203.5 72 L 202.5 73 L 194.5 73 L 193.5 72 L 178.5 72 L 177.5 71 L 160.5 70 L 151.5 68 L 135.5 68 L 124.5 71 L 115 77.5 L 116 81.5 L 133.5 99 Q 146.2 109.8 164 115.5 L 158.5 116 L 137.5 104 L 112.5 81 Q 104.3 86.8 107 103.5 L 113 115.5 L 111.5 116 Q 106.7 111.3 105 103.5 L 105 90.5 L 111 77.5 L 101.5 65 L 89 82.5 Q 85.9 87.9 87 97.5 Q 92.3 108.7 102 115.5 L 100.5 116 L 88 102.5 Q 85.3 99.3 85.5 93 L 83.5 94 Q 75.3 79.7 75 57.5 L 79 35.5 L 88 16.5 L 90.5 14 L 92.5 15 Q 95.7 6.2 102.5 1 L 104.5 0 Z M 92 16 L 91 19 L 92 19 L 92 16 Z M 186 16 Q 134 29 103 63 L 113 76 Q 120 69 132 67 L 157 67 L 158 68 L 167 68 L 177 70 L 208 70 L 217 68 L 217 67 L 212 68 L 183 68 L 182 67 L 165 66 L 164 65 L 156 65 L 155 64 L 135 64 L 130 65 L 113 73 L 106 64 L 126 46 L 157 28 L 175 21 L 187 18 L 205 17 L 186 16 Z M 90 17 L 80 37 L 77 55 L 83 57 Q 91 57 94 53 L 90 36 L 90 17 Z M 96 54 L 92 57 L 85 59 L 79 58 Q 77 56 76 59 Q 77 77 83 90 Q 82 93 85 92 Q 89 74 100 64 L 96 54 Z M 210 70 L 210 71 L 214 71 L 210 70 Z M 198 71 L 198 72 L 200 72 L 198 71 Z " /><path fill="rgb(254,239,233)" stroke="rgb(254,239,233)" stroke-width="1" opacity="0.2196078431372549" d="M 110.5 0 L 112 0.5 L 99 11.5 L 95 23.5 L 95 35.5 L 97.5 42 L 113 10.5 L 121.5 0 L 123 0.5 L 114 11.5 L 101 39.5 L 97.5 44 Q 94.9 44.8 96 41.5 L 94 36.5 L 94 21.5 Q 95.7 10.2 103.5 5 L 110.5 0 Z " /><path fill="rgb(254,239,233)" stroke="rgb(254,239,233)" stroke-width="1" opacity="0.2196078431372549" d="M 86 28 L 88 28.5 L 88 38.5 L 92 50.5 Q 89.5 55.5 80.5 54 L 79 51.5 L 82 37.5 L 86 28 Z M 87 31 Q 81 40 81 53 Q 88 55 90 51 L 87 40 L 87 31 Z " /><path fill="rgb(254,239,233)" stroke="rgb(254,239,233)" stroke-width="1" opacity="0.2196078431372549" d="M 93.5 58 L 96 59.5 L 97 63.5 Q 88.5 72 84.5 85 Q 78.4 76.6 79 61.5 Q 80.3 58.7 81.5 61 Q 90 62 93.5 58 Z M 93 60 Q 88 64 80 62 L 80 69 L 83 79 Q 82 82 85 81 L 94 65 Q 97 63 95 62 Q 96 59 93 60 Z " /><path fill="rgb(254,239,233)" stroke="rgb(254,239,233)" stroke-width="1" opacity="0.2196078431372549" d="M 100 69 L 103 70.5 L 108 77.5 L 108 79.5 Q 101.4 85.9 102 99.5 L 105 110.5 L 108 116 L 105.5 116 L 94 104.5 L 89 96.5 L 89 90.5 Q 93.2 77.9 100 69 Z M 102 71 Q 93 79 90 93 L 90 96 L 95 104 L 104 112 L 101 101 Q 100 86 107 79 L 102 71 Z " /><path fill="rgb(254,239,233)" stroke="rgb(254,239,233)" stroke-width="1" opacity="0.2196078431372549" d="M 112 84 L 119 89.5 L 127.5 99 Q 137.8 109.2 152 115.5 L 149.5 116 Q 131 106.5 118 91.5 L 113.5 86 Q 108.6 90.1 110 100.5 L 117 115.5 L 115 116 L 110 105.5 L 109 91.5 L 112 84 Z " /><path fill="rgb(254,239,233)" stroke="rgb(254,239,233)" stroke-width="1" opacity="0.2196078431372549" d="M 71 114 L 74 115.5 L 71 116 L 71 114 Z " /><path fill="rgb(254,239,233)" stroke="rgb(254,239,233)" stroke-width="1" opacity="0.2196078431372549" d="M 227.5 114 Q 231.3 113 230 116 L 226 115.5 L 227.5 114 Z " /></svg>